<svg xmlns="http://www.w3.org/2000/svg" viewBox="0 0 2409.4 5669.3"><path d="M1204.7 3123.4c325.3 0 590-264.7 590-590s-264.7-590-590-590-590 264.7-590 590 264.7 590 590 590zm-255.3-537c11.8-11.8 27.2-17.6 42.6-17.6 15.4 0 30.8 5.9 42.6 17.6l110.2 110.2V2225c0-33.3 27-60.2 60.2-60.2 33.3 0 60.2 27 60.2 60.2v471.7l109.7-109.7c11.7-11.8 27.2-17.6 42.6-17.6s30.8 5.9 42.6 17.6c23.5 23.5 23.5 61.7 0 85.2l-212.4 212.4c-2.8 2.8-5.9 5.3-9.2 7.6-1.5 1-3.1 1.6-4.6 2.5-1.9 1.1-3.8 2.2-5.8 3.1-2 .8-4.1 1.3-6.2 1.9-1.7.5-3.3 1.2-5.1 1.5-3.9.8-7.9 1.2-11.8 1.2h-.2c-3.9 0-7.8-.4-11.6-1.2-1.9-.4-3.6-1.1-5.5-1.6-1.9-.6-3.9-1-5.8-1.8-2.2-.9-4.1-2.1-6.2-3.3-1.4-.8-2.8-1.4-4.2-2.3-3.3-2.3-6.5-4.8-9.3-7.6l-212.9-213c-23.4-23.6-23.4-61.7.1-85.2z"/></svg>