<svg id="Слой_1" xmlns="http://www.w3.org/2000/svg" viewBox="0 0 1180.5 1180.5"><style>.st0{fill:#dcecec}</style><g id="XMLID_1_"><path class="st0" d="M590.7.2c325.3.3 589.8 265.2 589.5 590.5S915 1180.5 589.7 1180.2C264.5 1180 0 915.1.2 589.8S265.4 0 590.7.2zm138.4 334.7c-23.5-23.5-61.7-23.6-85.2-.1-11.7 11.8-17.6 27.2-17.6 42.6s5.8 30.9 17.6 42.6l109.6 109.8-471.7-.4c-33.2 0-60.2 26.9-60.2 60.2 0 33.2 26.9 60.2 60.2 60.2l471.6.4-110.5 110.2c-11.7 11.8-17.6 27.2-17.6 42.6 0 15.4 5.8 30.8 17.6 42.6 23.5 23.5 61.6 23.6 85.2.2L941.2 633c2.8-2.8 5.3-6 7.6-9.3.9-1.4 1.5-2.8 2.3-4.2 1.2-2.1 2.4-4 3.3-6.2.8-1.9 1.2-3.9 1.8-5.8.5-1.9 1.2-3.6 1.6-5.5.8-3.8 1.2-7.7 1.2-11.6v-.2c0-3.9-.4-7.9-1.2-11.8-.3-1.8-1-3.4-1.5-5.1-.6-2.1-1.1-4.2-1.9-6.2-.9-2-2-3.9-3.1-5.8-.9-1.5-1.5-3.1-2.5-4.6-2.3-3.3-4.8-6.4-7.6-9.2L729.1 334.9z"/></g></svg>