<svg id="Слой_1" xmlns="http://www.w3.org/2000/svg" viewBox="0 0 1180 1180"><style>.st0{fill:#a5c8c8}</style><g id="XMLID_1_"><path class="st0" d="M590 1180.2c-325.3 0-590-264.7-590-590S264.7.2 590 .2s590 264.7 590 590-264.7 590-590 590zm255.4-451.4c23.5-23.5 23.5-61.7 0-85.2-11.8-11.7-27.2-17.6-42.6-17.6s-30.9 5.8-42.6 17.6L650.5 753.3V281.6c0-33.2-26.9-60.2-60.2-60.2-33.2 0-60.2 26.9-60.2 60.2v471.6L419.9 643c-11.8-11.7-27.2-17.6-42.6-17.6s-30.8 5.8-42.6 17.6c-23.5 23.5-23.5 61.6-.1 85.2l212.9 213c2.8 2.8 6 5.3 9.3 7.6 1.4.9 2.8 1.5 4.2 2.3 2.1 1.2 4 2.4 6.2 3.3 1.9.8 3.9 1.2 5.8 1.8 1.9.5 3.6 1.2 5.5 1.6 3.8.8 7.7 1.2 11.6 1.2h.2c3.9 0 7.9-.4 11.8-1.2 1.8-.3 3.4-1 5.1-1.5 2.1-.6 4.2-1.1 6.2-1.9 2-.9 3.9-2 5.8-3.1 1.5-.9 3.1-1.5 4.6-2.5 3.3-2.3 6.4-4.8 9.2-7.6l212.4-212.4z"/></g></svg>