<?xml version="1.0" encoding="utf-8"?>
<!-- Generator: Adobe Illustrator 19.2.1, SVG Export Plug-In . SVG Version: 6.00 Build 0)  -->
<svg version="1.1" id="Слой_1" xmlns="http://www.w3.org/2000/svg" xmlns:xlink="http://www.w3.org/1999/xlink" x="0px" y="0px"
	 viewBox="0 0 122.7 123.9" width="230px"  height="230px" style="enable-background:new 0 0 122.7 123.9;" xml:space="preserve">
<style type="text/css">
	.st0{opacity:0.4;}
	.st1{fill:#97D1D2;}
</style>
<g class="st0">
	<path class="st1" d="M52.8,13.9C47.8,9.3,28.5-2.3,25.2,9.2c-0.3,0.9-0.5,1.7-1.5,2.1c-4.1,1.5-4.1,5.1-3,8.4c0,0-0.5,0.1-0.6,0
		c-1.3-4-0.9-6.6,3.1-8.5c1.1-0.5,2.7-4.4,3.9-5.4c0.7-0.6,2.3-1.2,3.2-1.2c8.7-0.7,17.3,3.9,23.1,9.3C53.4,13.9,52.9,14,52.8,13.9
		L52.8,13.9z"/>
	<path class="st1" d="M12.6,27.1C9.7,16.7,37,18.2,42.9,20.2c0.3,0.1-0.1,0.2-0.3,0.1c-5.8-2-32.2-3.3-29.5,6.6
		C13.2,27.2,12.6,27.2,12.6,27.1L12.6,27.1z"/>
	<path class="st1" d="M7,29.1c0.6-1.1,1.7-2,2.6-2.8c0.8-0.7,1.9-1.6,3-1.8c0.2,0,0.6,0.2,0.2,0.2c-1.2,0.2-2.4,1.3-3.2,2
		c-0.8,0.7-1.7,1.5-2.2,2.4C7.4,29.4,6.9,29.3,7,29.1L7,29.1z M14.3,29.2c0.6,2.1,0.2,4.1-1.6,5.6c-0.2,0.2-0.7,0-0.5-0.2
		c1.8-1.5,2.1-3.4,1.5-5.4C13.7,29,14.3,28.9,14.3,29.2L14.3,29.2z"/>
	<path class="st1" d="M14.1,29.3c0-0.1,0-0.1-0.1-0.2C14,29.1,14,29,14,29c2.7-2.4,8.4-3,11.8-4.1c5.3-1.6,10.6-1.2,15.9,0
		c0.3,0.1,0.1,0.4-0.2,0.3c-6-1.3-11.3-1.3-17.2,0.6c-0.8,0.2-9.7,3.3-9.5,3.4c0.1,0,0.1,0.1,0,0.2c-0.1,0.1-0.1,0.1-0.2,0.2
		C14.4,29.7,13.9,29.6,14.1,29.3L14.1,29.3z"/>
	<path class="st1" d="M41.6,24.6c0.7,1.7,4.7,1.4,6.3,1.9c2.2,0.7,3.9,2.7,4.3,4.7c0,0.2-0.5,0.2-0.5,0c-0.7-3.3-3.5-4.5-6.8-5
		c-1.3-0.2-3.3-0.4-3.8-1.6C41,24.4,41.5,24.4,41.6,24.6L41.6,24.6z M3.6,61.3c1.1-3.1,4.3-4.5,7.1-6.2c0.2-0.1,0.6,0.1,0.4,0.3
		c-2.7,1.7-5.8,3.1-6.9,6.1C4.1,61.6,3.5,61.5,3.6,61.3L3.6,61.3z"/>
	<path class="st1" d="M10.5,55.1c4.1-0.5,9.2-0.7,12.8-2.7c0.2-0.1,0.7,0.1,0.3,0.3c-3.7,2-9,2.3-13.1,2.8
		C10.4,55.5,10.2,55.1,10.5,55.1L10.5,55.1z"/>
	<path class="st1" d="M23.2,52.7c3.6-0.9,6.1-3.9,9-6.1c0.1-0.1,0.6,0,0.5,0.1c-2.9,2.2-5.4,5.1-9.1,6.1
		C23.4,52.9,22.9,52.8,23.2,52.7L23.2,52.7z M3.9,61.8c1,1.5,3.8,0.8,5.5,1.2c0.4,0.1,0.1,0.3-0.2,0.2C8,62.9,6.7,63,5.4,62.9
		c-1-0.1-1.4-0.3-2-1C3.3,61.6,3.8,61.6,3.9,61.8L3.9,61.8z"/>
	<path class="st1" d="M3.5,60.5c2.1-5.6,6.6-9.2,12.2-11.9c6-2.9,11.1-2.9,17.5-2.3c0.3,0,0.3,0.3,0,0.2c-6.9-0.6-12.3,0-18.5,3
		c-5,2.4-8.8,6.2-10.6,11C4,60.7,3.4,60.6,3.5,60.5L3.5,60.5z"/>
	<path class="st1" d="M23.6,25.6c-4,0.5-7.9,0.7-11.7,1.7c-5.6,1.4-8.5,6-10.7,10.5C-1.3,43.1,1.5,51.4,7,54.3
		c0.2,0.1-0.3,0.2-0.4,0.1C0,51-1.4,42.2,1.3,36.3c4.3-9.2,12.4-9.8,22-10.9C23.5,25.4,23.9,25.6,23.6,25.6L23.6,25.6z"/>
	<path class="st1" d="M14.3,36.2c0.9-5,5.6-6.6,10.5-7.4c6.4-1,13.3-0.6,19.7,0c0.3,0,0.3,0.2,0,0.2c-4-0.3-7.9,0.1-11.9-0.1
		c-6.4-0.2-16.4-0.3-17.7,7.4C14.8,36.4,14.3,36.3,14.3,36.2L14.3,36.2z"/>
	<path class="st1" d="M15.3,35.3c-0.9,1.8,0.1,5.6,1,7.1c0.9,1.4,2.4,2.3,3.5,3.6c0.2,0.2-0.4,0.2-0.5,0.1c-1.4-1.6-3.2-2.8-4.1-4.8
		c-0.5-0.9-0.4-2.2-0.5-3.2c-0.1-1-0.4-1.9,0.1-2.9C14.8,35,15.4,35.1,15.3,35.3L15.3,35.3z M12.5,63.1C8.1,65.2-1,71.8,7,75.1
		c0.2,0.1-0.3,0.1-0.4,0.1c-8.1-3.3,0.8-10,5.5-12.1C12.1,62.9,12.6,63,12.5,63.1L12.5,63.1z"/>
	<path class="st1" d="M30.6,54.7c-7,0.5-16.6,6.4-20.1,12c-2.1,3.4-2.9,6.7-3.2,10.5c0,0.4,1.5,7.6,2.7,6.1c0.1-0.1,0.6,0,0.5,0.1
		c-0.2,0.3-0.5,0.6-0.7,0.8c-0.1,0.1-0.3,0.1-0.4,0c-1.7-0.7-2-2.9-2.7-4.4C5.4,76.4,7.7,71.1,9.2,68c3.3-6.7,13.3-13.1,21.2-13.6
		C30.7,54.4,30.9,54.6,30.6,54.7L30.6,54.7z"/>
	<path class="st1" d="M38.3,52.7c-8.9,1.8-18,6.8-21.1,15c-1.1,2.9-2.6,5.4-4.3,8c-1.5,2.3-0.2,5.4-2.1,7.4c-0.1,0.1-0.7,0-0.5-0.1
		c1.7-1.8,0.8-5.1,2.1-7.4c2.3-4.1,3.9-8.8,7-12.5c5-6,10.7-9.1,18.8-10.7C38.3,52.4,38.6,52.7,38.3,52.7L38.3,52.7z"/>
	<path class="st1" d="M33.5,55c1.2,1.2-0.6,6.2-1,7.5c-0.2,0.8-1,1.5-1.6,2.1c-1.1,1.4-1,3.1-1.4,4.7c0,0.2-0.6,0.1-0.6,0
		c0.6-2.3,0.7-3.9,2.3-5.8c1.8-2,2-6.3,1.9-8.8c0,0,0.1-0.1,0.1-0.1l0.2-0.1c0.1,0,0.4,0,0.4,0.1c0.1,0.1,0.1,0.1,0.2,0.2
		C34.1,55.1,33.6,55.1,33.5,55L33.5,55z"/>
	<path class="st1" d="M29,56.3c-6.2,1.5-7.3,11.2-8.2,15.7c-0.7,3.4,3.9,1.8,5.1,0.2c0.4-0.6,0.3-1.6,1-2.1c3.2-1.9,5.8-3.2,8.3-5.9
		c0.1-0.1,0.6,0,0.5,0.2c-1.6,1.6-3.3,3.6-5.5,4.6c-1.4,0.7-3,1.2-3.6,2.7c-0.3,0.8-0.6,1.2-1.2,1.8c-1.2,1.1-4.3,2.2-5.4,0.7
		c-0.6-0.9,0.5-3.5,0.7-4.3c0.5-2.2,0.8-4.6,1.7-6.8c0.9-2.5,3.3-6.2,6.3-6.9C29,56,29.4,56.2,29,56.3L29,56.3z"/>
	<path class="st1" d="M21.7,64c-2,1.8-2.8,4.3-2.9,6.8c0,0.6-0.9,6.7,0.1,6.3c0.1-0.1,0.4-0.1,0.5,0.1c0.1,0.5,0.1,2.1,0.8,0.8
		c0.4-0.8,0.6-1.7,1.1-2.5c0.1-0.2,0.6-0.1,0.5,0.1c-0.7,1.3-0.8,3.1-2.2,3.9c-0.1,0.1-0.4,0-0.5-0.1c0-0.1-0.2-1.9-0.5-1.7
		c-0.1,0-0.4,0.1-0.4-0.1c-1-1.8-0.1-4.4,0.1-6.3c0.3-2.8,0.6-5.4,3-7.5C21.4,63.6,21.9,63.8,21.7,64L21.7,64z M21.3,78.8
		c-1.6,1.5,1,5.6,2,7c2.7,3.6,7,4,11.6,3.9c0.2,0,0.5,0.2,0.1,0.2c-4,0.1-7.7,0-10.7-2.5c-1.5-1.3-5.6-6.7-3.5-8.6
		C20.9,78.6,21.3,78.7,21.3,78.8L21.3,78.8z"/>
	<path class="st1" d="M21.2,77.4c-1.3-2.3,3.1-3,4.8-3.2c1.3-0.2,2.1-0.1,3.3,0.2c1.5,0.3,2.9,0.9,4.3,1.3c2.7,0.7,5-1,7.4-1.6
		c0.2,0,0.7,0.1,0.3,0.2c-2.9,0.8-4.9,2.1-7.9,1.6c-2.3-0.3-4.2-1.7-6.6-1.5c-1.6,0.1-6.3,0.8-5,3C21.8,77.6,21.3,77.6,21.2,77.4
		L21.2,77.4z M21,81.8c-0.8,1.4-1.7,2.8-2.6,4.2c-0.5,0.8-0.9,1.6-1.2,2.4c-0.9,1.9,0.7,2.5,2.5,2.8c3,0.7,5.4,1.6,8.7,1.4
		c2.3-0.2,3.6,0.2,5.7,0.8c0.3,0.1,0.1,0.5-0.2,0.4c-1.9-0.6-3.3-1-5.4-0.8c-1.3,0.1-2.7,0.2-4.1,0c-2.4-0.5-5.4-1.1-7.6-2.2
		c-2.4-1.2,2.8-7.7,3.6-9.1C20.6,81.5,21.1,81.6,21,81.8L21,81.8z"/>
	<path class="st1" d="M5.2,84.2c2.3-0.5,3.6,0.9,4.6,2.7c2,3.3,2.9,4.6,7.6,5.4c2.3,0.4,4.9,0.3,7,1.2c0.2,0.1-0.3,0.1-0.4,0.1
		c-3.4-1.4-7.8-0.4-11.1-2.1c-1.2-0.6-1.8-1.3-2.5-2.3c-1-1.5-2-5.3-4.8-4.7C5.5,84.3,4.9,84.2,5.2,84.2z"/>
	<path class="st1" d="M6.4,66.4c-3.8,2.9-3,5.6-2.4,9.4c0.8,4.6,0,8.1,2.3,12.6c0.2,0.7,0.4,1.4,0.6,2.1c0.1,3.9,3.5,5.7,6.8,7.4
		c5.5,2.7,19.2-0.1,24.4-3.9c0.1-0.1,0.6,0,0.5,0.1c-3.6,2.6-9.4,4-13.9,4.7c-5.4,0.8-8.8,0.6-13.5-1.8c-2-1-3.4-2.3-4.7-4
		c0.3,0.4-2.1-8.7-0.8-4.6c-0.3-1.2-1.6-2.6-1.8-3.8C3.3,81.1,3.8,77.6,3.2,74c-0.6-3.3-0.2-5.4,2.7-7.7C6.1,66.3,6.5,66.4,6.4,66.4
		L6.4,66.4z"/>
	<path class="st1" d="M10.6,89.3c2.7,2.7,5.1,5.3,9.1,6.4c4.6,1.3,10.4,0.7,15.2,0.1c0.2,0,0.6,0.2,0.2,0.3
		c-5.2,0.7-10.5,0.7-15.6-0.1c-4-0.7-6.9-4-9.4-6.5C10,89.2,10.5,89.2,10.6,89.3L10.6,89.3z M21.4,77.5c0.9,0.7,1.2,1.3,1.5,2.4
		c0.3,1.3,1.5,1.8,2.3,2.8c1,1.3,1.5,2.7,2.7,3.8c1.9,1.9,4.9,3,7.7,3c0.2,0,0.5,0.2,0.1,0.2c-3.3,0-6-1.2-8.3-3.2
		c-1.5-1.3-1.9-3-3.2-4.4c-0.6-0.6-1.1-0.9-1.6-1.6c-0.9-1.2-0.3-2-1.7-3.1C20.8,77.4,21.3,77.4,21.4,77.5L21.4,77.5z M36.6,77.4
		c0-0.3,0.1-0.7,0.1-1c0-0.2,0.6-0.2,0.6,0c-0.4,3.4-0.8,5.1,3.5,7c1.6,0.7,2.6,1.4,3.4,2.9c2.1,4,4,8.4,7.8,11.3
		c0.2,0.2-0.2,0.4-0.4,0.2c-1.6-1.2-2.7-1.8-3.4-3.6c-0.8-1.8-2.9-2.9-4-4.5C44,89.4,44,89.1,44,88.8c-0.1-1.1-0.3-2.2-0.8-3.3
		c-1.5-2.8-5.6-1.5-7.3-3.8c-0.2-0.3-0.3-0.7-0.2-1.1c-0.3,1,1.9-6.3,1.4-3.2C37.1,77.7,36.6,77.6,36.6,77.4L36.6,77.4z"/>
	<path class="st1" d="M37.9,83.3c-1.3-0.2-1.3,1.5-1.1,2.2c0.2,1,0.9,1.8,1.8,2.5c1.6,1.2,4,1.6,6.1,1.5c0.2,0,0.5,0.2,0.1,0.2
		c-2.6,0.1-5.3-0.5-7.2-2.1c-1.2-0.9-2.5-5,0.4-4.6C38.2,83,38.2,83.3,37.9,83.3L37.9,83.3z M40.1,89.8c0.2,2.9,5.2,3.6,7.7,3.5
		c0.1,0,0.6,0.1,0.2,0.2c-2.7,0.2-8.3-0.5-8.5-3.7C39.5,89.7,40.1,89.7,40.1,89.8L40.1,89.8z M47.1,94.7c0.1,0,0.7,0,0.8,0.2
		c0.9,2,1.2,3.4,3.1,5c1.5,1.3,2.1,2.9,4.3,3.4c3,0.7,7.5,2,10.5,0c0.2-0.1,0.7,0,0.5,0.2c-3.2,2.2-8.6,0.9-12-0.1
		c-1.5-0.5-2.1-1.6-3.1-2.8c-0.6-0.7-2.2-1.4-2.6-2.3c-0.3-0.6-0.6-3.2-1.5-3.3C46.7,94.9,46.7,94.7,47.1,94.7L47.1,94.7z
		 M36.4,96.1c-0.5,5-2.6,8.9-1.5,14.1c2,9.6,11.7,17.3,22.8,11.3c6.7-3.6,13.2-4.3,20.4-6.1c0.2-0.1,0.6,0.2,0.2,0.3
		c-4.2,1-8.5,1-12.2,3.6c-0.8,0.6-10.7,3.8-8.1,2.5c-4.3,2.3-8.7,2.7-13.3,1.1c-4.7-1.6-7.2-4-9-8.3c-2.9-6.9-0.5-11.6,0.2-18.6
		C35.8,95.9,36.4,95.9,36.4,96.1L36.4,96.1z"/>
	<path class="st1" d="M73.1,117.4c0.1,6,9.5,6.1,13.5,4.9c4.4-1.3,5.8-3.4,7.6-6.9c1.5-2.9,3.8-5.1,4.4-8.3c0.7-3.5-0.9-7.6-2-10.9
		c-0.1-0.2,0.5-0.2,0.5,0c1.6,4.8,3.3,10,0.6,14.8c-1.3,2.4-3,4.6-4.3,7c-0.7,1.4-2,3.2-3.7,3.7c-2.9,1-7.8,3-11.1,1.9
		c-2.6-0.9-6.2-3.4-6.3-6.2C72.6,117.2,73.1,117.3,73.1,117.4L73.1,117.4z M84.5,18.2c7.1-3.1,9.6-1.4,15,3c3.4,2.7,7.6,4.9,10,8.5
		c2.5,3.8,1.6,9.3,2.1,13.5c0,0.1-0.5,0.1-0.6,0c-0.8-6.2,0.3-12.3-5.5-16.8c-5.9-4.6-11.8-11.8-20.6-8
		C84.8,18.5,84.2,18.3,84.5,18.2L84.5,18.2z M85.7,41.4c15.6-4.9,29.5,5.9,32.9,19.3c0.1,0.2-0.5,0.2-0.5,0
		c-3.3-13.1-16.7-23.9-32.2-19C85.7,41.8,85.4,41.5,85.7,41.4L85.7,41.4z"/>
	<path class="st1" d="M98.9,40.7c3.6-1.3,6.8,0.4,9.8,2.1c7.6,4.1,12.3,9.6,13.8,17.9c0.8,4.3-4.7,11.9-10.1,11.5
		c-2.9-0.2-4.9-1.6-7.7-2.4c-1-0.3-1.4-1-2-1.8c-2.7-3.5-4.7-6.2-10-6.9c-0.4,0,0-0.1,0.2-0.1c9.9,1.2,14.5,17,25.9,7.5
		c6-4.9,1.9-12.4-0.9-17.3c-2.3-4.2-12.5-12.5-18.7-10.3C99.3,40.9,98.8,40.8,98.9,40.7L98.9,40.7z"/>
	<path class="st1" d="M121.3,67c1.4,4,0.9,7.9,1.3,12.1c0.2,1.9-1.5,3.1-0.6,5.3c0.4,1-0.9,2-1.5,2.6c-2.5,2.3-10.8,7.5-14.6,4.9
		c-0.2-0.1,0.3-0.1,0.5-0.1c3.2,2.2,9.7-2.3,12.6-4.1c2.7-1.8,2.1-3.3,1.9-5.6c0.2-0.3,0.3-0.7,0.6-1c0.9-1.6,0.6-2.7,0.6-4.3
		c0-3.4,0-6.4-1.2-9.6C120.7,66.9,121.3,66.9,121.3,67L121.3,67z"/>
	<path class="st1" d="M100.2,64.4c4.1,3.1,6.4,9.6,7.3,14.3c0.5,2.8,0,5.8-0.7,8.5c-0.5,2-0.5,4.4-1.6,6.3c-0.1,0.2-1.8,1.4-2.2,0.5
		c-1.1-2.3-1.4-5-2.4-7.4c-0.7-1.5-2.1-2.7-2.4-4.4c0-0.1,0.5-0.1,0.6,0c0.4,2.4,2.7,5,3.6,7.3c0.4,1.1,0.6,2.4,0.8,3.6
		c1.8-0.7,2.5-1.7,2.3-3.2c0.1-1,0.4-1.9,0.8-2.8c2.3-6.9-0.5-18.1-6.6-22.7C99.6,64.4,100.1,64.4,100.2,64.4L100.2,64.4z
		 M90.7,65.3c1.9,2.2,2.8,4.1,3.7,6.8c0.9,2.8,2.9,6.8,2.9,9.7c0,3.2-0.9,5.6-2.3,8.6c-0.9,1.9-1.7,5.8-3.4,7.3
		c-6.2,5.3-7.4-11.4-7.1-13.7c0-0.2,0.6-0.2,0.6,0c-0.3,3.3-0.1,6.5,0.7,9.8c0.6,2.8,2.6,3.6,6.1,2.5c0.7-1.2,1.2-2.6,1.7-3.9
		c2.1-5.1,4.1-8.9,2-14.4c-1.7-4.4-2-8.7-5.3-12.6C90,65.3,90.5,65.1,90.7,65.3L90.7,65.3z"/>
	<path class="st1" d="M102.2,90.1c-0.4,2.7-1.9,5.1-5.1,5.2c-0.2,0-0.5-0.2-0.1-0.2c3.1,0,4.3-2.5,4.7-5
		C101.7,89.9,102.2,89.9,102.2,90.1L102.2,90.1z"/>
	<path class="st1" d="M98.8,82.9c-0.4,5.9-1.3,12.3-2.8,18.1c-0.9,3.5-4.7,3-7.6,2.7c-0.3,0-0.3-0.2,0-0.2c2.9,0.3,5.9,0.3,7.1-2.6
		c0.6-1.4,0.5-3.1,0.8-4.6c0.7-4.5,1.7-8.9,2-13.5C98.3,82.8,98.8,82.8,98.8,82.9L98.8,82.9z M89,103.9c4.2,3.3-7.9,12.3-11.8,12
		c-0.3,0-0.3-0.2,0-0.2c0.8-0.2,1.6-0.4,2.3-0.6c0.1,0,0.6,0.1,0.5,0.1c-0.9,0.3-1.9,0.7-2.8,0.7c-0.3,0-0.3-0.2,0-0.2
		c3.5,0.2,15.2-8.7,11.3-11.8C88.4,103.9,88.9,103.9,89,103.9L89,103.9z"/>
	<path class="st1" d="M88.5,104.1c-3.5,5.1-7.7,8.8-14.4,9.6c-5.3,0.6-7.2-1.7-10-5.1c-0.1-0.1,0.4-0.1,0.5,0
		c0.9,1.2,1.4,2.3,2.5,3.4c2.7,2.6,7.8,1.6,11.1,0.6c4.4-1.4,7.4-5.1,9.8-8.5C88.1,103.9,88.6,103.9,88.5,104.1L88.5,104.1z
		 M90.9,98.5c-2.9,4.2-9.4,5.4-14.4,5.7c-0.3,0-0.5-0.2-0.1-0.3c4.9-0.3,11.1-1.4,14-5.5C90.5,98.3,91,98.4,90.9,98.5L90.9,98.5z"/>
	<path class="st1" d="M89,101.4c-1.8,1.3-3.4,3.7-5.7,4.3c-2.7,0.7-4.6-0.5-7-1.3c-0.3-0.1-0.1-0.4,0.2-0.3c2.4,0.8,4.4,2.2,7.1,1
		c1.9-0.8,3.3-2.8,4.9-4C88.7,101.1,89.2,101.2,89,101.4L89,101.4z M85.9,42.4c2.8,1,5.1,2.2,7.5,3.7c2.6,1.7,4.7,5.3,7.7,6.2
		c2.1,0.7,5.3,2,7,3.3c1.6,1.2,9.2,9.6,10.2,5.1c0-0.2,0.6-0.2,0.6,0c-0.8,3.5-5.2,1.3-6.9-0.6c-2.1-2.5-4.6-4.5-7.7-6
		c-1.3-0.6-4.5-1.6-5.3-2.1c-1.6-1.1-3.2-3.5-4.6-4.7c-2.5-2.1-5.6-3.6-8.8-4.7C85.2,42.5,85.6,42.3,85.9,42.4L85.9,42.4z"/>
	<path class="st1" d="M110,56c0,0.2,1.4,0.7,1.7,0.8c0.5,0.2,1,0.6,1.3,1c1.2,1.3,1.9,2.9,3.3,4c0.2,0.2-0.2,0.3-0.4,0.2
		c-1.4-1.1-2.1-2.6-3.2-3.9c-0.8-0.9-1.8-1.3-3-1.7c-0.3-0.1-0.3-0.3-0.3-0.6C109.5,55.7,110.1,55.8,110,56L110,56z M88.8,46.7
		c1.3,0.1,1.8,0.3,2.7,1.1c0.8,0.8,1.4,2.4,2,3.3c0.6,0.9,3.8,2.3,4.9,3.2c0.3,0.2,0.5,0.6,0.7,0.9c1.7,2.7,4.1,5,7.1,6.6
		c1.4,0.7,2.9,1.2,4.3,1.9c1.1,0.6,1.4,1.9,2.7,2.5c0.3,0.1-0.2,0.3-0.4,0.2c-2.4-1.3-4.1-3.2-6.9-4.3c-2.6-1-4.4-3.1-6.1-5
		c-1-1.2-1.3-2.2-2.8-3.4c1.8,1.4-3.9-2.1-3.4-1.8c-2.2-1.4-1.4-4.7-4.9-4.9C88.4,47,88.5,46.7,88.8,46.7L88.8,46.7z M41.3,23.8
		c0.6,0.6,0.5,0.4,0.6,0.8c0,0.2-0.5,0.1-0.5,0c-2.5-5.2,8.4-10.6,13.2-11.1c4.9-0.5,9.3-0.7,14,0.7c2.3,0.7,4.6,1.4,6.8,2.4
		c3,1.3,4.2,4.1,7.7,5c0.3,0.1,0.1,0.3-0.2,0.2c-3.6-0.8-4.9-3.1-8-5c-4.5-2.8-11.8-3.5-17-3.3c-5.3,0-9.7,1.8-13,5.3
		c-1.7,1.4-3.1,3.1-4.1,5.1C40.6,23.7,41.2,23.7,41.3,23.8L41.3,23.8z"/>
	<path class="st1" d="M43.2,20.4c1.5,0.7,6-2.1,7.7-2.7c2.2-0.7,5.7-0.5,8-0.4c4.3,0.1,8.2,0.9,12.4,1.3c3.4,0.3,6.3,1.8,9.7,2.2
		c0.3,0,0.3,0.4,0,0.3c-8.4-0.9-15.9-3.5-24.6-3.5c-4.5,0-8,2.3-12.2,3.5c-0.4,0.1-1.3-0.6-1.3-0.5C42.6,20.5,43,20.3,43.2,20.4
		L43.2,20.4z"/>
	<path class="st1" d="M65.8,18.4c0.4,0,0.8,0,1.2,0c0.2,0,0.5,0.2,0.1,0.2c-4.9,0.4-9.6,0.9-14.3,2.3c0.3,2.3,1.3,3.3,2.8,3.2
		c2.6-0.3,1.4-0.3,3.9,0c1.8,0.2,8.8-0.2,11.2,1.2c3.8,2.2,3.9,3.2,7.1,4.4c1.5,0.6,5.9,2.1,6.5,2.5c3.7,2.1,5.8,5,8.7,7.8
		c0.2,0.2-0.4,0.2-0.5,0.1c-5.8-5.7-10.6-8.5-18.5-11.5c-1.9-0.7-1.6-0.7-2.9-2c-2.5-2.8-4.9-1.3-7.6-1.6c-5-0.5-10.5,1-15.2-0.1
		c-0.1,0-0.2-0.1-0.2-0.1c0.6-5.6,13.7-6.1,18-6.1C65.6,18.6,65.4,18.3,65.8,18.4L65.8,18.4z M81,21.1c3-0.2,4.9,3.9,6.8,5.4
		c2.2,1.8,3.1,3,4,5.5c0.6,1.9,0.6,1.7,1.7,3.8c0.8,1.4,0.8,3.1,1.5,4.5c0.1,0.2-0.5,0.2-0.5,0c-0.9-1.8-1.1-3.6-2.1-5.5
		c-0.8-1.3-1.2-2.9-1.6-4.3c-0.4-1.2-7.6-9.4-9.6-9.2C80.8,21.4,80.7,21.1,81,21.1L81,21.1z M54.8,13c-0.1,0-0.1,0-0.2,0
		c-0.1,0-0.4-0.1-0.3-0.2c1.4-2,2-4.2,2.7-6.4c0.8-2.3,3.8-1.1,4.4-4.2c0.4-1.8,5-2.3,6.6-2.2c5,0.4,9.7,5.3,13.3,7.5
		c3.7,2.2,5.8,6,5.5,10.1c0,0.2-0.6,0.2-0.6,0c0.3-5.6-3.4-8.9-8.5-11.3C73.3,4,71.8-0.5,65.1,1.1c-2.9,0.7-3,2.8-5.2,3.8
		c-2.7,1.2-2.5,2.7-3.3,4.6c-0.2,0.6-0.9,3.3-1.9,3.4C55,12.7,55.2,13,54.8,13L54.8,13z"/>
	<path class="st1" d="M57.3,10.3c1-3.2,11.6-1.9,14-1.3c5,1.3,8.5,5.7,12.4,8.7c3.9,3,6,7.6,7.3,12.1c0.1,0.2-0.5,0.2-0.5,0
		c-2-6.7-6-10.8-11.3-15.4c-3.4-3-6.2-4.9-11.3-5.2c-2.2-0.1-9.1-1.5-9.9,1.2C57.8,10.5,57.2,10.4,57.3,10.3L57.3,10.3z"/>
	<path class="st1" d="M57.9,10.2c1.1,0.1,2.1-0.8,3.3-0.6c2.5,0.4,4.1,2.2,6.6,2.9c4.9,1.3,7.6,2.8,10.5,6.6
		c0.1,0.2-0.4,0.3-0.5,0.1c-1.2-1.6-2.2-2.9-3.9-4.2c-2.3-1.8-5-1.5-7.6-2.7c-1.1-0.5-2.1-1.1-3-1.8c-2.7-1.7-3.3,0-5.4-0.1
		C57.5,10.4,57.5,10.2,57.9,10.2L57.9,10.2z M54.7,13c-0.1,0.2-0.3,0.5-0.5,0.7c-0.1-0.1-0.2-0.2-0.4-0.2h0c0.3-0.1,0.6,0.2,0.2,0.4
		h0c-0.1,0-0.5,0-0.4-0.2c0.1-0.2,0.3-0.5,0.5-0.7C54.4,12.7,54.9,12.8,54.7,13L54.7,13z M62.2,19.1c1.5,0.3,2.2,1,3.1,2
		c0.9,0.9,2.1,1.2,3.1,1.9c0.9,0.6,1.5,1.6,2.6,2c0.3,0.1-0.1,0.2-0.3,0.1c-0.5-0.2-0.9-0.4-1.3-0.8c-0.9-0.8-1.6-1.4-2.7-1.9
		c-1.9-0.9-2.6-2.8-4.7-3.2C61.6,19.1,61.9,19,62.2,19.1L62.2,19.1z M53.2,31.8c1.1,1.4,2.9,1.3,4.4,0.3c0.6-0.4,0.8-0.9,1.5-1
		c1.5-0.2,2.3,1.3,4.1,0c0.1-0.1,0.6,0,0.5,0.1c-0.7,0.5-1.3,0.6-2.2,0.6c-0.5,0-1.1-0.2-1.6-0.4c-0.8-0.2-2.1,1-2.8,1.3
		c-1.6,0.8-3.5,0.3-4.5-0.9C52.6,31.8,53.1,31.7,53.2,31.8z M61.2,25c-2.2,0.6-12.2,3.5-8.5,6.5c0.2,0.1-0.3,0.2-0.5,0.1
		c-1.6-1.3-1-2.5,0.6-3.7c0.8-0.6,2.1-0.9,3.1-1.3c1.6-0.7,3.3-1.3,5-1.8C61,24.7,61.5,24.9,61.2,25L61.2,25z M66.7,31.5
		c0.6,0.2,1.1,0.2,1.5,0.7c2.3,2.8,4.9,3.4,8.6,2.1c2.4-0.8,4.2-1.5,6.7-0.8c3.6,1,1.8,6-1.5,6c-0.3,0-0.5-0.3-0.1-0.3
		c1.8,0,2.7-1.7,3.1-3c-1.5-0.9-3-1.8-4.5-2.7c-1.1,0.3-2.2,0.6-3.3,1c-1.1,0.4-2.4,0.9-3.6,0.9c-1.4,0-2.4-0.3-3.6-0.9
		c-1.4-0.7-1.9-2.3-3.4-2.8C66.2,31.7,66.5,31.4,66.7,31.5z M71.5,30.4c0.6,0.6,2.9-0.9,3.7-1c0.3,0,0.5,0.3,0.1,0.3
		c-1.2,0.1-3.2,1.9-4.3,0.8C70.8,30.4,71.4,30.3,71.5,30.4L71.5,30.4z M60.6,6.1c1.8,0.3,4.9-1.1,6.6-1.5c1.5-0.3,2.9-0.1,4.3,0.2
		c2.1,0.5,3.9,1.6,6,2c2.2,0.5,4.1,1.2,6.2,2.1c0.3,0.1-0.1,0.3-0.3,0.2C79.8,7.7,76,7,72.4,5.5c-5.4-2.2-7.6,1.8-12,0.9
		C60.1,6.3,60.3,6.1,60.6,6.1L60.6,6.1z M34.6,28.8c-3,2-6.7,2.2-9,5.1C24.7,35,23.7,36,22.6,37c-0.5,0.5-4.2,5.4-1.2,5.5
		c0.4,0,0.3,0.4,0,0.3c-3-0.1-0.9-4.4,0.1-5.4c1.6-1.7,3.1-3.6,4.8-5.2c2-1.9,5.4-2.1,7.7-3.6C34.3,28.5,34.8,28.7,34.6,28.8
		L34.6,28.8z M22,42.8c2.7-0.4,5.1-3.1,7.6-4.2c1.9-0.9,3.9-1.3,6-1.7c0.2,0,0.6,0.2,0.2,0.2c-2.9,0.6-5.5,1.4-8.1,2.9
		c-1.9,1.1-3.3,2.7-5.5,3C22.1,43.1,21.7,42.9,22,42.8L22,42.8z"/>
	<path class="st1" d="M42.3,29.6c-1.8,2.2-6.8,2.5-9.4,3.3c-4.1,1.2-11.1,5-11,9.5c0,0.1-0.6,0.1-0.6,0c0-4,5-6.6,8.4-8.4
		c3.3-1.7,10-1.7,12.1-4.4C41.9,29.4,42.4,29.5,42.3,29.6L42.3,29.6z M42.7,93.4c1,2.5,1.6,5.1,2.8,7.5c1.2,2.4,0.8,3.6,3.8,5.5
		c0.5,0.3,1,0.6,1.3,1.1c3,4.3,7.9,4,12.5,4.9c3.2,0.7,6.4,3.3,9.6,3.4c0.2,0,0.5,0.2,0.1,0.2c-2.3,0-3.5-0.7-5.5-1.9
		c-4.7-2.8-10-0.4-14.5-2.9c-0.8-0.5-1.5-1.7-2-2.4c-1-1.2-2.2-2.2-3.5-3.1c-0.5-0.2-0.8-0.6-1.1-1c-0.9-2.2-1.6-4-3.2-5.8
		c-1-1.2-0.5-4.2-1-5.4C42.1,93.3,42.7,93.3,42.7,93.4L42.7,93.4z"/>
	<path class="st1" d="M51.7,101.7c2,2.1,4.4,3.5,6.6,5.4c2.4,2.1,2.8,4.5,6.3,5.6c0.3,0.1,0.1,0.4-0.2,0.3c-2.6-0.8-4-2.1-5.3-4.2
		c-1.9-2.8-5.6-4.4-7.9-7C51,101.6,51.5,101.5,51.7,101.7L51.7,101.7z M89.6,47c3.1,5.2,5,10.7,2,16.4c-1.4,2.7-7.8,8.5-11.8,6.9
		c-3.7-1.6-7.9,0.2-10.1-4.2c-3-6,6.7-21.6-2.6-24.4c-0.2,0-0.3-0.3,0-0.3c0.7-0.1,1.3-0.1,2,0.1c0.2,0,0.4,0.3,0.1,0.3
		c-0.7,0.1-0.9,0-2,0c-0.1,0-0.3-0.1-0.2-0.2c0.2-0.3,0.5-0.6,0.7-0.8c0.1-0.2,0.7-0.1,0.5,0.1c-0.5,0.6,2,1.9,2.1,2
		c1.2,0.8,1.3,2.6,1.4,3.7c0.5,4.7-1.1,10.4-1.6,15.2c-0.5,4.7,2.7,9,8.4,7.8c3.3-0.7-22.9,20.8,7.4-1.4c8.2-6.1,7.8-13.2,3.2-20.9
		C88.9,46.9,89.5,46.8,89.6,47L89.6,47z M86.3,42.7c1,0.9,1.9,2,2.6,3.1c0.1,0.1-0.5,0.2-0.5,0c-0.7-1.1-1.5-2.1-2.5-3
		C85.6,42.7,86.2,42.6,86.3,42.7L86.3,42.7z"/>
	<path class="st1" d="M67.1,41.3c1.3-1.2,2.9-2.4,4.7-2.9c0.5-0.1,1.5-1.1,2.1-0.9c0.7,0.2,1.6,0.9,2.2,1.3c1,0.6,3.2,0.2,4.4,0.3
		c1.8,0.1,3.4,1.2,4.8,2.2c0.2,0.2-0.2,0.4-0.4,0.2c-2.2-1.7-4.5-2.3-7.4-1.9c-0.8,0.1-1.9-0.7-2.4-1c-2.1-1.2-6,1.5-7.5,2.9
		C67.3,41.7,66.8,41.5,67.1,41.3L67.1,41.3z M76.5,49.4c1.9,0.6,2.6,0,4.1,1.1c1.2,0.9,3.5,2.2,2.9,4c-0.6,1.6,1.4,1.8,0.6,3.5
		c-1.4,3.1,2.5,6,3.1,9c0,0.2-0.5,0.1-0.5,0c-0.6-2.7-2.5-4.5-3.5-7c-0.8-1.9,1.7-2.1-0.2-4c-1.2-1.2,1.2-2.2-1.2-3.9
		c-1.4-1-1.9-2.3-4.2-2.1c-0.4,0-1.7-0.5-1.3-0.4C75.9,49.5,76.4,49.4,76.5,49.4L76.5,49.4z M50.9,33.3c-2,1.4-4.9,1.3-6.6,3.1
		c-1.6,1.8-4.4,3.4-6.5,4.5c-2.7,1.4-4,4.3-5,7c-0.2,0.5,4.6,3.3,5.7,4.3c0.2,0.1-0.4,0.2-0.5,0.1c-1.2-1.2-4.2-1.3-5.1-2.7
		c-1.2-1.9,0.2-4.6,1.4-6.4c0.8-1.2,1.8-1.8,3.1-2.4c1.7-0.8,3.1-2.1,4.7-3c1.7-1,2.5-2.5,4.3-3.3c2.4-1.1,0.3,1.4,4.1-1.3
		C50.6,33,51.1,33.1,50.9,33.3L50.9,33.3z M63.1,41.9c-10.4-6.6-7.4,4.7-12.6,4.9c-1.1,0-9.3,3.9-7.6,4.7c0.1,0,0.1,0.1,0.1,0.1
		c0,0.4,0,0.8,0,1.2c0,0.1-0.3,0.1-0.3,0.1c-3.6-0.6-4.3,9.3-1.1,9.5c0.1,0,0.2,0,0.2,0.1c0.5,1.5,0.5,4.7-0.9,5.6
		c-5.4,3.5,2.4,3.4,1.9,5.7c0-0.2,0.3-0.1,0.4-0.1c2.7,0.9,1.8,3.7,5.8,3.5c1.9-0.1,2.1,0.4,2.9,1.5c0,0,0,0.1,0,0.1
		c-0.1,0.2,1.6,2.6,1.9,3.2c0.8,2.1,3.5,0.6,5.1,0.3c0.1,0,0.4,0,0.4,0.1c1.7,4,4.2,0.6,7.2,0.4c4.3-0.2,4.8-2.3,8.3-4.9
		c4.3-3.1,6.6-2.2,9.1-8.2c0.1-0.2,0.6-0.1,0.5,0.1c-1.1,2.5-1.5,3.8-3.2,6c-0.6,0.8-2.2,0.5-2.8,1.6c0,0.1-0.1,0.1-0.2,0.1
		c-2.5,0.1-7.3,4.5-9.5,6.3c-0.1,0.1-0.3,0.1-0.4,0c-1.6-0.7-2.7-1.4-4.3,1.6c-0.1,0.1-0.2,0.1-0.4,0.1c-1.4-0.5-2.8-0.8-4.3-1.2
		c-0.1,0-0.2-0.1-0.2-0.1c-0.5-0.2-0.9-0.5-1.4-0.7c-0.1,0.1-0.2,0.1-0.3,0.1c-3.7-0.9-3.9-1.3-6.5-3.9c0,0,0-0.1,0-0.1
		c-0.3,0.7-8-4-7.6-5.8c0,0.1-0.2,0.1-0.4,0.1c-2.3-0.5-2.6-2.1-4.8-3.2C38,71,38,70.9,38,70.9c-0.1-3.2,5.7-6,0.3-8.1
		c-0.1,0-0.1-0.1-0.1-0.1c0.6-3.1-0.1-7.7,1.2-10.4c0-0.1,0.2-0.1,0.4-0.1c1.3,0.7,1.8,0.4,1.5-1c-0.1,0-0.2-0.1-0.1-0.2
		c1.4-1.1,2.6-1.8,3.6-3.4c1.2-1.8,6.7-1.4,8.3-3.1c3.9-4,5.5-5.9,10.5-2.7C63.7,41.9,63.2,42,63.1,41.9L63.1,41.9z"/>
	<path class="st1" d="M56.2,83.7c-2.5,0.7-2.1,4-4.1,4.7c-2.3,0.9-2.6,3.9-2.1,5.8c0,0.1-0.5,0.1-0.6,0c-0.4-1.8-0.2-4.5,1.8-5.6
		c2.1-1.2,2-4.2,4.6-5C55.9,83.5,56.4,83.6,56.2,83.7L56.2,83.7z"/>
	<path class="st1" d="M53.4,81.2c-0.2,0.1-0.3,0.1-0.5,0.2c-0.2,0.2-0.4,0.1-0.6-0.1c0.2-0.1,1.2-0.3,0,0.2c-1.1,0.5-0.9,2.4-1,3.3
		c-0.1,2,0.1,3.9-1,5.7c-0.1,0.1-0.6,0.1-0.5-0.1c1.3-2.1,0.9-4.4,1.1-6.7c0.1-1.5,0.6-2.5,2.3-2.7C53.1,81,53.6,81.1,53.4,81.2
		c-0.3,0.1-0.6,0.3-1,0.3c-0.1,0-0.6-0.1-0.3-0.2c0.3-0.1,0.6-0.2,0.9-0.3C53.2,81,53.7,81.1,53.4,81.2L53.4,81.2z M65.9,44
		c-1.4-1.6-0.4,2.2-0.1,0.1c0-0.1,0.6-0.1,0.6,0c-0.1,1.1-1.5,1.3-1.7,0.2c-0.3-1.4,1.2-0.9,1.8-0.3C66.5,44.1,66,44.2,65.9,44z"/>
	<path class="st1" d="M66.5,44c0.5-0.2,1.2-0.2,1.4,0.3c0.3,0.6-0.9,0.7-1.3,0.7c-0.1,0-0.2,0-0.2-0.1c-0.1-0.4,0-0.5,0.3-0.8
		c0.1-0.1,0.6,0,0.5,0.1c-0.2,0.1-0.2,0.3,0,0.5c0.2-0.3,0.1-0.4-0.4-0.5C66.7,44.3,66.2,44.1,66.5,44L66.5,44z M66.3,45.2
		c1.4-0.2,0.8,1.2-0.4,1c-0.1,0-0.2-0.1-0.2-0.2C65.7,45.5,65.9,45.4,66.3,45.2c0.2-0.2,0.6,0,0.3,0.2c-0.1,0.2-0.3,0.4-0.4,0.6
		c-0.1-0.1-0.2-0.1-0.2-0.2c0.1-0.1,0.3-0.2,0.4-0.3C66.1,45.6,66,45.2,66.3,45.2z"/>
	<path class="st1" d="M67.6,45c1-0.5,1.9,0.9,0.9,1.4c-0.3,0.2-1.2,0.3-1.4-0.1c-0.3-0.6,0.3-1.3,0.9-1.6c0.2-0.1,0.7,0.1,0.3,0.3
		c-0.4,0.2-0.7,0.5-0.8,0.9c0.5,0.2,0.8,0.2,0.8-0.2c0-0.2-0.1-0.4-0.4-0.4C67.7,45.3,67.3,45.1,67.6,45L67.6,45z M68.9,43.4
		c0.5-0.1,0.9-0.1,1.3,0.2c0.4,0.3,0.3,1.1-0.3,1.2c-1.3,0.4-1.9-1.2-0.5-1.4c0.2,0,0.6,0.2,0.2,0.2c-1.1,0.1-0.4,1.3,0.1,0.9
		c0.3-0.3,0-1.1-0.6-0.9C69.1,43.7,68.6,43.6,68.9,43.4L68.9,43.4z"/>
	<path class="st1" d="M69.2,45.7c0.7-0.7,1.8-0.4,1.3,0.6c-0.2,0.5-0.8,0.4-1.2,0.3c-0.7-0.2-0.2-1,0.1-1.3c0.1-0.2,0.6,0,0.5,0.2
		c0,0.7,0.1,0.8,0.2,0.4c0.1-0.5-0.3-0.1-0.4,0C69.4,46.1,68.9,45.9,69.2,45.7z M63.5,43.1c0.4,0,1.3-0.1,1.5,0.4
		c0.1,0.3-0.6,0.7-0.8,0.9c-0.3,0.1-0.9,0.4-1.3,0.1c-0.5-0.4,0.2-1.2,0.5-1.5c0.1-0.1,0.6,0,0.5,0.1c-0.3,0.4-1.1,1.6,0,1
		c0.8-0.4,0.7-0.8-0.2-0.8C63.4,43.4,63.2,43.1,63.5,43.1L63.5,43.1z M64.5,45c0.5,0.3,0.5,0.6,0.1,1.1c-0.1,0.1-0.3,0-0.4,0
		c-0.5-0.1-1.3-0.4-0.9-1c0.2-0.4,1-0.1,1.3,0c0.2,0.1-0.3,0.1-0.4,0.1c-0.4-0.1-0.5,0-0.5,0.2c0.7,0.2,0.8,0.1,0.2-0.4
		C63.9,44.9,64.4,44.9,64.5,45L64.5,45z M65.6,46.1c2.3,1.5-3.6,0.6-0.4-0.1c0.2,0,0.6,0.2,0.2,0.2c-1.6,0.3,0.9,0.8-0.2,0.1
		C65,46.1,65.4,46,65.6,46.1L65.6,46.1z"/>
	<path class="st1" d="M66.5,46.8c0.2-0.3,0.5-0.2,0.8-0.2c0.1,0,0.3,0.1,0.2,0.2c-0.2,0.6-0.4,0.7-1.1,0.7c-0.1,0-0.2,0-0.3-0.1
		c-0.1-0.2-0.1-0.2-0.2-0.4c0-0.1,0.1-0.1,0.2-0.1C66.4,46.8,66.4,46.8,66.5,46.8c0.1-0.1,0.6,0.1,0.3,0.2c-0.6,0.4,0.1-0.1,0.2-0.4
		c0.1,0.1,0.2,0.1,0.2,0.2c-0.1,0-0.2,0-0.3,0C66.9,47.1,66.4,46.9,66.5,46.8L66.5,46.8z M68,47.2c0.3-0.2,0.5-0.2,0.8-0.2
		c0.1,0,0.2,0,0.2,0.1c0.2,0.9-0.4,1.2-1.3,1.1c-0.1,0-0.2,0-0.2-0.1c-0.1-0.7,0.2-0.9,1-0.9c0.2,0,0.5,0.3,0.1,0.3
		c-0.5,0.1-0.7,0.4-0.5,0.7c-0.1,0-0.2-0.1-0.2-0.1c0.7,0,1-0.8,0.6-0.6C68.2,47.5,67.8,47.4,68,47.2L68,47.2z M70.5,46.7
		c1.2,2.1-3.3-0.3,0,0.1c0.4,0,0,0.1-0.2,0.1c-1.4-0.2,0.4,1.2-0.3-0.3C69.9,46.7,70.4,46.6,70.5,46.7L70.5,46.7z M69.6,47.9
		c1.1,0.2,0.8,1.1-0.2,1.2c-0.1,0-0.3,0-0.4-0.1C68.7,48.4,68.9,48.2,69.6,47.9c0.1-0.1,0.6,0.1,0.3,0.3c-0.4,0.1-0.5,0.4-0.3,0.8
		c-0.1,0-0.2-0.1-0.4-0.1c0.1-0.2,0.2-0.5,0.3-0.7C69.1,48.1,69.3,47.9,69.6,47.9L69.6,47.9z M70.4,45.1c0.2-0.2,0.2-0.2,0.4-0.3
		c0.1-0.1,0.5,0,0.5,0.1c0,0.6,0,0.5-0.5,0.7c-0.1,0-0.4,0-0.5-0.1c-0.1-0.1-0.1-0.3-0.1-0.4c0-0.2,0.6-0.2,0.6,0c0,0.1,0,0.2,0,0.4
		c-0.1,0-0.3-0.1-0.5-0.1c0.4-0.1,0.3-0.1,0.3-0.5c0.1,0,0.3,0.1,0.5,0.1c-0.1,0.1-0.2,0.1-0.3,0.2C70.8,45.4,70.2,45.3,70.4,45.1
		L70.4,45.1z M62,44.6c2.6,0.7-1.6,2.1-0.4,0.2c0.1-0.2,0.7-0.1,0.5,0.1c-0.6,0.9,0.7,0.3-0.3,0C61.5,44.8,61.7,44.5,62,44.6
		L62,44.6z M62.5,43.2c0.3,0.3,0.4,0.5,0.3,0.9c0,0.1-0.1,0.1-0.1,0.1c-0.5,0.1-1,0.1-1.3-0.4c-0.3-0.5,0.6-0.6,0.9-0.6
		c0.2,0,0.5,0.2,0.1,0.2c-1.4,0,0.9,1-0.4-0.2C61.8,43.1,62.4,43.1,62.5,43.2L62.5,43.2z"/>
	<path class="st1" d="M62.4,45.9c1.2-0.4,1.5,0.6,0.2,0.8c-0.1,0-0.4,0-0.4-0.1c0-0.3,0-0.6,0.1-0.9c0.1-0.2,0.6-0.1,0.6,0
		c-0.1,0.3-0.1,0.5-0.1,0.9c-0.1,0-0.3-0.1-0.4-0.1c0.5,0,0.6-0.1,0.4-0.4C62.6,46.1,62.1,46,62.4,45.9L62.4,45.9z M63.6,46.7
		c1-0.2,0.9,1.4-0.2,1.3c-1.2-0.1-0.9-1.5,0.3-1.3c0.3,0,0.3,0.3,0,0.3c-0.5,0-0.6,0.2-0.5,0.5c0.2-0.1,0.4-0.1,0.6-0.2
		c-0.1-0.2-0.1-0.4,0.1-0.4C63.6,47,63.2,46.8,63.6,46.7L63.6,46.7z"/>
	<path class="st1" d="M64,47.3c1.3-0.1,1.4,1,0.1,1.1c-0.1,0-0.3,0-0.4-0.1c0-0.3,0-0.6,0.1-0.9c0.1-0.2,0.6-0.1,0.6,0
		c-0.1,0.3-0.1,0.5-0.1,0.9L64,48.1c0.7-0.2,0.8-0.5,0.1-0.7C63.9,47.5,63.6,47.3,64,47.3L64,47.3z"/>
	<path class="st1" d="M65.9,47.8c2.3,0.8-1.6,2.1-0.8,0.2c0-0.1,0.2-0.1,0.3-0.1c0.3,0,0.7,0.1,1,0.2c0.2,0.1-0.3,0.1-0.4,0.1
		c-0.2,0-0.4-0.1-0.6-0.1c0.1,0,0.2,0,0.3-0.1c-0.1,0.3-0.3,1.1,0.3,0.7c0.5-0.4-0.1-0.7-0.5-0.8C65.3,47.8,65.8,47.7,65.9,47.8
		L65.9,47.8z M67.1,48.8c1.5,0.3,0.7,1.3-0.5,1.1c-0.1,0-0.2-0.1-0.2-0.1C66.3,49.2,66.5,48.9,67.1,48.8c0.1-0.1,0.6,0.1,0.3,0.2
		c-0.1,0.1-0.3,0.1-0.5,0.1C66.6,49,66.9,48.7,67.1,48.8L67.1,48.8z M68.3,49.8c1.1-0.7,1.6,0.9-0.1,0.9c-0.1,0-0.2-0.1-0.2-0.1
		c-0.3-0.6-0.1-0.8,0.6-1c0.2-0.1,0.6,0.2,0.2,0.3c-0.1,0.1-0.3,0.3-0.4,0.4c0.5-0.1,0.7-0.1,0.4-0.3C68.5,50.1,68,50,68.3,49.8
		L68.3,49.8z M69,51.1c1,0.4-0.5,1.1-0.9,1.1c-0.1,0-0.3,0-0.3-0.1c-0.1-1.1,0.8-1.2,1.7-0.9c0.3,0.1-0.1,0.3-0.3,0.2
		c-0.3,0.2-0.6,0.4-0.8,0.6c-0.1,0-0.2-0.1-0.3-0.1c0.2-0.2,0.5-0.4,0.7-0.5C68.4,51.2,68.8,51,69,51.1L69,51.1z"/>
	<path class="st1" d="M67.5,50.6c0.9,0.9-0.2,1-0.9,0.9c0,0-0.1,0-0.1-0.1c0.1-0.7,0.4-1.1,1.1-1.1c0.1,0,0.6,0.1,0.3,0.1
		c-0.5,0.1-0.8,0.3-0.8,0.7c0.1,0,0.2,0,0.3,0.1c0-0.2-0.1-0.5-0.3-0.6C67,50.5,67.4,50.4,67.5,50.6L67.5,50.6z M60.7,42.6
		c0,1.5-1.8,0.8-1.8-0.5c0,0,0.1-0.1,0.1-0.1c1.1-0.4,1.3-0.1,1.6,0.8c0.1,0.2-0.5,0.2-0.5,0c-0.1-0.2-0.1-0.3-0.1-0.6
		c-0.5,0.1-0.6,0.3-0.4,0.6c0.5,0.1,0.7,0,0.6-0.3C60.2,42.4,60.7,42.5,60.7,42.6L60.7,42.6z M60.3,43.9c0.8,0.1,1.3,0.1,1.4,1
		c0,0,0,0,0,0.1c-0.7,0.4-1.8,0.5-2.2-0.2c-0.6-0.9,1.4-0.6,1.8-0.6c0.4,0.1-0.1,0.2-0.3,0.2c-0.6-0.2-1.1-0.2-0.9,0.3
		c0.2,0.7,1-0.5,0.3-0.5C59.9,44.1,60,43.9,60.3,43.9L60.3,43.9z M58.1,42.7c0.3,0.3,1,1,0.5,1.5c-0.3,0.3-0.7,0.4-1.2,0.2
		c-0.3-0.1-0.8-0.9-0.5-1.2c0.5-0.4,1.1-0.2,1.7,0c0.3,0.1-0.1,0.4-0.3,0.3c-0.3,0.3-0.5,0.1-0.6-0.5C57.4,42.7,57.9,42.6,58.1,42.7
		L58.1,42.7z"/>
	<path class="st1" d="M57.7,44.8c0.5-0.2,0.9-0.3,1.5-0.3c0,0,0.4,0,0.3,0.1c-0.4,1-1.4,1.1-2.4,0.9c0,0-0.2,0-0.2-0.1
		c0.2-0.8,0.9-0.7,1.7-0.8c0.1,0,0.6,0.1,0.2,0.1c-0.4,0-1.1,0-1.3,0.4c0.3,0,0.7,0,1,0c0.2-0.2,0.3-0.4,0.4-0.6
		c0.1,0,0.2,0.1,0.4,0.1c-0.4,0-0.8,0.1-1.2,0.3C58,45,57.5,44.9,57.7,44.8L57.7,44.8z M59.8,45.5c0.6,0,1-0.1,1.2,0.5
		c0,0,0,0.1,0,0.1c-0.6,0.4-1,0.5-1.8,0.5c-0.1,0-0.2,0-0.2-0.1c-0.1-0.7,0.4-0.9,1.1-1.1c0.2,0,0.6,0.2,0.2,0.3
		c-0.3,0-0.4,0.1-0.1,0.5c0.1-0.3,0-0.4-0.3-0.3C59.7,45.8,59.5,45.5,59.8,45.5L59.8,45.5z M60.4,46.9c0.7-0.3,1.2-0.4,1.9,0
		c0,0,0,0,0,0.1c-0.5,0.5-1.2,0.7-1.9,0.5c-1-0.4,0.8-0.9,1-0.9c0.1,0,0.6,0.1,0.4,0.1c-0.3,0.1-1.3,0.2-1.1,0.6
		c0.3,0.1,0.7,0,0.9-0.2c-0.2-0.2-0.5-0.3-0.7-0.1C60.8,47.1,60.3,47,60.4,46.9L60.4,46.9z M61.7,48.1c0.2,0,1.6,0.1,1.3,0.6
		c-0.3,0.5-1.2,0.2-1.5,0.1c-0.1,0-0.2-0.1-0.1-0.2c0.3-0.3,0.5-0.4,0.9-0.6c0.2,0,0.7,0.1,0.3,0.2c-0.3,0.1-0.7,0.1-1,0.1
		C61.4,48.4,61.4,48.1,61.7,48.1L61.7,48.1z M58.2,40.2c0.6,0.4,0.9,0.8,0.9,1.4c0,0-0.1,0.1-0.1,0.1c-0.6,0.1-1.1,0-1.7-0.1
		c0,0-0.1,0-0.1-0.1c-0.1-1.1,0.6-1.3,1.6-1.1c0.3,0.1,0,0.2-0.2,0.1c-0.7-0.1-1.4,0.8-0.7,1c1.4,0.4,0-1.1-0.2-1.3
		C57.5,40.2,58.1,40.1,58.2,40.2L58.2,40.2z"/>
	<path class="st1" d="M56.4,41.8c0.1,0,1.5,0.3,1.3,0.6c-0.2,0.2-0.9,0.2-1.2,0.2s-1,0-1.2-0.3c-0.3-0.4,1.2-0.8,1.4-0.9
		c0.1,0,0.6,0.1,0.5,0.1c-0.4,0.1-2.1,0.8-0.8,0.8c0.2,0,0.6,0,0.7-0.1c0.1-0.1-0.9-0.3-1-0.4C55.8,41.8,56.3,41.7,56.4,41.8
		L56.4,41.8z M55.3,43.4c0.7-0.1,1.4,0,1.8,0.6c0.3,0.4,0,0.7-0.5,0.6c-0.5-0.1-1.5-0.3-1.6-0.9c-0.2-0.7,1.3-0.6,1.7-0.6
		c0.2,0,0.5,0.2,0.1,0.2c-0.7,0-1.8,0.2-0.9,0.8c1.2,0.8,0.7-0.7-0.4-0.5C55.4,43.6,54.9,43.4,55.3,43.4L55.3,43.4z M55.3,45.9
		c0.6-0.8,1.3-1.1,2.1-0.5c0.6,0.4,0,0.9-0.5,1.1c-0.5,0.2-1.1,0.3-1.6,0.2c-0.9-0.2,0.2-1.1,0.5-1.3c0.1-0.1,0.6,0,0.5,0.1
		c-0.3,0.2-0.7,0.5-0.8,0.9s0.8,0.1,0.9,0c0.3-0.1,0.6-0.3,0.6-0.5c0.1-0.1-0.1-0.3-0.2-0.4C56.4,45,56,45.7,55.8,46
		C55.7,46.1,55.2,46,55.3,45.9L55.3,45.9z M61.6,41.8c1.2,0.9,0.2,1.3-0.9,1.2c-0.1,0-0.2,0-0.2-0.1c-0.1-0.9,0.2-1.2,1.1-1.3
		c0.2,0,0.6,0.1,0.2,0.2C61,41.9,60.9,42.4,61,43c-0.1,0-0.2-0.1-0.2-0.1c1.5,0.1,0.9-0.6,0.4-1C61,41.8,61.5,41.7,61.6,41.8z
		 M68.1,52.1c0.4,0,1.3-0.1,1.5,0.4c0.2,0.6-0.6,1-1.1,1.2c-0.1,0-0.4,0-0.5-0.1c-0.4-1.2,0.5-1.6,1.6-1.5c0.3,0.1,0.1,0.2-0.2,0.2
		c-1.1-0.2-1.2,0.6-0.9,1.2c-0.1,0-0.3-0.1-0.5-0.1c0.5-0.1,2-1.2,0.1-1.1C68,52.3,67.8,52.1,68.1,52.1L68.1,52.1z M63.5,48.6
		c1-0.1,1.7,0.1,2.1,1c0,0,0,0.1,0,0.1c-0.8,0.5-1.7,0.6-2.4,0c-0.9-0.8,0.5-1.3,1.2-1.3c0.2,0,0.5,0.2,0.1,0.2
		c-0.6,0-1.2,0.2-0.9,0.8c0.2,0.4,0.7,0.5,1.4,0.2c0.6-0.3-0.8-0.8-1.3-0.8C63.4,48.9,63.1,48.6,63.5,48.6L63.5,48.6z"/>
	<path class="st1" d="M65.4,50.8c0.4-0.3,0.5-0.4,1-0.3c0.1,0,0.2,0.1,0.2,0.1c-0.5,0.5-1.6,1.3-2.1,0.4c-0.5-1.1,1.3-1.2,2-1.1
		c0.3,0.1,0.1,0.2-0.2,0.2c-0.7-0.1-1.3,0-1.3,0.7c0,0.2,0.1,0.5,0.4,0.4c-0.1,0.1,0.8-0.5,0.5-0.2C65.8,51,65.3,50.9,65.4,50.8
		L65.4,50.8z M58.6,46.2c0.9,0.6,0.5,1.2-0.4,1.6c-0.1,0.1-0.4,0-0.5-0.1c-0.6-0.7-0.7-1.6,0.5-1.8C58.3,46,58.8,46.1,58.6,46.2
		c-1.2,0.1-0.7,1-0.3,1.6c-0.2,0-0.3,0-0.5-0.1c0.8-0.4,1.2-0.9,0.3-1.5C58,46.1,58.5,46.1,58.6,46.2L58.6,46.2z M60.1,47.8
		c1.3,0.5,0.2,1.4-0.8,1.4c-1.1,0,0-1.3,0.5-1.4c0.1,0,0.6,0.1,0.5,0.1c-0.4,0.1-0.7,0.4-0.9,0.8c-0.2,0.3,0,0.3,0.6,0
		c0.5-0.3,0.1-0.7-0.3-0.9C59.4,47.8,60,47.8,60.1,47.8L60.1,47.8z M60.3,49.4c0.6-0.1,1.6-0.2,2.1,0.2c0.5,0.5,0,1.2-0.7,1.2
		c-0.5,0.1-0.9-0.1-1.1-0.5c-0.3-0.6,0.6-0.9,1-1c0.2,0,0.6,0.1,0.2,0.2c-0.5,0.1-0.8,0.2-0.8,0.7c0,0.1,0,0.2,0.1,0.2
		c1.2,0,1-0.3-0.5-0.9C60.5,49.6,60,49.5,60.3,49.4L60.3,49.4z M63.2,51.6c0-0.2-0.2-0.3-0.2-0.5c0-0.1,0.3-0.1,0.3-0.1
		c0.6,0.1,0.7,0.4,0.6,0.9c0,0-0.1,0.1-0.1,0.1c-0.4,0.1-1.5,0.3-1.8-0.1c-0.4-0.7,1-0.9,1.5-0.9c0.2,0,0.5,0.2,0.1,0.2
		c-0.6-0.1-1,0.1-1.2,0.5c-0.3,0.9,1.9-0.2,0.6-0.4c0.1,0,0.2,0,0.3-0.1c0,0.1,0.1,0.3,0.2,0.4C63.8,51.8,63.2,51.8,63.2,51.6
		L63.2,51.6z M64.9,52.4c0.9-0.5,1.8-0.5,2,0.5c0,0.1,0,0.1-0.1,0.1c-0.8,0.2-1.3,0.2-2.1-0.2c0,0-0.1-0.1-0.1-0.1
		c0.3-0.8,0.9-0.8,1.8-0.7c0.3,0,0.3,0.3,0,0.2c-0.4-0.1-0.5,0-0.1,0.4c-0.3-0.4-0.6-0.4-0.9-0.1C65.2,52.7,64.7,52.5,64.9,52.4
		L64.9,52.4z"/>
	<path class="st1" d="M67.2,53.1c0.3-0.4,0.5-0.4,1-0.3c0.1,0,0.2,0.1,0.2,0.2c-0.1,0.8-0.8,1.5-1.6,0.8c-1-0.8,0.8-1.1,1.4-1
		c0.3,0,0.3,0.3,0,0.3c-0.4,0-1.4,0.1-0.8,0.6c0.4,0.3,0.7-0.8,0.4-0.5C67.5,53.4,67,53.3,67.2,53.1L67.2,53.1z M56.7,47.7
		c-0.1,0-0.1,0-0.2,0c-0.1,0-0.2-0.1-0.2-0.2s0-0.1,0.1-0.2c0.1-0.1,0.4-0.1,0.5,0c0.1,0.2,1,1,0.5,1.2c-0.4,0.2-0.8,0-1.2-0.2
		c-0.2-0.1-0.8-0.4-0.7-0.8c0.2-0.5,1.3-0.3,1.6-0.2c0.4,0,0.3,0.4,0,0.3c-0.6-0.1-1.4-0.1-0.5,0.4c0.9,0.5,0.1-0.4-0.2-0.7
		c0.2,0,0.3,0,0.5,0c0,0,0-0.1,0-0.1C57.2,47.5,56.9,47.8,56.7,47.7L56.7,47.7z M55.1,44.1c0.2,1.1-0.2,1.4-1.4,1.4
		c-0.1,0-0.3,0-0.2-0.1c0.1-1.1,1-1.3,2.1-1.1c0.3,0.1,0.1,0.3-0.2,0.2c-0.9-0.2-1.3,0.2-1.4,0.9c-0.1,0-0.2-0.1-0.2-0.1
		c1.1,0,1-0.4,0.8-1.1C54.5,44,55.1,44,55.1,44.1L55.1,44.1z M53.8,46.2c0.5,0,1.2,0.1,1.3,0.6c0.1,0.6-1,0.8-1.4,0.9
		c-0.1,0-0.4,0-0.4-0.1c-0.3-1.1,0.5-1.2,1.5-1.3c0.3,0,0.5,0.3,0.1,0.3c-0.7,0-1.2,0-1.1,0.8c-0.1,0-0.2-0.1-0.4-0.1
		c0.5-0.1,1-0.8,0.2-0.8C53.4,46.6,53.4,46.2,53.8,46.2L53.8,46.2z M52.6,47.8c0.1,0.1,1.2,0.8,0.8,1c-0.4,0.2-0.9,0.1-1.3,0
		c-0.3-0.1-1-0.3-1-0.6c0-0.5,1.4-0.6,1.8-0.6c0.3,0,0.5,0.2,0.1,0.2c-0.5,0-2,0.2-0.8,0.7c0.2,0.1,0.5,0.1,0.7,0.1
		c0.3,0-0.6-0.7-0.6-0.7C52,47.8,52.5,47.7,52.6,47.8L52.6,47.8z"/>
	<path class="st1" d="M53.2,45.4c0.7,0,1,0,1,0.7c0,0.1-0.1,0.1-0.2,0.2c-0.5,0.1-1,0.1-1.5,0c-0.1,0-0.3-0.1-0.2-0.2
		c0.1-0.7,0.8-0.7,1.4-0.8c0.3,0,0.5,0.3,0.1,0.4c-0.3,0.1-0.9,0-1,0.5c-0.1-0.1-0.2-0.1-0.2-0.2c0.3,0,0.7,0,1,0
		c0.3,0-0.4-0.2-0.3-0.2C52.8,45.8,52.9,45.4,53.2,45.4L53.2,45.4z M49.2,47.3c0.6,0.1,0.9,0.2,1.4,0.5c0,0,0.1,0.1,0.1,0.1
		c-0.8,0.8-0.9,0.9-1.8,0.2c-0.1-0.1,0-0.1,0.1-0.1c0.3-0.1,0.7-0.3,1-0.5c0.1-0.1,0.7,0,0.5,0.2c-0.3,0.2-0.3,0.2-0.7,0.4
		c0,0.1,0,0.2,0.1,0.2c0.4-0.3,0.2-0.5-0.5-0.7C48.8,47.5,48.8,47.3,49.2,47.3L49.2,47.3z M47.5,48.9c-0.1,1-0.5,1-1.4,0.4
		c0,0,0-0.1,0-0.1c0.4-0.5,0.6-0.5,1.2-0.6C47.5,48.6,47.8,48.8,47.5,48.9c-0.1,0-0.2,0-0.3,0c-0.2,0.6-0.2,0.7-0.2,0.3
		c0-0.1,0-0.2,0-0.4C46.9,48.7,47.5,48.7,47.5,48.9L47.5,48.9z"/>
	<path class="st1" d="M44.8,49.3c0-0.1,0-0.1,0-0.2c0-0.1,0.2-0.1,0.3-0.1c0.5,0.1,0.5,0.4,0.5,0.8c0,0.1-0.3,0.1-0.4,0.1
		c-0.2,0-0.5-0.1-0.7-0.1c-0.1,0-0.4,0-0.3-0.2c0.3-0.9,0.9-1,1.9-0.7c0.4,0.1,0.1,0.3-0.2,0.2c-0.4-0.2-0.8,0-1.2,0.5
		c-0.1-0.1-0.2-0.1-0.3-0.2c0.4,0,0.8-0.1,1.2,0.1c-0.1,0-0.3,0.1-0.4,0.1c0-0.1,0-0.3,0-0.5c0.1,0,0.2-0.1,0.3-0.1
		c0,0.1,0,0.1,0,0.2C45.4,49.5,44.8,49.4,44.8,49.3L44.8,49.3z M48.7,49c0.2-0.1,1.4-0.4,1.4,0.1c0,0.8-1.4,0.8-2,0.8
		c-0.1,0-0.2,0-0.2-0.1c0-1.1,0.7-1.4,1.8-1.1c0.4,0.1,0.1,0.3-0.2,0.2c-1-0.2-1,0.4-1,0.9c-0.1,0-0.2-0.1-0.2-0.1
		c0.4-0.1,0.8-0.1,1.1-0.2c0.3-0.2,0.3-0.3-0.2-0.2C48.9,49.3,48.4,49.2,48.7,49L48.7,49z M51.2,49.2c2.1,0.6-0.1,1.5-1.3,1
		c-0.1,0-0.1-0.1-0.1-0.2c0.4-0.6,0.9-0.8,1.7-0.9c0.2,0,0.6,0.2,0.2,0.3c-0.4,0-0.8,0.2-1.1,0.4c0.9,0.5,1,0.4,0.4-0.3
		C50.7,49.4,50.9,49.2,51.2,49.2L51.2,49.2z M54.8,48.4C54.8,48.3,54.8,48.3,54.8,48.4c-0.2-0.2,0-0.4,0.2-0.3
		c0.1,0,0.3,0.1,0.5,0.1c0.1,0,0.2,0.1,0.2,0.2c-0.2,1-1,1.2-2,1.2c-0.1,0-0.2-0.1-0.2-0.2c0.1-1.3,1-1.8,2.3-1.4
		c0.3,0.1,0.1,0.4-0.2,0.3c-1.3-0.4-1.5,0.4-1.5,1.1l-0.2-0.2c0.5,0.1,0.9,0,1.3-0.4c0.3-0.2,0.3-0.3,0-0.3c0.1-0.1,0.1-0.2,0.2-0.3
		c0,0,0,0,0.1,0.1C55.5,48.4,55,48.5,54.8,48.4L54.8,48.4z M58.2,48.9c0.1,0,0.3,0,0.5,0c0.1,0,0.2,0,0.2,0.1c0.3,0.7-0.8,1.2-1.4,1
		c-1.1-0.3,0-1,0.6-1.1c0.1,0,0.6,0.1,0.4,0.2c-0.3,0.1-0.8,0.2-0.9,0.5c-0.2,0.5,0.6,0,0.6,0c0.5-0.5,0.3-0.4-0.1-0.5
		C57.7,49,58,48.8,58.2,48.9L58.2,48.9z M59.5,49.7c1.3,0.7,0.3,1.3-0.8,1.2c-0.1,0-0.3-0.1-0.2-0.2c0.3-0.5,0.8-1.2,1.4-1
		c0.1,0,0.2,0.1,0.2,0.1c0,0.1-0.2,0.2-0.1,0.3c0.1,0.2-0.4,0.2-0.5,0.1c0-0.1-0.1-0.1-0.1-0.2c0-0.2,0.1-0.1,0.2,0
		c-0.3,0.2-0.5,0.4-0.6,0.7c-0.1-0.1-0.2-0.1-0.2-0.2c0.1-0.2,0.3-0.5,0.5-0.7C58.8,49.7,59.3,49.6,59.5,49.7L59.5,49.7z M61.6,51.5
		c0,1.2-1.4,1-2.3,0.8c-0.1,0-0.1-0.1-0.1-0.1c0.5-0.9,1.5-1.4,2.2-0.4c0.1,0.1-0.5,0.1-0.5,0c-0.5-0.3-0.8-0.2-0.9,0.1
		c0.5-0.6,1.1,0.6,1.1-0.5C61,51.3,61.6,51.3,61.6,51.5L61.6,51.5z"/>
	<path class="st1" d="M56.1,49.4c0,0,0-0.1,0-0.1c0.2,0,0.3,0,0.5,0c0,0.2,0.1,0.4,0.1,0.5c0,0,0,0.1-0.1,0.1
		c-0.2,0.1-0.4,0.2-0.6,0.4c-0.1,0.1-0.4,0.1-0.5,0c-1.1-1.3,0.5-1.5,1.6-1.1c0.2,0.1-0.3,0.1-0.4,0.1c-0.3,0.1-0.7,0.2-1,0.3
		c0,0.3,0.2,0.5,0.4,0.7c-0.2,0-0.4,0-0.5,0c0.6-0.4,0.6-0.3,0.5-0.9c0-0.1,0.5-0.1,0.5,0l0,0.1C56.7,49.5,56.1,49.5,56.1,49.4
		L56.1,49.4z M54.3,50.1c0.5,1.1-0.4,1.4-1.5,1.2c-0.1,0-0.2-0.1-0.2-0.1c0.1-0.9,0.8-1.2,1.7-1.2c0.4,0,0.3,0.3,0,0.2
		c-0.4,0.2-0.7,0.4-1.1,0.6c0.6-0.2,0.8-0.4,0.5-0.8C53.7,49.9,54.2,49.9,54.3,50.1L54.3,50.1z M57.7,50.2c-0.2,0.7-0.2,1-1.1,1.2
		c-0.1,0-0.4,0-0.4-0.1c-0.1-0.7,0.5-0.9,1.2-1.1c0.1,0,0.6,0.1,0.5,0.1c-0.6,0.2-1.2,0.3-1.1,1c-0.1,0-0.3-0.1-0.4-0.1
		c0.7-0.1,0.7-0.6,0.8-1C57.3,50.1,57.8,50.2,57.7,50.2L57.7,50.2z"/>
	<path class="st1" d="M58.9,51.2c-0.1,0.8-0.8,1.4-1.5,0.7c-1-1,0.9-1,1.5-0.8c0.3,0.1,0.1,0.4-0.2,0.3c-0.4-0.1-1.2-0.2-0.9,0.3
		c0.3,0.5,0.5-0.3,0.6-0.5C58.4,50.9,58.9,51,58.9,51.2L58.9,51.2z M53.7,51.9c0.6-0.8,1.2-1.1,2.1-0.5c0.6,0.4,0,0.9-0.5,1.1
		s-1.1,0.4-1.6,0.2c-0.8-0.2,0.2-1.1,0.5-1.3c0.1-0.1,0.6,0,0.5,0.1c-0.6,0.5-1.3,1.4,0,0.9c0.3-0.1,0.6-0.3,0.7-0.6
		c0.1-0.1-0.1-0.3-0.2-0.4c-0.5-0.5-0.9,0.2-1.2,0.5C54.1,52.1,53.6,52.1,53.7,51.9L53.7,51.9z"/>
	<path class="st1" d="M57,52.1c0.9,0.7,0.5,1.3-0.4,1.8c-0.1,0.1-0.4,0-0.4-0.1c-0.6-0.8-0.7-1.7,0.5-1.9
		C56.9,51.9,57.3,52.1,57,52.1c-1.2,0.2-0.7,1.2-0.3,1.6c-0.1,0-0.3,0-0.4-0.1c0.9-0.3,1-0.7,0.4-1.4C56.3,52.1,56.8,52,57,52.1
		L57,52.1z M55,53.6c-0.1,0-0.1,0-0.2,0s-0.1-0.1-0.1-0.1c0-0.1,0-0.1,0-0.1c0.1-0.1,0.4-0.1,0.5,0c0.2,0.2,1,0.9,0.5,1.2
		c-0.3,0.2-0.8,0-1.1-0.1c-0.2-0.1-0.9-0.4-0.8-0.7c0.1-0.4,1.3-0.2,1.6-0.2c0.3,0,0.3,0.3,0,0.2c-0.6-0.1-1.4,0-0.6,0.5
		c0.9,0.5,0.2-0.4-0.1-0.7h0.5h0C55.6,53.5,55.2,53.7,55,53.6L55,53.6z M52.2,52.2c0.5,0,1.2,0.1,1.3,0.6c0.1,0.5-1,0.8-1.4,0.8
		c-0.1,0-0.3,0-0.4-0.1c-0.3-1.1,0.5-1.2,1.5-1.2c0.3,0,0.5,0.3,0.1,0.3c-0.7,0-1.2,0.1-1,0.9c-0.1,0-0.2-0.1-0.4-0.1
		c0.8,0,0.9-0.3,0.2-0.9C51.8,52.5,51.8,52.2,52.2,52.2L52.2,52.2z"/>
	<path class="st1" d="M53.3,54.3C53.2,54.3,53.2,54.3,53.3,54.3c-0.2-0.2,0-0.3,0.2-0.3c0.1,0,0.3,0.1,0.5,0.1
		c0.1,0,0.2,0.1,0.2,0.2c-0.2,1-1,1.2-2,1.2c-0.1,0-0.3-0.1-0.2-0.2c0.1-1.3,1-1.8,2.3-1.4c0.3,0.1,0.1,0.4-0.2,0.3
		c-1.3-0.4-1.5,0.5-1.6,1.2c-0.1-0.1-0.2-0.1-0.2-0.2c0.5,0.1,0.9,0,1.3-0.4c0.3-0.2,0.3-0.3,0-0.3c0.1-0.1,0.1-0.2,0.2-0.3l0.1,0.1
		C53.9,54.4,53.4,54.5,53.3,54.3L53.3,54.3z M56.7,54.9c0.1,0,0.3,0,0.5,0c0.1,0,0.2,0,0.2,0.1c0.3,0.7-0.8,1.2-1.4,1
		c-1.1-0.3,0.1-1,0.6-1.1c0.1,0,0.7,0.1,0.3,0.2c-0.3,0-0.6,0.2-0.8,0.3c-0.5,0.3,0.5,0.2,0.7,0c0.3-0.4,0.1-0.2-0.3-0.3
		C56.1,55,56.4,54.8,56.7,54.9L56.7,54.9z"/>
	<path class="st1" d="M54.5,55.4c0,0,0-0.1,0-0.1c0.2,0,0.4,0,0.5,0c0,0.2,0.1,0.4,0.1,0.5c0,0.1-0.1,0.1-0.1,0.1
		c-0.2,0.1-0.4,0.2-0.6,0.4c-0.1,0.1-0.4,0.1-0.5,0c-1.1-1.3,0.3-1.6,1.5-1.2c0.3,0.1-0.1,0.2-0.3,0.2c-1.1,0.1-1.3,0.4-0.7,0.9
		c-0.2,0-0.3,0-0.5,0c0.2-0.1,0.4-0.3,0.6-0.4c0.1,0-0.1-0.3-0.1-0.5c0-0.2,0.5-0.1,0.5,0c0,0,0,0.1,0,0.1
		C55.1,55.5,54.6,55.6,54.5,55.4L54.5,55.4z M52.7,56c0.5,1.2-0.4,1.3-1.4,1.2c-0.1,0-0.2,0-0.2-0.1c0.1-0.9,0.8-1.2,1.7-1.1
		c0.3,0,0.3,0.2,0,0.2c-0.6-0.1-1,0.2-1.1,0.7c0.3-0.9,1.2,0.7,0.5-0.8C52.1,55.9,52.6,55.9,52.7,56L52.7,56z M56.2,56.2
		c-0.2,0.7-0.2,1.1-1.2,1.2c-0.1,0-0.3,0-0.3-0.1c-0.1-0.8,0.5-1,1.3-1.3c0.2-0.1,0.6,0.2,0.2,0.3c-0.5,0.1-1,0.2-0.9,0.9
		c-0.1,0-0.2-0.1-0.3-0.1c0.6-0.1,0.6-0.6,0.7-0.9C55.7,55.9,56.2,56,56.2,56.2L56.2,56.2z"/>
	<path class="st1" d="M57.3,57.2c-0.1,0.8-0.8,1.4-1.5,0.7c-0.9-0.9,1-0.9,1.5-0.8c0.3,0.1,0.1,0.3-0.2,0.2
		c-0.4-0.1-1.2-0.2-0.9,0.3c0.2,0.6,0.5-0.2,0.6-0.5C56.8,57,57.4,57,57.3,57.2L57.3,57.2z M52.4,58.1c0.5-0.7,1.3-1.2,2.1-0.5
		c0.5,0.4,0.1,0.8-0.4,1.1c-0.5,0.2-1.2,0.4-1.8,0.2c-0.7-0.3,0.3-1.1,0.6-1.3c0.1-0.1,0.6,0,0.5,0.2c-0.6,0.5-1.2,1.3,0.1,0.9
		c1.4-0.5,0.3-1.6-0.6-0.4C52.8,58.3,52.3,58.3,52.4,58.1L52.4,58.1z"/>
	<path class="st1" d="M55.7,58.4c0.9,0.6,0.6,1.2-0.4,1.6c-0.1,0.1-0.5,0.1-0.5,0c-0.5-0.7-0.7-1.6,0.5-1.8
		C55.4,58.1,55.9,58.3,55.7,58.4c-1.2,0.1-0.7,1-0.3,1.6c-0.2,0-0.4,0-0.5,0c0.8-0.4,1.3-0.9,0.4-1.5C55.1,58.3,55.6,58.3,55.7,58.4
		L55.7,58.4z M53.7,59.8c-0.1,0-0.1,0-0.2-0.1c-0.1,0-0.2-0.1-0.2-0.2c0-0.1,0-0.1,0.1-0.1c0.1-0.1,0.4-0.1,0.5,0
		c0.1,0.2,1,0.9,0.5,1.2c-0.3,0.2-0.8,0-1.2-0.2c-0.2-0.1-0.8-0.4-0.7-0.7c0.2-0.5,1.3-0.2,1.6-0.2c0.3,0,0.3,0.4,0,0.3
		c-0.1,0-1.1-0.1-1,0.1c0.1,0.1,0.3,0.2,0.5,0.3c0.9,0.5,0.1-0.4-0.2-0.7c0.2,0,0.3,0,0.5,0l0,0C54.2,59.7,54,59.9,53.7,59.8
		L53.7,59.8z M50.8,58.4c0.5,0,1.2,0.1,1.3,0.6c0.1,0.5-1,0.7-1.4,0.8c-0.1,0-0.3,0-0.4-0.1c-0.3-1.1,0.5-1.1,1.5-1.2
		c0.2,0,0.5,0.2,0.1,0.2c-0.7,0-1.3,0.1-1,0.9c-0.1,0-0.2-0.1-0.4-0.1c1-0.1,1.1-0.4,0.3-0.9C50.5,58.7,50.5,58.4,50.8,58.4
		L50.8,58.4z"/>
	<path class="st1" d="M51.9,60.5C51.9,60.4,51.9,60.4,51.9,60.5c-0.2-0.2,0.2-0.2,0.2-0.2c0.1,0,0.3,0.1,0.5,0.1
		c0,0,0.1,0.1,0.1,0.1c-0.2,1-1,1.2-2,1.1c-0.1,0-0.3,0-0.2-0.1c0.1-1.3,1.1-1.7,2.3-1.4c0.3,0.1-0.1,0.2-0.3,0.2
		c-1.1-0.3-1.4,0.4-1.5,1.2c-0.1,0-0.2-0.1-0.2-0.1c0.8,0.1,1.2-0.1,1.4-0.6C52.3,60.5,52.2,60.4,51.9,60.5c0.2,0,0.3-0.1,0.4-0.1
		c0,0,0,0,0.1,0.1C52.6,60.5,52,60.6,51.9,60.5L51.9,60.5z M55.3,61c0.1,0,0.3,0,0.5,0c0.1,0,0.2,0.1,0.2,0.1
		c0.3,0.6-0.9,1.5-1.6,1.1C53.5,61.7,54.7,61.1,55.3,61c0.2-0.1,0.6,0.2,0.2,0.3c-0.3,0-0.6,0.2-0.9,0.5c0.5,0,0.7-0.1,0.9-0.4
		c-0.1,0-0.3,0-0.4,0C54.8,61.2,55,60.9,55.3,61L55.3,61z"/>
	<path class="st1" d="M53.2,61.5c0,0,0-0.1,0-0.1c0.2,0,0.3,0,0.5,0c0,0.2,0.1,0.4,0.1,0.5c0,0,0,0.1-0.1,0.1
		c-0.2,0.1-0.4,0.2-0.6,0.4c-0.1,0.1-0.5,0.1-0.5,0c-1.1-1.3,0.5-1.5,1.6-1.1c0.2,0.1-0.3,0.1-0.4,0.1c-1.4-0.5-1.1,0.5-0.6,1
		l-0.5,0c0.6-0.4,0.6-0.3,0.5-0.9c0-0.1,0.5-0.1,0.5,0c0,0,0,0.1,0,0.1C53.7,61.6,53.2,61.7,53.2,61.5L53.2,61.5z M51.4,62.2
		c0.5,1.1-0.4,1.4-1.5,1.2c-0.1,0-0.2-0.1-0.2-0.2c0.1-0.9,0.8-1.2,1.7-1.2c0.4,0,0.3,0.3,0,0.3c-0.4,0.2-0.7,0.4-1.1,0.6
		c0.6-0.1,0.8-0.4,0.5-0.8C50.7,62,51.3,62,51.4,62.2L51.4,62.2z M54.8,62.4c-0.2,0.7-0.2,1-1,1.1c-0.1,0-0.5,0-0.5-0.1
		c-0.1-0.7,0.5-0.9,1.2-1.1c0.1,0,0.6,0.1,0.5,0.1c-0.6,0.2-1.2,0.3-1,1c-0.1,0-0.3-0.1-0.5-0.1c0.8-0.1,0.7-0.6,0.8-1
		C54.4,62.2,54.9,62.3,54.8,62.4L54.8,62.4z"/>
	<path class="st1" d="M56,63.4c-0.1,0.7-0.9,1.4-1.5,0.6c-0.8-1,1-0.9,1.6-0.7c0.4,0.1-0.1,0.2-0.3,0.2c-1.6-0.4-0.6,1.3-0.3-0.1
		C55.5,63.2,56,63.2,56,63.4L56,63.4z M60.5,53c0.6-0.8,1.3-1.1,2.1-0.5c0.6,0.4,0,0.9-0.5,1.1c-0.5,0.2-1.1,0.3-1.6,0.2
		c-0.9-0.2,0.2-1.1,0.5-1.3c0.1-0.1,0.6,0,0.5,0.1c-0.3,0.2-0.7,0.5-0.8,0.9s0.8,0.1,0.9,0c1.3-0.5,0.2-1.6-0.7-0.4
		C60.9,53.1,60.4,53,60.5,53L60.5,53z"/>
	<path class="st1" d="M63.8,53.1c0.9,0.7,0.6,1.3-0.4,1.8c-0.1,0.1-0.4,0-0.4-0.1c-0.6-0.8-0.7-1.7,0.5-1.9
		C63.7,52.9,64,53.2,63.8,53.1c-1.2,0.2-0.7,1.2-0.3,1.6c-0.1,0-0.3,0-0.4-0.1c0.7-0.2,0.8-0.7,0.4-1.4C63.1,53.2,63.6,53,63.8,53.1
		L63.8,53.1z M61.8,54.7c-0.1,0-0.1,0-0.2-0.1c-0.1,0-0.2-0.1-0.2-0.2s0-0.1,0.1-0.2c0.1-0.1,0.4-0.1,0.5,0c0.1,0.2,1,1,0.5,1.2
		c-0.4,0.2-0.8,0-1.2-0.2c-0.2-0.1-0.8-0.4-0.7-0.7c0.2-0.5,1.3-0.2,1.6-0.2s0.3,0.3,0,0.3c-0.7-0.1-1.4-0.1-0.5,0.4
		c0.9,0.5,0.1-0.4-0.2-0.7c0.1,0,0.3,0,0.5,0c0,0,0-0.1,0-0.1C62.4,54.5,62.1,54.8,61.8,54.7L61.8,54.7z M58.9,53.3
		c0.5,0,1.2,0.1,1.3,0.6c0.1,0.5-1,0.8-1.4,0.8c-0.1,0-0.3,0-0.4-0.1c-0.3-1.1,0.5-1.2,1.5-1.2c0.3,0,0.5,0.2,0.1,0.3
		c-0.7,0-1.2,0.1-1,0.9c-0.1,0-0.2-0.1-0.4-0.1c0.8,0,0.9-0.3,0.3-0.9C58.6,53.5,58.6,53.3,58.9,53.3L58.9,53.3z"/>
	<path class="st1" d="M60.1,55.4C60,55.3,60,55.3,60.1,55.4c-0.2-0.2,0-0.3,0.2-0.3c0.1,0,0.3,0.1,0.5,0.1c0.1,0,0.2,0.1,0.2,0.2
		c-0.2,1-1,1.2-2,1.2c-0.1,0-0.2-0.1-0.2-0.2c0.1-1.3,1-1.8,2.3-1.4c0.3,0.1,0.1,0.4-0.2,0.3c-1.3-0.4-1.5,0.5-1.6,1.2
		c-0.1-0.1-0.2-0.1-0.2-0.2c0.5,0.1,0.9,0,1.3-0.4c0.3-0.2,0.3-0.4,0-0.4c0.1-0.1,0.1-0.2,0.2-0.3c0,0,0,0,0.1,0.1
		C60.7,55.4,60.2,55.5,60.1,55.4L60.1,55.4z M63.4,55.8c0.1,0,0.3,0,0.5,0c0.1,0,0.2,0,0.2,0.1c0.3,0.6-0.9,1.5-1.6,1.1
		C61.6,56.5,62.8,56,63.4,55.8c0.2,0,0.6,0.2,0.2,0.3c-0.4,0-0.7,0.2-0.9,0.5c0.3,0.2,0.6,0.2,0.8-0.2c0.2-0.3,0-0.2-0.3-0.2
		C62.9,56.1,63.1,55.8,63.4,55.8L63.4,55.8z"/>
	<path class="st1" d="M61.2,56.4c0,0,0-0.1,0-0.1c0.2,0,0.3,0,0.5,0c0,0.2,0.1,0.3,0.1,0.5c0,0,0,0.1-0.1,0.1
		c-0.2,0.1-0.4,0.2-0.6,0.3c-0.1,0.1-0.5,0.1-0.5,0c-1.1-1.3,0.5-1.5,1.6-1.1c0.2,0.1-0.3,0.1-0.4,0.1c-0.4,0.1-0.7,0.2-1,0.3
		c0,0.3,0.2,0.5,0.4,0.7c-0.2,0-0.3,0-0.5,0c0.6-0.4,0.6-0.3,0.5-0.9c0-0.1,0.5-0.1,0.5,0c0,0,0,0.1,0,0.1
		C61.8,56.5,61.3,56.5,61.2,56.4L61.2,56.4z M59.5,57.1c0.5,1.2-0.4,1.4-1.5,1.2c-0.1,0-0.2-0.1-0.2-0.2c0.1-0.9,0.8-1.2,1.7-1.2
		c0.3,0,0.3,0.3,0,0.3l-1.1,0.6c0.6-0.1,0.8-0.4,0.5-0.8C58.9,56.9,59.4,56.9,59.5,57.1L59.5,57.1z M63,57.3c-0.2,0.7-0.2,1-1,1.1
		c-0.1,0-0.5,0-0.5-0.1c-0.1-0.7,0.5-0.9,1.2-1.1c0.1,0,0.6,0.1,0.5,0.1c-0.6,0.2-1.2,0.3-1,1c-0.1,0-0.3-0.1-0.5-0.1
		c0.8-0.1,0.7-0.6,0.8-1C62.4,57.1,63,57.2,63,57.3L63,57.3z"/>
	<path class="st1" d="M64.1,58.3c-0.1,0.8-0.8,1.4-1.5,0.7c-1-1,1-1,1.5-0.8c0.3,0.1,0.1,0.4-0.2,0.3c-0.4-0.1-1.3-0.3-0.9,0.3
		c0.3,0.5,0.5-0.3,0.6-0.5C63.6,58,64.1,58,64.1,58.3L64.1,58.3z M44.9,50.7c0.6-0.8,1.3-1.1,2.1-0.5c0.6,0.4,0,0.9-0.5,1.1
		c-0.5,0.2-1.1,0.3-1.6,0.2c-0.9-0.2,0.2-1.1,0.5-1.3c0.1-0.1,0.6,0,0.5,0.1c-0.3,0.2-0.7,0.5-0.8,0.9s0.8,0.1,0.9,0
		c0.3-0.1,0.6-0.3,0.6-0.5c0.1-0.1-0.1-0.3-0.2-0.4c-0.5-0.5-0.9,0.2-1.1,0.5C45.4,50.9,44.9,50.8,44.9,50.7L44.9,50.7z"/>
	<path class="st1" d="M48.2,50.9c1,0.7,0.6,1.3-0.4,1.8c-0.1,0.1-0.4,0-0.4-0.1c-0.6-0.8-0.7-1.8,0.6-2c0.3,0,0.5,0.3,0.1,0.4
		c-1,0.2-0.5,1-0.2,1.5c-0.1,0-0.3,0-0.4-0.1c0.7-0.2,0.8-0.7,0.4-1.3C47.5,51,48,50.8,48.2,50.9L48.2,50.9z M46.3,52.5
		c-0.1,0-0.1,0-0.2-0.1c-0.1,0-0.2-0.1-0.2-0.2s0-0.1,0.1-0.2c0.1-0.1,0.4-0.1,0.5,0c0.1,0.2,1,1,0.5,1.2c-0.4,0.2-0.8,0-1.2-0.2
		c-0.2-0.1-0.8-0.4-0.7-0.7c0.2-0.5,1.3-0.3,1.6-0.2c0.3,0,0.3,0.3,0,0.3c-0.6-0.1-1.4,0-0.5,0.4c0.9,0.5,0.1-0.4-0.2-0.7
		c0.1,0,0.3,0,0.5,0c0,0,0-0.1,0-0.1C46.8,52.3,46.6,52.6,46.3,52.5L46.3,52.5z M43.4,51c0.5,0,1.2,0.1,1.3,0.6
		c0.1,0.5-1,0.8-1.4,0.9c-0.1,0-0.3,0-0.4-0.1c-0.3-1.1,0.5-1.2,1.5-1.2c0.3,0,0.5,0.3,0.1,0.3c-0.7,0-1.2,0.1-1,0.9
		c-0.1,0-0.2-0.1-0.4-0.1c0.5,0,0.6-0.3,0.2-0.8C43,51.4,43.1,51,43.4,51L43.4,51z"/>
	<path class="st1" d="M44.5,53.2C44.5,53.1,44.5,53.1,44.5,53.2c-0.2-0.2,0-0.4,0.2-0.3c0.1,0,0.3,0.1,0.5,0.1
		c0.1,0,0.2,0.1,0.2,0.2c-0.2,1.1-1,1.2-2,1.2c-0.1,0-0.2-0.1-0.2-0.2c0.1-1.3,1-1.8,2.3-1.4c0.4,0.1,0.1,0.4-0.2,0.3
		c-1.3-0.4-1.5,0.5-1.5,1.2c-0.1-0.1-0.2-0.1-0.2-0.2c0.5,0.1,0.9,0,1.3-0.4c0.3-0.2,0.3-0.3,0-0.3c0.1-0.1,0.1-0.2,0.2-0.2
		c0,0,0,0,0.1,0.1C45.1,53.2,44.7,53.3,44.5,53.2L44.5,53.2z M47.9,53.7c0.1,0,0.3,0,0.5,0c0.1,0,0.2,0,0.2,0.1
		c0.4,0.8-0.9,1.2-1.6,1C45.9,54.5,47.5,53.8,47.9,53.7c0.1,0,0.5,0.1,0.2,0.2c-0.4,0-0.7,0.2-0.9,0.5c-0.2,0.7,1.2-0.6,1-0.5
		c-0.2,0-0.3,0-0.5,0C47.4,53.8,47.6,53.6,47.9,53.7L47.9,53.7z"/>
	<path class="st1" d="M45.7,54.3c0,0,0-0.1,0-0.1c0.2,0,0.4-0.1,0.5-0.1c0,0.2,0.1,0.4,0.1,0.6c0,0.1-0.1,0.2-0.1,0.2
		c-0.2,0.1-0.4,0.2-0.6,0.3c-0.1,0.1-0.3,0.1-0.5,0c-1-1.2,0.2-1.8,1.4-1.3c0.3,0.1,0.1,0.5-0.2,0.4c-0.6-0.2-1.2,0.3-0.8,0.8
		c-0.2,0-0.3,0-0.5,0c0.1-0.1,0.3-0.2,0.4-0.3c0.3-0.2,0.1-0.1,0.1-0.5c0-0.2,0.4-0.3,0.5-0.1c0,0,0,0.1,0,0.1
		C46.4,54.4,45.8,54.5,45.7,54.3L45.7,54.3z M44,54.9c0.5,1.1-0.4,1.4-1.5,1.2c-0.1,0-0.2-0.1-0.2-0.2c0.1-0.9,0.8-1.2,1.7-1.2
		c0.3,0,0.3,0.3,0,0.3c-0.4,0.2-0.7,0.4-1.1,0.6c0.7-0.1,0.8-0.4,0.5-0.8C43.3,54.7,43.9,54.7,44,54.9L44,54.9z M47.4,55.1
		c-0.2,0.7-0.2,1-1.1,1.2c-0.1,0-0.4,0-0.4-0.1c-0.1-0.8,0.5-0.9,1.2-1.1c0.1,0,0.6,0.1,0.4,0.2c-0.6,0.2-1.1,0.4-1,1
		c-0.1,0-0.3-0.1-0.4-0.1c0.7-0.1,0.7-0.6,0.8-1C46.9,54.9,47.5,55,47.4,55.1L47.4,55.1z"/>
	<path class="st1" d="M48.5,56c-0.1,0.8-0.9,1.3-1.5,0.6C46.1,55.7,48.2,55.9,48.5,56c0.4,0-0.1,0.1-0.2,0c-0.7-0.2-1.1,0-0.8,0.5
		c0.3,0.5,0.5-0.3,0.5-0.6C48,55.9,48.6,55.9,48.5,56L48.5,56z M59,58.9c0.5-0.7,1.3-1.2,2.1-0.5c0.5,0.5,0,0.9-0.5,1.1
		c-0.5,0.2-1.2,0.4-1.6,0.2c-0.8-0.3,0.1-1,0.5-1.3c0.1-0.1,0.6,0,0.5,0.1c-0.5,0.4-1.3,1.3-0.1,1c1.5-0.4,0.4-1.6-0.5-0.5
		C59.4,59.1,58.9,59,59,58.9L59,58.9z"/>
	<path class="st1" d="M62.3,59.2c0.9,0.6,0.5,1.2-0.4,1.7c-0.1,0.1-0.4,0.1-0.5-0.1C60.9,60,60.8,59.1,62,59c0.2,0,0.6,0.2,0.2,0.2
		c-1,0.2-0.6,1.1-0.2,1.6c-0.2,0-0.3,0-0.5-0.1c0.7-0.4,1.2-0.9,0.3-1.4C61.7,59.1,62.2,59.1,62.3,59.2L62.3,59.2z M60.3,60.6
		l-0.2-0.1c0,0-0.1,0-0.1-0.1c0-0.1,0-0.1,0-0.1c0.1-0.1,0.5,0,0.5,0c0.2,0.2,1,0.9,0.5,1.1c-0.3,0.2-0.8,0-1.1-0.2
		c-0.2-0.1-0.9-0.4-0.8-0.7c0.1-0.4,1.3-0.2,1.6-0.1c0.3,0,0.3,0.2,0,0.2c-0.8-0.1-1.3,0.1-0.5,0.6c0.9,0.5,0-0.6-0.2-0.8
		c0.2,0,0.3,0,0.5,0c0,0,0,0,0,0C61,60.6,60.5,60.6,60.3,60.6L60.3,60.6z M57.5,59.2c0.5,0,1.2,0.1,1.3,0.6c0.1,0.6-1.1,0.8-1.4,0.9
		c-0.1,0-0.4,0-0.4-0.1c-0.3-1.1,0.5-1.2,1.5-1.3c0.3,0,0.5,0.3,0.1,0.4c-0.7,0-1.2,0.1-1,0.9c-0.1,0-0.2-0.1-0.4-0.1
		c0.6-0.1,1.3-0.8,0.2-0.8C57.1,59.5,57.2,59.2,57.5,59.2L57.5,59.2z"/>
	<path class="st1" d="M58.6,61.3C58.5,61.3,58.5,61.3,58.6,61.3c-0.2-0.2,0.1-0.3,0.2-0.3c0.1,0,0.3,0.1,0.5,0.1
		c0.1,0,0.2,0.1,0.2,0.2c-0.2,1-1,1.2-2,1.2c-0.1,0-0.3-0.1-0.2-0.2c0.1-1.3,1-1.8,2.3-1.4c0.3,0.1,0.1,0.3-0.2,0.3
		c-1.3-0.4-1.5,0.5-1.5,1.2c-0.1-0.1-0.2-0.1-0.2-0.2c0.5,0.1,0.9,0,1.3-0.4c0.3-0.2,0.3-0.4,0-0.4c0.1-0.1,0.2-0.1,0.3-0.2
		c0,0,0,0,0.1,0.1C59.2,61.3,58.7,61.4,58.6,61.3L58.6,61.3z M61.9,61.8c0.1,0,0.3,0,0.5,0c0.1,0,0.2,0.1,0.2,0.1
		c0.3,0.6-0.9,1.5-1.6,1.1C60.2,62.5,61.3,61.9,61.9,61.8c0.2-0.1,0.6,0.2,0.2,0.3c-0.3,0-0.6,0.2-0.9,0.5c0.5,0,0.8-0.1,0.9-0.4
		c-0.1,0-0.3,0-0.4,0C61.4,62,61.7,61.7,61.9,61.8L61.9,61.8z"/>
	<path class="st1" d="M59.8,62.4c0,0,0-0.1,0-0.1c0.2,0,0.3,0,0.5,0c0,0.2,0.1,0.4,0.1,0.5c0,0.1-0.1,0.1-0.1,0.1
		c-0.2,0.1-0.4,0.2-0.6,0.4c-0.1,0.1-0.4,0.1-0.5,0c-1.1-1.3,0.3-1.6,1.5-1.2c0.3,0.1-0.1,0.3-0.3,0.2c-1.1,0.1-1.3,0.4-0.7,0.9
		c-0.1,0-0.3,0-0.5,0c0.2-0.1,0.4-0.3,0.6-0.4c0,0-0.1-0.3-0.1-0.5c0-0.2,0.5-0.1,0.5,0c0,0,0,0.1,0,0.1
		C60.4,62.5,59.9,62.6,59.8,62.4L59.8,62.4z M58,63c0.5,1.1-0.3,1.5-1.4,1.3c-0.1,0-0.2-0.1-0.2-0.2c0.1-0.9,0.8-1.2,1.7-1.2
		c0.4,0,0.3,0.4,0,0.4c-0.8,0.1-1.2,0.3-1.1,0.9c-0.1-0.1-0.2-0.1-0.2-0.2c0.6,0.1,1-0.3,0.8-0.8C57.4,62.8,57.9,62.8,58,63L58,63z
		 M61.5,63.2c-0.2,0.7-0.2,1.1-1.2,1.2c-0.1,0-0.3,0-0.3-0.1c-0.1-0.8,0.5-1,1.3-1.3c0.2-0.1,0.6,0.2,0.2,0.3
		c-0.5,0.1-0.8,0.4-0.9,0.9c-0.1,0-0.2-0.1-0.3-0.1c0.6-0.1,0.6-0.6,0.7-0.9C61,62.9,61.6,63,61.5,63.2L61.5,63.2z"/>
	<path class="st1" d="M62.6,64.2c-0.1,0.8-0.8,1.4-1.5,0.7c-0.9-0.9,1-0.9,1.5-0.8c0.3,0.1,0.1,0.3-0.2,0.2
		c-0.4-0.1-1.2-0.2-0.9,0.3c0.2,0.6,0.5-0.2,0.6-0.5C62.1,64,62.6,64,62.6,64.2L62.6,64.2z M57.4,53.2c0.5-0.1,1.7,0.6,0.8,0.9
		c-0.5,0.2-1.7,0-1.1-0.7c0.1-0.2,0.7,0,0.5,0.2c0-0.1,0-0.1,0-0.2C57.2,53.6,57,53.3,57.4,53.2L57.4,53.2z M57.3,55.8
		c0.3-1.5,2.9-0.1,1.2,0.7c-1,0.5-2.5-1-0.9-1.2c0.3,0,0.5,0.3,0.1,0.3c-0.1,0.1-0.1,0.2-0.2,0.4c1,0.1,1.1,0.1,0.3-0.1
		C57.9,56.1,57.3,56,57.3,55.8L57.3,55.8z M55.6,59.7c1.2-0.5,1.6,1.3,0,1.1c0,0-0.2,0-0.2-0.1c-0.1-0.5,0-0.7,0.4-1
		c0.1-0.1,0.6,0,0.5,0.2c-0.1,0.7-0.2,0.8,0,0.4c0-0.2,0-0.3-0.2-0.4C55.9,60,55.4,59.8,55.6,59.7L55.6,59.7z M51.3,50.9
		c0.8-0.5,1.5,0.7,0.7,1.1c-1.3,0.6-1.8-0.9-0.5-1.3c0.2-0.1,0.6,0.2,0.2,0.3c-0.1,0.1-0.3,0.2-0.5,0.3c0.5,0.2,0.6,0.1,0.3-0.2
		C51.5,51.3,51.1,51,51.3,50.9L51.3,50.9z"/>
	<path class="st1" d="M49.8,50.7c1.1-0.4,1.5,1.2,0.5,1.3c-1.4,0.1-1.5-1.6,0-1.3c0.4,0.1,0.1,0.4-0.2,0.3c-0.7,0.2-0.6,0.3,0.2,0.3
		c0-0.2,0-0.3-0.2-0.4C49.9,51,49.5,50.8,49.8,50.7L49.8,50.7z M49.2,53.1c0.8-1.1,2.7,0.3,1.5,0.9c-0.8,0.3-2.3-0.8-0.9-1.2
		c0.1,0,0.6,0.1,0.5,0.1c-0.5,0.1-0.7,0.3-0.4,0.7c0.8,1.1,0.8-1.7-0.1-0.4C49.7,53.2,49.2,53.1,49.2,53.1L49.2,53.1z M49.9,54.9
		c0.5-0.4,1.2-0.2,1.5,0.4c0.2,0.5-0.5,0.9-0.9,0.7c-1-0.4-0.7-1.8,0.6-1.3c0.3,0.1-0.1,0.3-0.3,0.2c-0.5-0.2-0.4,0.3-0.3,0.5
		c0,0.1,0.1,0.1,0.1,0.2c0.4,0.1,0.4-0.1-0.1-0.5C50.3,55.1,49.7,55,49.9,54.9L49.9,54.9z M49.5,56.4c1-0.2,1.6,1.3,0.6,1.6
		c-1.2,0.4-1.5-0.9-0.4-1.4c0.2-0.1,0.7,0.1,0.3,0.3c-0.4,0.1-0.6,0.3-0.5,0.7c0.1,0.4,1.3-1.1,0.1-0.9
		C49.3,56.8,49.1,56.5,49.5,56.4L49.5,56.4z M47.1,57.8c0.9-1.1,2.3,0.7,1,0.9c-0.9,0.2-1.6-1.3-0.3-1.3c0.2,0,0.5,0.2,0.1,0.2
		c-0.4,0-0.5,0.2-0.4,0.4c0,0.1,0.1,0.1,0.1,0.2c0.5,0.1,0.5,0-0.1-0.4C47.5,58.1,47,58,47.1,57.8L47.1,57.8z"/>
	<path class="st1" d="M49.1,54c0.7,0.2,1.1,0.9,0.1,1.1c-0.9,0.1-0.9-0.7-0.3-1.1c0.2-0.1,0.7,0,0.5,0.2c-0.1,0-0.3,0-0.4,0
		C48.6,54.2,48.9,53.9,49.1,54L49.1,54z M48.5,52.4c0.8-1.3,1.9,1.2,0.3,0.8c-1-0.2-0.7-1.8,0.5-1.2c0.2,0.1-0.3,0.2-0.4,0.1
		c-0.1-0.1-0.1,0.4-0.1,0.4c0,0.1,0.1,0.2,0.1,0.3c0.2,0,0.3-0.1,0.2-0.4C48.9,52.7,48.4,52.5,48.5,52.4L48.5,52.4z M51.2,53.9
		c0.6-0.1,1.5,0.3,0.6,0.7c-0.8,0.3-1.2-0.4-0.5-0.9c0.1-0.1,0.6,0,0.5,0.2c-0.1,0.1-0.2,0.2-0.2,0.3C51.2,54.2,50.8,54,51.2,53.9
		L51.2,53.9z M55.4,61.6c0.4-0.2,1-0.2,1.5,0c0.5,0.3,0.2,0.8-0.2,1c-0.9,0.3-1.6-1-0.3-1.2c0.2,0,0.6,0.2,0.2,0.2
		c-0.2,0.5-0.5,0.6-0.8,0.1C55.6,62,55.2,61.8,55.4,61.6L55.4,61.6z M65.3,54.3c0.5-0.1,0.8,0,1.1,0.3c0.2,0.2,0.1,0.8-0.2,0.9
		c-1.1,0.4-1.8-0.9-0.5-1.2c0.2,0,0.6,0.2,0.2,0.3c0.1,0.3,0,0.3-0.4,0C65.3,54.6,64.9,54.3,65.3,54.3L65.3,54.3z"/>
	<path class="st1" d="M65.1,53.4c0.5,0.3,0.8,1.1-0.1,1C64.2,54.3,64.2,53.5,65.1,53.4c0.1,0,0.6,0.1,0.2,0.2
		c-0.1,0-0.2,0.1-0.3,0.1c-0.2,0.2-0.2,0.4,0,0.5c0.1-0.2-0.2-0.6-0.5-0.7C64.5,53.4,65,53.4,65.1,53.4L65.1,53.4z M64.6,56.1
		c0.4-0.5,1.1-0.3,1.4,0.1c0.5,0.6-0.5,1-1,1c-0.5-0.1-0.7-0.7-0.6-1.1c0.2-0.5,1.1-0.2,1.5-0.1c0.2,0.1-0.3,0.1-0.4,0.1
		c-0.6-0.2-0.6,0.2-0.5,0.6c0,0.1,0.1,0.3,0.3,0.2c0.4-0.3,0.1-1-0.2-0.7C65,56.3,64.5,56.2,64.6,56.1L64.6,56.1z M65,58.2
		c-0.1,0-0.1-0.1-0.2-0.1c0,0,0,0,0-0.1c0.3-0.3,0.8,0,1,0.2c0.6,0.6-0.9,0.8-1.2,0.7c-1.3-0.3,0.6-1.9,1.3-0.8c0,0.1-0.5,0.1-0.5,0
		c-0.2-0.4-0.6,0.1-0.7,0.3c-0.2,0.4,1.6,0.1,0.3-0.5c0.2,0,0.4,0,0.5,0c-0.1,0.1,0,0.1,0.1,0.2C65.6,58.3,65.1,58.3,65,58.2
		L65,58.2z M63.4,59.6c0.5-0.1,1.3,0.1,1.2,0.7c-0.1,0.4-1.2,0.5-1.5,0.2c-0.7-0.7,1-1.9,1.6-0.8c0.1,0.2-0.4,0.4-0.5,0.1
		c-0.3-0.6-0.6,0.1-0.6,0.1C63.2,60,63,59.7,63.4,59.6L63.4,59.6z M62.5,60.7c0.2,0,1.2,0.2,0.9,0.6c-0.2,0.3-0.6,0.5-1,0.3
		c-0.4-0.1-0.6-0.5-0.5-0.8c0.1-0.4,0.8-0.2,1.1-0.2c0.4,0.1,0.1,0.2-0.2,0.2c-0.4-0.1-0.5,0.1-0.4,0.4c0.2,0.6,0.8-0.3,0-0.4
		C62.2,60.9,62.2,60.7,62.5,60.7L62.5,60.7z M58.8,63.7c0.6,0,1.3,0.2,1.1,0.9c-0.1,0.5-1.2,0.5-1.6,0.3c-0.7-0.3,1-2.1,1.5-0.9
		c0.1,0.1-0.5,0.2-0.5,0c-0.1-0.3-0.4,0.1-0.5,0.2c-0.1,0.1-0.1,0.2-0.2,0.3c0.9,0,0.9-0.2,0.2-0.6C58.7,64,58.4,63.7,58.8,63.7
		L58.8,63.7z M51.5,63.2c0.4-0.3,0.9-0.5,1.4-0.4c0.6,0.2,0.9,1.4,0.1,1.5c-0.6,0.1-1.1,0-1.4-0.5c-0.4-0.7,0.9-0.9,1.3-0.8
		c0.3,0,0.3,0.2,0,0.1c-0.2,0-0.3,0.1-0.5,0.1c-0.5,0.4-0.3,0.6,0.5,0.5c0.3-0.5-0.1-1.3-0.8-0.6C51.9,63.4,51.4,63.3,51.5,63.2
		L51.5,63.2z M49.7,77.4c-0.2-0.1-0.4-0.2-0.6-0.3c-0.1,0.1-0.6,0-0.5-0.1c0.6-0.4,1.7-0.5,1.6,0.4C50.3,77.6,49.7,77.6,49.7,77.4
		L49.7,77.4z M48.3,76.8c-1.4-0.7,0.2-1.7,1.1-0.6c0,0,0,0.1,0,0.1c-0.3,0.3-0.5,0.3-1,0.3c-0.2,0-0.5-0.2-0.1-0.2
		c0.3,0.1,0.4,0,0.5-0.3c-0.7,0.1-0.7,0.3,0,0.7C48.9,76.8,48.4,76.8,48.3,76.8L48.3,76.8z"/>
	<path class="st1" d="M49.5,76.1c-1-0.7,0.7-1.1,1.3-0.3c0,0,0,0.1,0,0.1C50.2,76.3,49.9,76.2,49.5,76.1c-0.4,0-0.1-0.3,0.1-0.2
		c0.3,0,0.4,0,0.2,0.1C50.1,76.1,49.6,76.2,49.5,76.1L49.5,76.1z"/>
	<path class="st1" d="M48.4,75.4c-1.2-0.4,0.1-1.9,1-1.4c1.6,0.8-0.4,1.6-1.5,1.3c-0.3-0.1,0.1-0.3,0.3-0.2c1.4-0.2,1.6-0.5,0.5-0.7
		c-0.3,0.2-0.5,0.6,0,0.8C49,75.3,48.6,75.4,48.4,75.4L48.4,75.4z"/>
	<path class="st1" d="M46.3,75.5c-1.1-0.6-0.1-2,0.9-1.5c1.3,0.6-0.3,1.8-1.3,1c-0.1-0.1,0.4-0.1,0.5-0.1c0.9,0.7,1-1.4,0.1-0.7
		c-0.4,0.3-0.2,0.9,0.2,1.1C46.9,75.5,46.4,75.6,46.3,75.5L46.3,75.5z M48.2,73.8c-0.4,0-0.8,0-1-0.4s0.5-0.7,0.8-0.8
		c0.5-0.1,0.8,0.2,1,0.6c0.2,0.5-0.9,0.7-1.2,0.7c-0.3,0-0.5-0.3-0.1-0.3c-0.1-0.5,0.1-0.6,0.4-0.1C48.3,73.5,48.5,73.8,48.2,73.8
		L48.2,73.8z M50.4,77.7c-0.1-0.7,0.3-0.8,1-0.9c0.1,0,0.2,0,0.3,0.1c0.7,1.2-0.8,1.9-1.3,0.6c-0.1-0.2,0.5-0.3,0.5,0
		c0.6,0.1,0.6,0.1,0,0.2C51,77.9,50.4,78,50.4,77.7L50.4,77.7z M50.7,76.1c-0.1-1,0.8-0.9,1.2-0.2c0.7,1.1-0.7,0.7-1.2,0.4
		c-0.1-0.1,0.4-0.1,0.5,0c0.6,0.4,0.5,0.1,0.2-0.3c-0.1-0.2-0.2-0.3-0.4-0.5c0.3,0.2,0.2,0.3,0.2,0.7C51.3,76.2,50.7,76.2,50.7,76.1
		L50.7,76.1z M50.7,74.8c-0.4,0.1-0.6-0.1-0.8-0.3c0-0.1,0-0.1,0.1-0.2c0.7-0.3,0.9-0.2,1.4,0.2c0,0,0,0,0,0.1
		c-0.1,0.2-0.1,0.2-0.2,0.3c-0.1,0.1-0.3,0.1-0.4,0C50.7,74.9,50.7,74.8,50.7,74.8c-0.4-0.1-0.1-0.3,0.1-0.2c0.2,0,0.2,0.1,0.4,0.2
		C51,74.8,50.9,74.8,50.7,74.8c-0.1-0.1-0.1-0.2-0.2-0.2C50.7,74.6,51.1,74.8,50.7,74.8L50.7,74.8z M50,73.5
		c-0.3-0.1-0.5-0.1-0.6-0.3c0,0,0-0.1,0-0.1c0.6-0.8,1.3-0.7,1.9,0c0,0.1,0,0.1,0,0.2c-0.6,0.6-1.1,0.6-1.6,0
		C49.5,73,50,73,50.2,73.1c0,0,0,0.1,0,0.1C50.5,73.3,50.3,73.7,50,73.5L50,73.5z"/>
	<path class="st1" d="M48.1,72.4c0.3-0.8,1.3-1.1,1.4-0.1c0,0.2,0,0.6-0.3,0.7c-0.5,0.1-0.8-0.4-1-0.7c-0.2-0.2,0.4-0.3,0.5-0.1
		c0.1,0.2,0.2,0.4,0.4,0.5c-0.1-0.1-0.1-0.2-0.1-0.4c-0.1-0.6-0.2-0.1-0.3,0.3C48.5,72.7,48,72.6,48.1,72.4L48.1,72.4z"/>
	<path class="st1" d="M49.6,72c-0.7-1.1,0.8-1,1.4-0.6c0,0,0,0.1,0,0.1C50.6,72.2,50.2,72.1,49.6,72c-0.4-0.2,0.1-0.3,0.3-0.2
		c0.1,0,0.2,0,0.2,0.2C50.2,72.2,49.7,72.2,49.6,72L49.6,72z M46.8,73.4c-0.3,0-0.4,0-0.6-0.1c-0.1,0-0.1-0.1-0.1-0.2
		c0.5-0.5,0.6-0.5,1.2-0.2c0.1,0,0.2,0.1,0.1,0.2c-0.1,0.2-0.1,0.2-0.3,0.3c-0.2,0.1-0.7,0-0.5-0.2c0.3-0.2,0.1-0.1,0.1-0.1
		C47,73.1,47.1,73.4,46.8,73.4L46.8,73.4z M46.9,72c-0.7-0.9,1.4-0.9,1.5-0.2c0.1,0.8-1.5,0.9-1.5,0c0-0.1,0.6-0.1,0.6,0
		c0,0.3,0.3,0.5,0.4,0.1c0.1-0.4-0.9-0.6-0.5,0.1C47.5,72.1,47,72.1,46.9,72L46.9,72z M51.8,79.5c-0.9-1.9,2.8-0.5,0.5,0
		c-0.1,0-0.6-0.1-0.4-0.1c0.3-0.1,0.8-0.2,0.6-0.5c-0.4-0.6-0.3,0.5-0.2,0.6C52.4,79.6,51.9,79.6,51.8,79.5L51.8,79.5z"/>
	<path class="st1" d="M52.5,78.3c-1.2-0.6,0.1-1.2,0.9-0.6c0.1,0.1,0.1,0.1,0,0.2c-0.3,0.3-0.5,0.4-0.8,0.5
		c-0.2,0.1-0.7-0.1-0.3-0.2c0.2-0.3,0.5-0.4,0.6-0.2C53.1,78.2,52.7,78.4,52.5,78.3L52.5,78.3z M52.4,76.9c-0.6-0.5,1-1.4,1.5-0.6
		C54.5,77.2,52.9,77.7,52.4,76.9c-0.2-0.2,0.4-0.3,0.5-0.1c0.1-0.3,0-0.3,0,0C53.1,76.9,52.5,77,52.4,76.9L52.4,76.9z"/>
	<path class="st1" d="M52.5,76.2c-1-0.9,0.5-1.4,1.2-0.7c0,0,0,0.1,0,0.1c-0.3,0.3-0.5,0.4-0.8,0.6c-0.2,0.1-0.7-0.1-0.3-0.2
		c0.2,0,0.3,0.1,0.5,0.1C53.2,76.3,52.7,76.3,52.5,76.2L52.5,76.2z M51.8,74.8c-0.7-2,3-0.6,0.9,0.2c-0.1,0-0.4,0-0.5-0.1
		c-0.2-0.2-0.3-0.4-0.4-0.7c0-0.1,0.5-0.1,0.5,0c0.1,0.2,0.2,0.5,0.4,0.7c-0.2,0-0.4,0-0.5-0.1c0.4-0.1,0.9-0.4,0.5-0.8
		c-0.6-0.7-0.4,0.7-0.4,0.8C52.4,74.8,51.9,74.9,51.8,74.8L51.8,74.8z M51.9,73.2c-0.7-1.2,0.9-1.3,1.4-0.4c0,0,0,0.1,0,0.1
		c-0.4,0.6-0.9,0.6-1.5,0.3c-0.3-0.1,0.1-0.3,0.3-0.2c0.1,0.1,0.2,0.1,0.3,0.2C52.5,73.3,52,73.3,51.9,73.2L51.9,73.2z M51.9,71.6
		c-0.3-0.1-1-0.4-0.4-0.8c0.6-0.3,1.1-0.1,1.5,0.3c0,0,0,0.1,0,0.1c-0.3,0.7-0.7,0.7-1.4,0.3c-0.3-0.2,0.1-0.3,0.3-0.2
		c0.3,0.2,0.3,0.2,0.2-0.1C52.4,71.4,52.2,71.6,51.9,71.6L51.9,71.6z M48.1,70.8c0.2-0.8,1.8-0.6,0.7,0.5c-0.1,0.1-0.3,0.1-0.4,0.1
		c-0.4-0.1-0.2-0.2-0.4-0.5c-0.2-0.2,0.4-0.3,0.5-0.1c0,0.1,0.2,0.3,0.2,0.3c-0.1,0-0.3,0-0.4,0.1c0.1-0.1,0.2-0.2,0.3-0.3
		C48.6,71,48,71,48.1,70.8L48.1,70.8z M49.9,70.7c-0.7-1,0.5-1.6,1.1-0.7c0,0.1,0,0.1,0,0.2c-0.4,0.4-0.7,0.5-1.3,0.3
		c-0.3-0.1-0.1-0.4,0.2-0.3c0.2,0.1,0.3,0.2,0.5,0.4C50.5,70.9,50,70.9,49.9,70.7L49.9,70.7z M51.4,70.1c-1.2-0.7,0.3-1.6,1.2-0.7
		c0,0,0,0.1,0,0.1c-0.3,0.6-0.7,0.6-1.3,0.4c-0.3-0.1-0.1-0.4,0.2-0.3c0.2,0,0.4,0.1,0.3,0.3C52.1,70.1,51.7,70.2,51.4,70.1
		L51.4,70.1z"/>
	<path class="st1" d="M52.5,70.3c-0.3-0.8,1.4-0.3,1.7,0c0,0,0,0,0,0.1c-0.7,0.7-1.6,0.5-2-0.4c-0.1-0.1,0.5-0.1,0.5,0
		c0,0.2,0.1,0.3,0.2,0.3C53.1,70.4,52.6,70.4,52.5,70.3L52.5,70.3z"/>
	<path class="st1" d="M53.1,71.8c0.1-1,1.1-0.9,1.6-0.2v0c-0.7,0.5-1.4,0.6-2,0c0,0,0.4-0.1,0.5,0c0.3-0.1,0.6-0.2,0.8-0.3
		c-0.2,0.1-0.4,0.3-0.3,0.5C53.6,72,53.1,71.9,53.1,71.8L53.1,71.8z M52.4,81.1c-0.5-0.6-0.6-0.8-0.1-1.5c0.1-0.1,0.3-0.1,0.4,0
		c0.5,0.2,1.9,1.2,0.9,1.7c-0.8,0.4-1.3-0.3-1.6-0.9c-0.1-0.2,0.5-0.2,0.5,0c0.1,0.2,0.5,1.1,0.7,0.5c0.2-0.5-0.5-0.9-0.9-1
		c0.1,0,0.3,0,0.4,0c-0.4,0.4-0.3,0.8,0.1,1.3C53,81.2,52.5,81.2,52.4,81.1L52.4,81.1z"/>
	<path class="st1" d="M54.7,82.3c-0.6-0.2-0.9-0.3-1.3-0.8c-0.1-0.1,0-0.2,0.1-0.2c1.1-0.4,1.9,0,2.4,0.9c0,0.1,0,0.1-0.1,0.2
		c-0.9,0.5-1.3,0-2-0.6c-0.2-0.2,0.2-0.4,0.4-0.2c0.1,0.1,0.1,0.1,0.2,0.2c0.1,0.2,0.4,0.3,0.7,0.2c-0.3-0.5-1.3-0.4-0.3-0.1
		C55.2,82.1,54.9,82.3,54.7,82.3L54.7,82.3z M53.9,80.3c-0.4-0.4-0.6-0.5-0.3-0.9c0.1-0.1,0.3-0.1,0.3-0.1c0.7,0.1,1.1,0.2,1.5,0.8
		c0,0,0,0.1,0,0.1c-0.6,0.6-1.2,0.5-1.8,0C53.4,80,53.9,80,54,80c0.2,0.2,0.5,0.2,0.7-0.2c-0.9-1.1-0.7,0-0.3,0.3
		C54.5,80.4,54,80.4,53.9,80.3L53.9,80.3z M54.6,78.8c-0.6-0.2-1-0.4-1.1-1c0-0.1,0.2-0.1,0.2-0.1c0.6,0,1.9,0.2,1.6,1
		c-0.2,0.6-1.7-0.3-1.8-0.4c-0.1-0.1,0.4-0.1,0.5,0c0.1,0.1,1,0.7,0.8,0.1c-0.1-0.1-1.8-0.2,0.1,0.3C55.2,78.8,54.7,78.9,54.6,78.8
		L54.6,78.8z M54.8,77.2c-1.1-1.3,0.3-1.7,0.9-0.4c0,0.1-0.1,0.2-0.2,0.2c-0.5,0.1-0.8,0-1.2-0.3c-0.3-0.2,0.1-0.4,0.3-0.3
		c0.2,0.1,0.5,0.2,0.8,0.2c-0.1,0.1-0.1,0.1-0.2,0.2c-0.2-0.2-0.1-0.2,0.1,0.1C55.5,77.3,54.9,77.4,54.8,77.2L54.8,77.2z M53,68.3
		c-0.8-1.6,0.7-0.8,1.6-0.4c0.1,0,0.1,0.1,0,0.1c-0.7,0.4-1.4,0.3-2.1,0c-0.1-0.1,0.4-0.1,0.5,0c0.4,0.2,0.8,0.2,1,0
		c-0.1,0.1-0.2,0-0.4-0.1c-0.7-0.4-0.5,0-0.2,0.5C53.6,68.4,53.1,68.4,53,68.3L53,68.3z"/>
	<path class="st1" d="M51.6,68.6c0,0.1,0,0.1,0,0.2c-0.2,0-0.3,0-0.5-0.1c0.1-0.3,0.2-0.9,0.7-1c0.5-0.1,0.9,0,1.1,0.3
		c0.3,0.4-0.1,0.9-0.5,1.1c-0.6,0.2-1.2-0.2-1.5-0.5c-0.2-0.1,0.4-0.2,0.5-0.1c0.8,0.7,1.1,0.3,1.1-0.2c0-0.3-0.3-0.5-0.5-0.2
		c-0.2,0.2-0.2,0.5-0.3,0.7c-0.1,0.1-0.6,0.1-0.5-0.1c0-0.1,0-0.1,0-0.2C51.1,68.4,51.6,68.4,51.6,68.6L51.6,68.6z M53.8,70.1
		c-1.3-1.3,0.2-1.7,1.4-1.1c0,0,0.1,0.1,0.1,0.1c-0.7,1-1.8,1-2.5,0c-0.1-0.1,0.5-0.1,0.5,0c1.5,0.2,1.6,0.2,0.4,0.1
		c0,0.3,0.2,0.6,0.5,0.8C54.5,70.2,53.9,70.2,53.8,70.1L53.8,70.1z M54,75.6c-0.7-0.6-0.9-1.1-0.5-1.9c0-0.1,0.3-0.1,0.4-0.1
		c0.9,0.2,1.9,0.8,1.4,1.8c-0.4,0.8-1.6,0.1-2-0.2c-0.2-0.1,0.4-0.2,0.5-0.1c0.7,0.6,1.2,0.3,1-0.5c-0.1-0.2-0.7-1.1-1-0.2
		c-0.1,0.5,0.3,0.8,0.7,1.1C54.6,75.7,54.1,75.7,54,75.6L54,75.6z"/>
	<path class="st1" d="M54.6,72.9c-0.4,0-0.6-0.1-0.8-0.4c-0.1-0.1,0.1-0.2,0.2-0.2c0.7,0,2.3,0.1,1.6,1.1c-0.7,0.9-1.9,0.1-2.3-0.6
		c-0.1-0.2,0.4-0.3,0.5-0.1c0.2,0.3,0.6,1.1,1.2,0.6c0.7-0.5-0.5-0.8-0.9-0.7c0.1-0.1,0.1-0.1,0.2-0.2l0.4,0.2
		C54.9,72.6,54.9,72.9,54.6,72.9L54.6,72.9z M55.3,80.8c-0.1-1.2,1-1.2,2-0.9c0,0,0.1,0.1,0.1,0.1c-0.3,1.1-1.2,1.6-2.2,0.9
		c-0.2-0.1,0.4-0.2,0.5-0.1c0.6,0.1,0.9-0.1,1.1-0.6c-0.3,0-0.6,0-0.9,0c0,0.2,0,0.3,0,0.5C55.9,81,55.3,81,55.3,80.8L55.3,80.8z
		 M55.6,78.7c-0.4-1.2,1.8-1.2,2-0.4C57.9,79,55.9,78.8,55.6,78.7c-0.2-0.1,0.3-0.2,0.4-0.1c0.5,0.2,0.8,0.1,0.9-0.4
		c-0.3,0-0.6,0-0.9,0.1c0,0.2,0,0.3,0.1,0.5C56.2,78.8,55.6,78.8,55.6,78.7L55.6,78.7z M56.7,77.3c-0.6-0.3-1.1-0.9-1-1.5
		c0.1-0.5,1-0.5,1.3-0.4c0.6,0.2,0.9,0.7,0.4,1.2c-0.5,0.5-1.3,0.1-1.6-0.1c-0.2-0.2,0.3-0.2,0.4-0.1c0.7,0.3,1,0.1,0.9-0.4
		c-0.8-0.2-1.1-0.1-0.9,0.4c0.1,0.4,0.5,0.7,0.8,0.9C57.3,77.3,56.8,77.4,56.7,77.3L56.7,77.3z M56.9,73.7c-0.1,0.1-0.1,0.3-0.3,0.5
		c-0.1,0.1-0.4,0-0.5-0.1c-0.2-0.4,0-0.7,0.4-0.9c0.1-0.1,0.3-0.1,0.4,0c0.4,0.2,1.4,0.9,0.6,1.4c-0.6,0.4-1.4-0.2-1.8-0.6
		c-0.2-0.2,0.4-0.2,0.5-0.1c0.3,0.1,0.6,0.1,1,0.2c-0.2-0.3-0.4-0.5-0.7-0.7c0.1,0,0.3,0,0.4,0c-0.2,0.2-0.5,0.4-0.3,0.7
		c-0.2,0-0.3,0-0.5-0.1c0.1-0.1,0.1-0.3,0.2-0.4C56.5,73.4,57,73.5,56.9,73.7L56.9,73.7z M56.2,72.1c-1-0.3-1.4-0.7-0.8-1.6
		c0.1-0.1,0.3-0.1,0.4-0.1c0.7,0.4,0.9,0.7,1.1,1.4c0,0.1-0.1,0.1-0.1,0.2c-0.9,0.3-1.3,0-1.8-0.7c-0.2-0.2,0.3-0.3,0.5-0.1
		c0-0.1,1,1,0.9,0.4c-0.1-0.4-0.4-0.7-0.8-0.9c0.1,0,0.3,0,0.4-0.1c-0.4,0.4-0.2,0.8,0.5,1.1C56.7,71.9,56.5,72.2,56.2,72.1
		L56.2,72.1z"/>
	<path class="st1" d="M55.4,70.1c-0.5,0-0.7,0-0.9-0.4c0,0,0-0.1,0-0.1c0.6-0.4,1.8-0.7,1.9,0.3c0.1,1.3-1.6,0.2-1.9-0.1
		c-0.2-0.2,0.4-0.3,0.5-0.1c0.2,0.2,0.8,0.8,0.8,0.2c0.1-0.7-1.1,0-0.5,0C55.6,69.8,55.8,70,55.4,70.1L55.4,70.1z M58,81
		c0,0,0,0.1,0.1,0.1c0,0,0,0.1,0,0.1c-0.1,0.1-0.2,0.1-0.3,0.1s-0.4,0-0.3-0.2c0.1-0.4,0.1-1.2,0.7-1.3c0.5-0.1,0.6,0.5,0.7,0.8
		c0.1,0.3,0.2,0.9-0.2,1.1c-0.6,0.2-1.1-0.6-1.3-0.9c-0.2-0.2,0.3-0.3,0.5-0.1c0.3,0.5,0.7,1,0.5,0.1c0-0.2-0.1-0.4-0.2-0.6
		c0.1,0.2-0.1,0.6-0.1,0.9c-0.1-0.1-0.2-0.1-0.3-0.2c-0.1,0-0.1,0-0.2,0C57.3,80.9,57.9,80.8,58,81L58,81z M58.1,82.9
		c0.6-0.4,2.2-0.2,1.5,0.7c-0.1,0.1-0.6,0-0.5-0.1c-0.2-0.1-0.4-0.3-0.6-0.4C58.4,83.2,57.9,83.1,58.1,82.9z M60.5,83.7
		c0-0.3-0.2-1.3,0.5-1.2c0.5,0,0.7,0.5,0.9,0.8c0.1,0.3,0.4,0.9-0.1,1c-0.6,0.2-1.3-0.5-1.7-0.8c-0.2-0.1,0.3-0.2,0.5-0.1
		c0.2,0.2,0.4,0.3,0.7,0.5c0.2,0.1,0.2,0.2,0.3,0.1c0-0.2-0.1-0.5-0.2-0.7c-0.1-0.2-0.2-0.4-0.4-0.6c0.1,0.1,0.1,0,0.1,0.3
		c0,0.2,0,0.5,0,0.7C61,83.9,60.5,83.9,60.5,83.7L60.5,83.7z M62.5,83.6c-0.8-1.7,1.5-1,1.9,0.1c0,0.1-0.1,0.1-0.1,0.2
		c-0.8,0.2-1.4,0-2.1-0.5c-0.2-0.2,0.2-0.3,0.4-0.2c0.4,0.1,0.8,0.2,1.2,0.3c-0.1-0.2-0.2-0.4-0.5-0.6c-0.6-0.5-0.4,0.2-0.3,0.5
		C63.2,83.8,62.6,83.8,62.5,83.6L62.5,83.6z"/>
	<path class="st1" d="M59.6,81.7c0,0,0,0.1,0,0.1c0,0.1-0.5,0.1-0.5,0c-0.1-0.1-0.1-0.2-0.2-0.3v0c1-0.6,1.8-0.3,2.5,0.5v0
		c-1,0.8-2.3,0.7-2.8-0.5c0-0.1,0.5-0.1,0.5,0c0.2,0.4,0.5,1,1.2,0.7c1.4-0.5-1.3-1.4-0.7-0.5c-0.2,0-0.4,0-0.5,0c0,0,0-0.1,0-0.1
		C59.1,81.6,59.6,81.6,59.6,81.7L59.6,81.7z M57.7,79.1c0,0-0.2-0.3-0.3-0.3c0,0,0,0,0,0c0.3-0.5,1.9-0.5,2,0.1
		c0.3,1-1.5,0.3-1.8,0.1c-0.1-0.1,0.4-0.1,0.5,0c0.2,0.2,0.8,0.5,0.8,0c0-0.4-0.9-0.2-0.6,0.2C58.3,79.2,57.7,79.2,57.7,79.1
		L57.7,79.1z M57.6,77.7c-0.3-1.4,1.2-0.9,1.7-0.2c0,0-0.1,0.1-0.1,0.1c-0.5,0.1-1.6,0.3-1.9-0.2v0c0.1-0.1,0.3-0.1,0.4-0.2
		c0-0.1,0.6-0.1,0.6,0c0,0.2,0,0.1-0.2,0.2c0,0-0.1,0-0.1,0c0,0,0.1-0.1,0.1-0.1c0,0.2,0,0.3,0.1,0.5C58.2,77.9,57.6,77.9,57.6,77.7
		L57.6,77.7z M57.6,75.2c0.9-0.8,2-0.1,2.3,0.8c0,0,0,0.1-0.1,0.1c-0.8,0.2-2.3,0.2-1.9-0.9c0.1-0.1,0.6-0.1,0.6,0
		c-0.1,0.2-0.1,0.4,0,0.6c0.3,0,0.5-0.1,0.8-0.1c-0.1-0.4-0.5-0.6-1.1-0.4C58.1,75.4,57.6,75.3,57.6,75.2L57.6,75.2z M61.2,81.1
		c0.6-1.1,1.5-0.9,2.1,0c0,0,0,0.1,0,0.1c-0.8,0.6-1.6,0.5-2.2-0.3c-0.2-0.2,0.4-0.2,0.5-0.1c0.4,0,0.7,0,1.1,0.1
		c-0.5-0.2-0.8-0.1-0.9,0.3C61.7,81.4,61.1,81.3,61.2,81.1L61.2,81.1z"/>
	<path class="st1" d="M59.1,78.6c0.8-0.3,1.2-0.6,2-0.1c0,0,0,0,0,0.1C60.5,79.3,59.8,79,59.1,78.6c-0.3-0.1,0.2-0.1,0.4-0.1
		c0.2,0.2,0.5,0.2,0.8-0.1c-0.2,0.1-0.4,0.2-0.6,0.3C59.5,78.8,59,78.7,59.1,78.6L59.1,78.6z"/>
	<path class="st1" d="M59.2,77.2c0.6-0.4,2-0.6,1.6,0.5c-0.4,1.2-1.5-0.1-1.8-0.5c-0.1-0.1,0.5-0.2,0.5,0c0.1,0.2,0.4,0.9,0.7,0.6
		c0.3-0.5-0.1-0.6-0.6-0.3C59.5,77.4,59,77.3,59.2,77.2L59.2,77.2z M63.2,80c-1,0.1-1.9,0.1-1.9-1c0-0.5,0.8-0.5,1.2-0.4
		c0.5,0.1,1.4,0.5,1.4,1c0.1,0.7-1.3,0.5-1.7,0.5c-0.3,0-0.3-0.2,0-0.2c0.8,0.1,1.5-0.1,0.7-0.7c-0.2-0.1-0.8-0.5-1.1-0.2
		c-0.5,0.5,0.5,1,1,0.9C63.1,79.7,63.6,80,63.2,80L63.2,80z M61.2,77.8c-0.1-1.2,0.9-1.2,1.9-0.9c0.1,0,0.2,0.1,0.2,0.2
		c-0.3,1-1.1,1.7-2.1,1c-0.2-0.2,0.2-0.3,0.4-0.2c0.8,0.1,1.1-0.2,1-0.8c-0.7,0.1-0.9,0.3-0.8,0.8C61.7,78,61.2,78,61.2,77.8
		L61.2,77.8z M63.8,78c0,0.1,0,0.1,0.1,0.2c0,0,0,0,0,0c-0.1,0.1-0.2,0.1-0.3,0.1c-0.1,0-0.3,0-0.3-0.1c0.1-0.4,0.1-1.3,0.7-1.2
		c0.4,0,0.6,0.4,0.7,0.7c0.1,0.3,0.2,0.9-0.2,0.9c-0.6,0.1-1-0.5-1.3-0.9c-0.1-0.1,0.5-0.1,0.5,0c0.1,0.2,0.2,0.3,0.4,0.5
		c0.2,0.3,0.1,0.2,0.1,0.1c0.1-0.2,0-0.4,0-0.6s-0.1-0.5-0.3-0.7c0.3,0.2,0.3,0,0.1,0.3c-0.1,0.2-0.1,0.5-0.1,0.8l-0.3-0.1
		c-0.1,0-0.1-0.1-0.2-0.1C63.2,77.9,63.8,77.9,63.8,78L63.8,78z"/>
	<path class="st1" d="M64.4,80.9c-1.2-1.4,0.4-1.5,1.5-0.8c0,0,0.1,0.1,0,0.1c-0.8,1-1.4,0.6-2.2-0.1c-0.2-0.2,0.3-0.2,0.5-0.1
		c0.3,0.3,0.3,0.5,0.6,0.8C65,81,64.5,81,64.4,80.9L64.4,80.9z M65.5,78.7c0,0,0,0.1,0,0.1c0,0.2-0.4,0.2-0.5,0
		c-0.1-0.1-0.1-0.2-0.2-0.4c0-0.1,0-0.1,0.1-0.2c1-0.6,1.7-0.2,2.4,0.6c0,0,0,0.1,0,0.2c-1.1,0.8-2.2,0.7-2.8-0.5
		c-0.1-0.2,0.5-0.2,0.5,0c0.5,0,0.9,0,1.4,0.1C65.4,78.2,65.2,78.3,65.5,78.7c-0.2,0-0.4,0-0.6,0.1c0,0,0-0.1,0-0.1
		C65,78.4,65.6,78.4,65.5,78.7L65.5,78.7z M63.6,76.1c-0.1-0.1-0.2-0.2-0.3-0.3c0,0,0,0,0-0.1c0.3-0.6,1.9-0.4,2,0.2
		C65.6,76.8,63.7,76.1,63.6,76.1c-0.3-0.2,0.2-0.3,0.4-0.2c0.2,0.1,0.9,0.4,0.8-0.1c-0.7-0.1-1-0.1-0.7,0c0,0.1,0.1,0.1,0.1,0.2
		C64.2,76.2,63.7,76.2,63.6,76.1L63.6,76.1z"/>
	<path class="st1" d="M65.6,77c0,0,0,0.1,0,0.1c-0.2,0-0.3,0-0.5-0.1c0.1-0.1,0.2-0.3,0.3-0.5c0.1-0.1,0.4,0,0.5,0
		c0.2,0.1,0.4,0.1,0.6,0.1c0,0,0.2,0,0.2,0.1c-0.3,1.5-1.7,1.1-2.1,0c0-0.1,0.5-0.1,0.5,0c0,0.2,0.1,0.4,0.2,0.5
		c0.5,0.9,0.7-0.5,0.9-0.5c-0.3,0-0.6-0.1-0.8-0.2c0.2,0,0.3,0,0.5,0c-0.1,0.2-0.2,0.3-0.3,0.5c-0.1,0.1-0.6,0-0.5-0.1
		c0,0,0-0.1,0-0.1C65.1,76.8,65.7,76.9,65.6,77L65.6,77z M67.1,78.1c0.6-1.1,1.5-0.8,2.1,0c0,0,0,0.1,0,0.1
		c-0.8,0.6-1.6,0.4-2.2-0.3c-0.1-0.2,0.4-0.2,0.5-0.1c0.3,0.4,0.5-0.2,0.2,0.3C67.6,78.3,67.1,78.2,67.1,78.1L67.1,78.1z M65.1,75.5
		c0.8-0.4,1.2-0.6,1.9-0.1c0.1,0.1,0.1,0.1,0,0.2c-0.6,0.7-1.2,0.4-2,0c-0.3-0.1,0.1-0.4,0.3-0.3c0.5,0.2,0.7,0.1,0.1,0.4
		C65.2,75.9,64.8,75.6,65.1,75.5L65.1,75.5z"/>
	<path class="st1" d="M65.2,74c0.7-0.4,1.9-0.5,1.6,0.6c-0.4,1.2-1.5,0.1-1.8-0.5c-0.1-0.2,0.4-0.4,0.5-0.1c0.1,0.2,0.4,1,0.7,0.6
		c0.4-0.6-0.3-0.5-0.7-0.3C65.3,74.5,64.9,74.2,65.2,74L65.2,74z M69,76.7c-1,0.1-1.9,0-1.8-1.1c0-0.6,0.8-0.5,1.3-0.4
		c0.5,0.1,1.3,0.5,1.4,1.1c0.1,0.7-1.4,0.5-1.7,0.5c-0.4,0-0.3-0.3,0-0.3c0.8,0.1,1.5-0.1,0.6-0.6c-0.2-0.1-0.4-0.2-0.7-0.3
		c-0.7-0.2-0.3,1.1,0.7,0.9C69.2,76.3,69.4,76.6,69,76.7L69,76.7z M67.1,74.4c-0.1-1.2,1-1.1,1.9-0.9c0,0,0.1,0,0.1,0.1
		c-0.3,1-1.2,1.6-2.2,0.9c-0.1-0.1,0.4-0.1,0.5,0c0.6,0.4,0.9-0.2,1.1-0.6c-0.3,0-0.6,0-0.9,0c0,0.2,0,0.3,0,0.5
		C67.6,74.6,67.1,74.6,67.1,74.4L67.1,74.4z M69.7,74.6c0,0,0,0.1,0.1,0.1c0,0,0,0.1,0,0.1c-0.1,0.1-0.2,0.1-0.3,0.1
		c-0.1,0-0.4,0-0.3-0.1c0.1-0.4,0.1-1.3,0.7-1.2c0.5,0,0.6,0.5,0.7,0.8c0.1,0.3,0.2,0.8-0.3,0.9c-0.6,0.1-1-0.6-1.3-0.9
		c-0.1-0.1,0.4-0.2,0.5,0c0.1,0.2,0.3,0.4,0.5,0.6c0.2,0.2,0,0.1,0,0c0-0.2,0-0.4,0-0.6c0-0.2-0.1-0.4-0.2-0.5
		c0.2,0.2,0.2-0.2,0.1,0.3c-0.1,0.2-0.1,0.5-0.1,0.8c-0.1,0-0.2-0.1-0.3-0.1c-0.1,0-0.1,0-0.2-0.1C69.1,74.5,69.6,74.5,69.7,74.6
		L69.7,74.6z"/>
	<path class="st1" d="M70.2,77.5c-1.3-1.5,0.6-1.3,1.5-0.7c0,0,0,0,0,0.1c-0.7,0.9-1.4,0.6-2.2-0.1c-0.1-0.1,0.4-0.1,0.5-0.1
		c0.2,0.2,0.6,0.7,0.9,0.4c-0.2,0-0.5-0.1-0.7-0.1c0.1,0.2,0.2,0.4,0.4,0.5C70.8,77.5,70.3,77.6,70.2,77.5L70.2,77.5z M71.4,75.3
		c0,0,0,0.1,0,0.1c0,0.2-0.5,0.1-0.5,0c-0.1-0.1-0.1-0.2-0.2-0.3c0,0,0-0.1,0-0.1c1-0.6,1.8-0.3,2.4,0.5c0,0,0,0.1,0,0.1
		c-1.1,0.8-2.2,0.7-2.8-0.5c-0.1-0.1,0.5-0.2,0.5,0c0.3,0.6,2.1,0.8,1.5,0.2c-0.4-0.1-0.8-0.1-1.2-0.2
		C71.3,75.2,71.4,75.3,71.4,75.3c-0.2,0.1-0.3,0.1-0.5,0.1c0,0,0-0.1,0-0.1C70.9,75.1,71.4,75.1,71.4,75.3L71.4,75.3z M69.5,72.7
		c0,0-0.2-0.3-0.3-0.3c0,0,0,0,0,0c0.3-0.5,1.9-0.5,2,0.1c0.3,1-1.5,0.3-1.8,0.1c-0.1-0.1,0.4-0.1,0.5,0c0.2,0.2,0.8,0.5,0.8,0
		c0-0.4-0.9-0.2-0.7,0.2C70,72.8,69.5,72.8,69.5,72.7L69.5,72.7z"/>
	<path class="st1" d="M71.5,73.7c0,0,0,0.1,0,0.1c-0.2,0-0.3-0.1-0.5-0.1c0.1-0.1,0.2-0.3,0.3-0.5c0.1-0.1,0.4-0.1,0.5,0
		c0.2,0.1,0.4,0.1,0.6,0.2c0.1,0,0.2,0.1,0.2,0.1c-0.3,1.5-1.7,1.2-2.1,0c-0.1-0.2,0.5-0.2,0.5,0c0.1,0.3,0.2,0.5,0.4,0.7
		c-0.1-0.1,1.2-0.5,0.6-0.6c-0.2,0-0.5-0.1-0.6-0.2c0.1,0,0.3,0,0.5,0c-0.1,0.2-0.2,0.3-0.4,0.5c-0.1,0.1-0.6,0.1-0.5-0.1
		c0,0,0-0.1,0-0.1C71,73.4,71.6,73.5,71.5,73.7L71.5,73.7z M73,74.7c0.6-1.1,1.5-0.9,2.1,0v0c-0.8,0.6-1.6,0.4-2.3-0.3
		c0-0.1,0.5-0.1,0.5,0c0.2,0.4,0.6,0.4,1-0.1c-0.5-0.4-0.7-0.2-0.8,0.3C73.5,74.9,73,74.8,73,74.7L73,74.7z M70.9,72.2
		c0.8-0.4,1.2-0.6,2-0.1c0,0,0,0.1,0,0.1C72.3,72.9,71.6,72.6,70.9,72.2c-0.3-0.1,0.2-0.2,0.4-0.1c0.5,0.2,0.8,0,0.1,0.2
		C71.3,72.4,70.7,72.3,70.9,72.2L70.9,72.2z"/>
	<path class="st1" d="M71,70.7c0.7-0.4,1.9-0.5,1.6,0.6c-0.4,1.2-1.5,0.1-1.8-0.5c-0.1-0.2,0.4-0.3,0.5-0.1c0.1,0.1,0.4,1,0.7,0.6
		c0.3-0.5-0.3-0.5-0.7-0.3C71.2,71.1,70.8,70.9,71,70.7L71,70.7z M59.7,74.7c-1,0.1-1.9,0.1-1.9-1.1c0-0.6,0.9-0.5,1.3-0.4
		c0.5,0.1,1.3,0.5,1.4,1.1c0.1,0.6-1.4,0.5-1.7,0.5c-0.3,0-0.3-0.3,0-0.3c0.6,0.1,1.5,0,0.7-0.6c-0.2-0.1-0.4-0.2-0.6-0.3
		c-0.8-0.3-1.1,1.2,0.5,0.9C59.6,74.4,60,74.7,59.7,74.7L59.7,74.7z M57.6,72.5c-0.1-1.2,0.9-1.2,1.9-0.9c0.1,0,0.2,0.1,0.2,0.1
		c-0.3,1-1.1,1.7-2.1,1c-0.2-0.2,0.3-0.3,0.4-0.2c1.2,0.9,0.9-0.8,1-0.8c-0.9-0.2-0.8,0.4-0.8,0.8C58.2,72.7,57.6,72.6,57.6,72.5
		L57.6,72.5z M60.3,72.7c0,0,0,0.1,0.1,0.1c0,0,0,0,0,0.1C60.3,73,60.2,73,60.1,73c-0.1,0-0.3,0-0.3-0.1c0.1-0.4,0.1-1.3,0.7-1.2
		c0.5,0,0.6,0.5,0.7,0.8c0.1,0.3,0.2,0.8-0.3,0.9c-0.6,0.1-1-0.5-1.3-0.9c-0.1-0.1,0.5-0.1,0.5,0c0.1,0.2,0.3,0.4,0.5,0.6
		c0.1,0.1,0,0.2,0,0.1c0.1-0.2,0-0.5,0-0.7c0-0.2-0.1-0.3-0.2-0.5c0.1,0.2,0.2-0.2,0.1,0.2c-0.1,0.2-0.1,0.5-0.1,0.8
		c-0.1,0-0.2-0.1-0.3-0.1c-0.1,0-0.1-0.1-0.2-0.1C59.7,72.5,60.2,72.5,60.3,72.7L60.3,72.7z"/>
	<path class="st1" d="M60.8,75.5c-1.2-1.4,0.5-1.4,1.5-0.8c0,0,0.1,0.1,0.1,0.1c-0.8,1-1.4,0.6-2.2-0.1c-0.2-0.2,0.4-0.2,0.5-0.1
		c0.3,0.3,0.3,0.4,0.6,0.8C61.5,75.6,60.9,75.7,60.8,75.5L60.8,75.5z M62,73.3c0,0,0,0.1,0,0.1c0,0.2-0.5,0.1-0.6,0
		c-0.1-0.1-0.1-0.2-0.2-0.3c0,0,0-0.1,0-0.1c1-0.6,1.8-0.3,2.4,0.5c0,0,0,0.1,0,0.1c-1,0.8-2.2,0.7-2.8-0.5c-0.1-0.2,0.5-0.2,0.5,0
		c0.1,0.1,0.2,0.3,0.3,0.5c0.9,0.5,1.4,0.4,1.3-0.2c-0.4-0.1-0.8-0.1-1.2-0.2c0,0.1,0.1,0.2,0.1,0.2c-0.2,0-0.4,0-0.5,0v-0.1
		C61.5,73.1,62,73.1,62,73.3L62,73.3z M60,70.7c0-0.1-0.2-0.2-0.3-0.3c0,0,0-0.1,0-0.1c0.4-0.7,1.8-0.5,2,0.2
		C62.1,71.6,60.2,70.9,60,70.7c-0.3-0.2,0.2-0.3,0.4-0.2c0.1,0.1,0.9,0.5,0.8,0c-0.7-0.2-1-0.1-0.7,0c0,0.1,0.1,0.1,0.1,0.2
		C60.7,70.9,60.1,70.9,60,70.7L60,70.7z"/>
	<path class="st1" d="M62.1,71.7c0,0,0,0.1,0,0.1c-0.2-0.1-0.3-0.1-0.5-0.2c0.1-0.1,0.2-0.3,0.3-0.5c0.1-0.1,0.3-0.1,0.4-0.1
		c0.2,0.1,0.4,0.1,0.6,0.2c0.1,0,0.3,0.1,0.2,0.2c-0.3,1.5-1.7,1.2-2.1,0c-0.1-0.2,0.5-0.2,0.5,0c0.2,0.7,0.9,0.9,1.1,0
		c0.1,0.1,0.2,0.1,0.2,0.2c-0.3,0-0.6-0.1-0.9-0.2c0.1,0,0.3,0,0.4-0.1c-0.1,0.2-0.2,0.4-0.4,0.5c-0.1,0.1-0.6,0-0.5-0.2
		c0,0,0-0.1,0-0.1C61.6,71.4,62.2,71.5,62.1,71.7L62.1,71.7z M63.6,72.7c0.6-1.1,1.5-0.8,2.1,0.1c0,0,0,0,0,0.1
		c-0.8,0.6-1.6,0.5-2.3-0.2c-0.1-0.2,0.4-0.2,0.5-0.1c0.2,0.4,0.5,0.3,0.9-0.2c-0.4,0-0.6,0.2-0.7,0.5C64,73,63.5,72.9,63.6,72.7
		L63.6,72.7z M61.6,70.2c0.8-0.3,1.2-0.6,1.9-0.1c0.1,0.1,0.1,0.1,0,0.2c-0.6,0.7-1.2,0.4-2,0c-0.3-0.1,0.1-0.3,0.3-0.2
		c0.5,0.2,0.7,0.1,0.1,0.3C61.7,70.5,61.2,70.3,61.6,70.2L61.6,70.2z M61.5,68.8c0.6-0.3,1.9-0.7,1.7,0.3c-0.1,0.3-0.3,0.5-0.7,0.5
		c-0.6,0-0.9-0.5-1.1-0.9c0-0.1,0.5-0.1,0.5,0c0.1,0.2,0.4,1,0.7,0.5c0.2-0.5-0.1-0.6-0.6-0.3C61.9,69,61.5,68.9,61.5,68.8
		L61.5,68.8z M65.4,71.6c-1,0.1-1.9,0-1.8-1.1c0-0.6,0.8-0.5,1.3-0.4c0.5,0.1,1.3,0.5,1.4,1c0.1,0.7-1.4,0.5-1.7,0.5
		c-0.3,0-0.3-0.3,0-0.3c0.8,0.1,1.5-0.1,0.6-0.7c-0.2-0.1-0.4-0.2-0.7-0.3c-0.8-0.2-0.2,1.1,0.7,0.9C65.6,71.3,65.8,71.6,65.4,71.6
		L65.4,71.6z M63.4,69.3c-0.1-1.2,0.9-1.3,1.9-1c0.1,0,0.2,0.1,0.2,0.2c-0.3,1-1.1,1.8-2.1,1c-0.2-0.2,0.2-0.3,0.4-0.2
		c0.8,0.1,1.1-0.2,1-0.7c-0.7,0.1-0.9,0.3-0.8,0.8C64,69.6,63.5,69.6,63.4,69.3L63.4,69.3z M66.1,69.6c0,0,0,0.1,0.1,0.1
		c0,0,0,0,0,0.1c-0.1,0.1-0.2,0.1-0.3,0.1c-0.1,0-0.3,0-0.3-0.1c0.1-0.4,0.1-1.3,0.7-1.2c0.5,0,0.6,0.5,0.7,0.8
		c0.1,0.3,0.2,0.8-0.3,0.9c-0.6,0.1-1-0.5-1.3-0.9c-0.1-0.1,0.5-0.1,0.5,0c0.1,0.2,0.3,0.4,0.5,0.6c0.1,0.1,0,0.2,0,0.1
		c0.1-0.2,0-0.5,0-0.7c0-0.2-0.1-0.3-0.2-0.5c0.1,0.2,0.2-0.1,0.1,0.2c-0.1,0.2-0.1,0.5-0.1,0.8c-0.1,0-0.2-0.1-0.3-0.1
		c-0.1,0-0.1-0.1-0.2-0.1C65.5,69.4,66,69.4,66.1,69.6L66.1,69.6z"/>
	<path class="st1" d="M66.6,72.4c-1.2-1.5,0.6-1.3,1.5-0.7c0,0,0,0,0,0.1c-0.7,0.9-1.4,0.6-2.2-0.1c-0.1-0.1,0.4-0.1,0.5-0.1
		c0.2,0.2,0.6,0.7,0.9,0.4c-0.2,0-0.5-0.1-0.7-0.1c0.1,0.2,0.2,0.4,0.4,0.5C67.2,72.5,66.7,72.5,66.6,72.4L66.6,72.4z M67.8,70.2
		c0,0,0,0.1,0,0.1c0,0.1-0.5,0-0.5,0c-0.1-0.1-0.1-0.2-0.2-0.3v0c1-0.6,1.8-0.3,2.5,0.5v0c-1,0.8-2.3,0.7-2.8-0.5
		c0-0.1,0.5-0.1,0.5,0c0.2,0.5,0.5,1.1,1.5,0.6c0.8-0.4-1.5-1.2-0.9-0.3c-0.2,0-0.3,0-0.5,0c0,0,0-0.1,0-0.1
		C67.2,70.1,67.8,70.1,67.8,70.2L67.8,70.2z M65.8,67.6c0,0-0.2-0.3-0.3-0.3c0,0,0,0,0,0c0.3-0.6,1.8-0.5,2,0.1
		c0.3,1-1.5,0.3-1.8,0.1c-0.1-0.1,0.4-0.1,0.5,0c0.2,0.1,0.8,0.5,0.8,0c0-0.4-0.9-0.2-0.7,0.2C66.4,67.7,65.9,67.7,65.8,67.6
		L65.8,67.6z"/>
	<path class="st1" d="M67.9,68.6c0,0,0,0.1,0,0.1c-0.2,0-0.4,0-0.5-0.1c0.1-0.1,0.2-0.3,0.3-0.5c0.1-0.1,0.4,0,0.5,0
		c0.2,0.1,0.4,0.1,0.6,0.2c0,0,0.2,0,0.2,0.1c-0.3,1.5-1.7,1.1-2.1,0c0,0,0.5-0.1,0.6,0c0,0.1,0.3,1.1,0.7,0.7
		c0.1-0.1,0.5-0.7,0.2-0.7c-0.2,0-0.5-0.1-0.7-0.2c0.2,0,0.3,0,0.5,0c-0.1,0.2-0.2,0.3-0.4,0.5c-0.1,0.1-0.6,0-0.5-0.1l0-0.1
		C67.4,68.4,67.9,68.5,67.9,68.6L67.9,68.6z M69.4,69.6c0.6-1.1,1.5-0.9,2.1,0c0,0.1,0,0.1,0,0.2c-0.8,0.6-1.6,0.5-2.2-0.3
		c-0.2-0.2,0.3-0.3,0.5-0.1c1.4,0,1.4,0.1,0.2,0.4C69.8,69.9,69.3,69.8,69.4,69.6L69.4,69.6z M67.3,67.1c0.8-0.4,1.2-0.6,2-0.1
		c0,0,0,0,0,0.1C68.7,67.8,68,67.5,67.3,67.1C67,67,67.5,67,67.7,67c0.2,0.2,0.5,0.2,0.7-0.1c-0.2,0.1-0.4,0.2-0.6,0.3
		C67.6,67.3,67.1,67.2,67.3,67.1L67.3,67.1z"/>
	<path class="st1" d="M67.4,65.7c0.6-0.4,2-0.6,1.6,0.5c-0.4,1.1-1.5-0.1-1.8-0.5c-0.1-0.1,0.5-0.2,0.5,0c0.1,0.2,0.4,0.9,0.7,0.6
		c0.4-0.5-0.1-0.6-0.6-0.3C67.7,65.9,67.2,65.8,67.4,65.7L67.4,65.7z M61.8,76.6c-0.7-0.5-0.4-1.1,0.4-1c0.7,0,1.1,1,0.1,1
		c-0.2,0-0.5-0.2-0.1-0.2c0-0.1,0.1-0.2,0.1-0.2c-0.4,0-0.4,0.1-0.1,0.4C62.5,76.6,61.9,76.7,61.8,76.6L61.8,76.6z M64.1,74.8
		c-0.6,0.3-1.3,0.1-1.5-0.4c-0.2-0.6,0.9-0.8,1.3-0.6c1.2,0.5,0.5,2.1-0.6,1.2c-0.2-0.1,0.4-0.2,0.5-0.1C64,75,64,74.6,64,74.6
		c0-0.1,0-0.3-0.1-0.4c-0.2-0.4-0.3-0.2-0.2,0.5C63.8,74.6,64.3,74.7,64.1,74.8L64.1,74.8z M68.1,73.2c-1-0.5,0.5-1.6,1.3-0.6v0
		c-0.4,0.4-0.7,0.5-1.2,0.4c-0.3,0-0.3-0.2,0-0.2c0.6,0,0.7-0.1,0.2-0.3c-0.1,0.2,0,0.3,0.2,0.5C68.7,73.2,68.2,73.3,68.1,73.2
		L68.1,73.2z M63.8,82.4c-1.1-0.2-0.1-1.3,0.8-1.1c1.2,0.3,0,1.6-1.1,1c-0.3-0.2,0.1-0.3,0.3-0.2c0.1-0.4,0.2-0.4,0.2,0
		C64.3,82.2,64.1,82.4,63.8,82.4L63.8,82.4z"/>
	<path class="st1" d="M64.6,83.5c-1-0.5,0.3-1.6,1.1-1c0.9,0.7-0.7,1.9-1.3,0.7c-0.1-0.2,0.5-0.2,0.5,0c0.1-0.1,0.3-0.2,0.5-0.4
		c-0.5-0.2-0.7,0-0.5,0.5C65.2,83.5,64.8,83.6,64.6,83.5L64.6,83.5z M67,82.2c-1.7,0.2-1.5-1.9-0.2-1.5c1.2,0.4,0.5,2-0.8,1.3
		c-0.2-0.1,0.3-0.2,0.4-0.1c0.4,0.2,0.4-0.2,0.4-0.4c0-1.2-1.4,0.7-0.1,0.6C66.9,82,67.4,82.2,67,82.2L67,82.2z M68,80.5
		c-1.9-0.1,0.1-2,0.7-1.1c0.5,0.8-1.2,1.9-1.5,0.6c-0.1-0.2,0.5-0.2,0.5,0c0.1,0.3,0.2,0.3,0.4,0c0.1-0.1,0.1-0.2,0.1-0.4
		c0.1-0.6-0.8,0.5-0.2,0.6C68.3,80.3,68.3,80.5,68,80.5L68,80.5z M69.5,79.7c-0.9-0.7,0.3-1.6,1.2-1.3c0.3,0.1,0.7,0.6,0.3,0.9
		c-0.5,0.3-0.9,0.3-1.4,0.1c-0.3-0.1,0.1-0.3,0.3-0.2c0.1-0.2,0.1-0.4,0.2-0.5c-0.4,0.3-0.5,0.6-0.1,0.9
		C70.1,79.7,69.6,79.8,69.5,79.7L69.5,79.7z M72.2,80.4c-1.6,0.2-0.7-1.9,0.2-1.2c0.8,0.6-0.2,1.9-1.1,1c-0.2-0.2,0.3-0.2,0.5-0.1
		c0.1,0.2,0.2,0.2,0.3,0c0.5-0.8-0.4,0.1,0,0C72.4,80.1,72.6,80.4,72.2,80.4L72.2,80.4z"/>
	<path class="st1" d="M67.8,81.7c-0.2-0.5,0.2-1.2,0.8-0.9c1,0.5-0.1,1-0.7,0.9c-0.4-0.1-0.1-0.2,0.2-0.2c0.1,0.1,0.2,0.1,0.2,0.2
		C68.4,81.9,67.8,81.9,67.8,81.7L67.8,81.7z M66.3,80.3c-0.8-0.6,0-0.7,0.6-0.6c0.2,0,0.5,0.3,0.3,0.5c-0.3,0.3-0.6,0.3-1,0.2
		C65.9,80.4,65.9,80.2,66.3,80.3c0.1,0,0.4,0,0.5,0C66.8,80.3,66.4,80.3,66.3,80.3L66.3,80.3z M69.8,72c-1.2-0.4-0.7-1.8,0.4-1.2
		c0.3,0.2,0.5,0.8,0,1c-0.4,0.1-0.8,0-1.1-0.2c-0.1-0.1,0.4-0.1,0.5,0c0.3,0.2,0.3-0.1,0.4-0.3c0-0.4-0.1-0.3-0.3,0.2
		c0.1,0.2,0.3,0.4,0.6,0.5C70.4,72,69.9,72,69.8,72L69.8,72z M57.5,70.5c-0.8-0.6-0.1-1.5,0.8-1.2c1,0.4-0.2,1.5-1.1,0.9
		c-0.3-0.2,0.2-0.3,0.4-0.2c0.1,0.1,0.2,0.2,0.2,0.2C58.2,70.5,57.6,70.6,57.5,70.5L57.5,70.5z"/>
	<path class="st1" d="M56.9,71.5c-0.1-0.7,0.6-1.5,1.2-0.7c0.5,0.7-0.9,0.8-1.4,0.5c-0.2-0.2,0.3-0.2,0.5-0.1
		c0.4-0.4,0.4-0.3,0.2,0.3C57.5,71.7,56.9,71.7,56.9,71.5L56.9,71.5z M59.6,69.7c-1.5,0.2-0.9-1.8,0.6-1.2c0.7,0.3-1,2.3-1.6,0.5
		c-0.1-0.2,0.5-0.2,0.5,0c0.1,0.4,0.3,0.6,0.6,0.2c0.1-0.1,0.1-0.2,0.1-0.4c0.1-0.8-1.3,0.7-0.5,0.6C59.5,69.5,60,69.7,59.6,69.7
		L59.6,69.7z M61.1,67.9c0,0.1,0,0.1,0,0.2c0,0.1-0.1,0.2-0.2,0.2c-0.1,0-0.2,0-0.3,0c-0.1,0-0.2-0.1-0.2-0.1
		c-0.3-1.6,2.1-0.7,1.6,0c-0.5,0.7-2.1,0.4-1.8-0.5c0.1-0.2,0.6-0.1,0.6,0c-0.1,0.2,0,0.4,0.3,0.5c0.6-0.5,0.4-0.6-0.3-0.2
		c-0.1,0.1-0.1,0.1-0.2,0.2c0-0.1,0-0.2,0-0.3C60.6,67.7,61.2,67.7,61.1,67.9L61.1,67.9z"/>
	<path class="st1" d="M63.1,68.2c-1.7-1.3,1.5-1.4,1.1-0.3c-0.3,0.8-2.2,0.5-1.7-0.6c0.1-0.2,0.6-0.1,0.5,0.1
		c-0.2,0.3-0.1,0.5,0.2,0.5c0.4-0.2,0.6-0.2,0.4,0C63.8,68.2,63.3,68.3,63.1,68.2L63.1,68.2z"/>
	<path class="st1" d="M64.5,68c-0.7-0.8,0.6-1.6,1.1-0.8c0.5,0.8-0.9,1.3-1.4,0.5c-0.1-0.2,0.4-0.3,0.5-0.1c0.4,0,0.5,0.1,0.3,0.3
		C65.2,68.1,64.6,68.2,64.5,68L64.5,68z M69.3,68.4c-1.5-1.6,2-1.3,1.5-0.4c-0.3,0.6-2.3,0.6-1.9-0.3c0.1-0.1,0.6-0.1,0.5,0.1
		c-0.2,0.5,0.5,0.5,0.8,0.2c0.3-0.3-1.4-0.8-0.5,0.3C70,68.4,69.4,68.5,69.3,68.4L69.3,68.4z M73.7,73.7c-0.5,0-1.7-0.4-1.1-1.1
		c0.5-0.5,1-0.6,1.6-0.4s0.4,1.1-0.2,1.2c-0.5,0.1-1-0.1-1.4-0.5c0-0.1,0.5-0.1,0.5,0c0.8,1,0.8-0.3,0.7-0.6
		c-0.5-0.1-0.8,0.1-0.9,0.5c0,0.4,0.2,0.6,0.7,0.6C74,73.5,74,73.7,73.7,73.7L73.7,73.7z M42.3,68.2c-0.4,0-0.8,0-1-0.4
		c-0.2-0.4,0.5-0.7,0.8-0.8c0.5-0.1,0.8,0.2,1,0.6c0.2,0.5-0.9,0.7-1.2,0.7c-0.3,0-0.5-0.3-0.1-0.3c-0.1-0.5,0.1-0.6,0.4-0.1
		C42.5,67.9,42.7,68.2,42.3,68.2L42.3,68.2z M44.1,67.8c-0.3-0.1-0.3-0.1-0.6-0.3c0,0,0,0,0-0.1c0.6-0.7,1.3-0.6,1.9,0
		c0,0,0,0,0,0.1c-0.5,0.6-1.1,0.6-1.6,0c-0.1-0.1,0.4-0.2,0.5-0.1c0.5-0.4,0.6-0.3,0.1,0.2C44.8,67.8,44.3,67.9,44.1,67.8L44.1,67.8
		z"/>
	<path class="st1" d="M42.2,66.8c0.3-0.7,1.2-1.2,1.4-0.2c0.1,0.3,0,0.6-0.3,0.6c-0.5,0-0.8-0.4-1-0.7c0-0.1,0.5-0.1,0.5,0
		c0.3,0.4,0.3,0.7,0.3,0.1c0-0.1-0.1-0.3-0.1-0.4c0.2,0,0.2,0.1,0,0.2c-0.1,0.1-0.1,0.2-0.2,0.4C42.7,67,42.2,66.9,42.2,66.8
		L42.2,66.8z M43.7,66.4c-0.6-1.1,0.8-1.1,1.4-0.6c0,0,0.1,0.1,0,0.1C44.8,66.6,44.4,66.5,43.7,66.4c-0.3-0.1,0-0.4,0.2-0.3
		c0.5,0.1,0-0.1,0.3,0.3C44.4,66.5,43.9,66.6,43.7,66.4L43.7,66.4z"/>
	<path class="st1" d="M41.1,66.4c-0.7-0.9,1.4-0.9,1.5-0.2c0.1,0.8-1.5,0.9-1.5,0c0-0.1,0.6-0.1,0.6,0c0,0.3,0.3,0.5,0.4,0.1
		c0.1-0.4-0.9-0.6-0.5,0.1C41.7,66.4,41.2,66.5,41.1,66.4L41.1,66.4z M46,69.1c-0.8-2.1,3.1-0.7,0.8,0.2c-0.1,0-0.3,0-0.4-0.1
		c-0.2-0.2-0.3-0.5-0.4-0.7c-0.1-0.2,0.5-0.2,0.5,0c0.1,0.2,0.2,0.5,0.4,0.6c-0.1,0-0.3,0-0.4-0.1c0.3-0.1,0.7-0.2,0.6-0.6
		c-0.1-0.2-0.4-0.3-0.6,0c0,0.2,0,0.4,0.1,0.6C46.6,69.3,46.1,69.3,46,69.1L46,69.1z M46.1,67.5c-0.7-1.2,0.8-1.4,1.4-0.5
		c0,0,0,0.1,0,0.1c-0.5,0.6-0.9,0.6-1.5,0.3c-0.3-0.1,0.1-0.3,0.3-0.2c0.7-0.5,0.8-0.4,0.3,0.2C46.7,67.6,46.2,67.7,46.1,67.5
		L46.1,67.5z M46.1,66c-0.4-0.1-0.9-0.4-0.4-0.8c0.5-0.5,1.2,0,1.5,0.3c0,0,0,0.1,0,0.1c-0.3,0.7-0.7,0.7-1.4,0.3
		c-0.3-0.2,0.1-0.4,0.3-0.3c0.1,0,0.1,0,0.2-0.1C46.6,65.7,46.4,66,46.1,66L46.1,66z M42.2,65.1c0.2-0.9,1.8-0.6,0.7,0.6
		c-0.1,0.1-0.3,0.1-0.4,0c-0.4-0.1-0.2-0.2-0.4-0.5c-0.2-0.2,0.3-0.3,0.5-0.1c0.1,0.1,0.1,0.2,0.1,0C42.7,65.4,42.2,65.4,42.2,65.1z
		 M44,65.1c-0.7-1,0.6-1.4,1.2-0.6c0,0,0,0,0,0.1c-0.4,0.4-0.7,0.5-1.3,0.3c-0.3-0.1-0.1-0.3,0.2-0.2c0.2,0,0.4,0.1,0.5,0.4
		C44.7,65.2,44.1,65.2,44,65.1L44,65.1z M45.6,64.4c-0.3-0.2-0.8-0.8-0.1-1c0.6-0.1,1,0,1.3,0.4c0,0,0,0,0,0
		c-0.3,0.7-0.8,0.5-1.4,0.3c-0.2-0.1,0.3-0.1,0.4-0.1c0-0.2,0-0.3,0-0.5c-0.2,0.3-0.1,0.5,0.2,0.7C46.2,64.4,45.7,64.4,45.6,64.4
		L45.6,64.4z"/>
	<path class="st1" d="M46.7,64.7c-0.4-0.8,1.5-0.2,1.8,0v0c-0.7,0.7-1.6,0.5-2-0.4c0-0.1,0.5-0.1,0.5,0c0,0.2,0.1,0.4,0.2,0.3
		C47.3,64.8,46.8,64.8,46.7,64.7L46.7,64.7z"/>
	<path class="st1" d="M47.2,66.2c0.1-1.1,1.1-1,1.6-0.2c0,0,0,0,0,0.1c-0.6,0.5-1.4,0.6-2,0c-0.1-0.1,0.4-0.2,0.5-0.1
		c0.5-0.3,0.7-0.2,0.5,0.2C47.8,66.3,47.2,66.3,47.2,66.2L47.2,66.2z M47.2,62.7c-0.8-1.6,0.6-0.9,1.5-0.5c0.1,0,0.2,0.1,0.1,0.2
		c-0.7,0.4-1.4,0.4-2,0c-0.2-0.2,0.2-0.3,0.4-0.2c0.4,0.2,0.7,0.2,1,0.1c0,0,0.1,0.1-0.2,0c-0.7-0.4-0.5-0.1-0.3,0.4
		C47.8,62.8,47.3,62.8,47.2,62.7L47.2,62.7z"/>
	<path class="st1" d="M45.8,62.9c0,0.1,0,0.1,0,0.2c-0.2,0-0.4,0-0.5-0.1c0.1-0.3,0.2-0.9,0.7-1c0.5-0.1,0.9,0,1.1,0.4
		c0.3,0.4-0.1,0.9-0.5,1.1c-0.6,0.2-1.2-0.2-1.5-0.5c-0.2-0.1,0.4-0.2,0.5-0.1c0.8,0.7,1.1,0.3,1.1-0.2c0-0.3-0.3-0.5-0.5-0.2
		c-0.2,0.2-0.2,0.5-0.3,0.7c-0.1,0.1-0.6,0.1-0.5-0.1c0-0.1,0-0.1,0-0.2C45.3,62.7,45.8,62.8,45.8,62.9L45.8,62.9z M48,64.5
		c-1.3-1.3,0.1-1.8,1.4-1.2c0.1,0,0.2,0.1,0.1,0.2c-0.7,1-1.8,1-2.4,0c-0.1-0.2,0.4-0.2,0.5-0.1c0.1,0.1,0.1,0.2,0.2,0.3
		c0.8,0.2,1.1,0.1,1.1-0.3c-0.3,0-0.6,0.1-0.8,0.1c0.1,0.3,0.2,0.6,0.5,0.8C48.7,64.6,48.1,64.6,48,64.5L48,64.5z M48.2,70
		c-0.7-0.6-0.9-1.1-0.5-1.9c0-0.1,0.3-0.1,0.3-0.1c0.9,0.2,1.9,0.8,1.4,1.8c-0.4,0.8-1.6,0.1-2-0.2c-0.2-0.1,0.4-0.2,0.5-0.1
		c0.7,0.6,1.2,0.3,1-0.5c-0.1-0.2-0.7-1-1-0.2c-0.1,0.5,0.4,0.8,0.7,1.1C48.8,70,48.3,70.1,48.2,70L48.2,70z"/>
	<path class="st1" d="M48.7,67.2c-0.5,0-0.7-0.1-0.9-0.4c-0.1-0.1,0.2-0.1,0.2-0.1c0.7,0,2.5,0.2,1.5,1.2c-0.8,0.8-1.8,0-2.2-0.7
		c-0.1-0.1,0.5-0.2,0.5,0c0.2,0.4,0.7,1.1,1.3,0.5c0.7-0.6-1-0.7-0.3-0.7C49.1,67,49.1,67.2,48.7,67.2L48.7,67.2z M50.4,66.4
		c-1-0.3-1.4-0.7-0.8-1.6c0.1-0.1,0.3-0.1,0.4-0.1c0.6,0.4,0.9,0.7,1.1,1.4c0,0.1-0.1,0.2-0.1,0.2c-0.9,0.3-1.3,0-1.8-0.7
		c-0.2-0.2,0.3-0.3,0.5-0.1c0-0.1,1,1,0.9,0.4c-0.1-0.5-0.4-0.6-0.8-0.9c0.1,0,0.3,0,0.4-0.1c-0.4,0.4-0.2,0.8,0.5,1.1
		C50.9,66.2,50.7,66.5,50.4,66.4L50.4,66.4z"/>
	<path class="st1" d="M49.6,64.4c-0.5,0-0.7,0-0.9-0.4c0,0,0-0.1,0-0.1c0.6-0.4,1.8-0.7,1.9,0.3c0.1,1.3-1.6,0.2-1.9-0.1
		c-0.2-0.2,0.4-0.2,0.5-0.1c0.2,0.3,0.8,0.9,0.8,0.2c0.1-0.7-1.1,0-0.5,0C49.7,64.1,49.9,64.4,49.6,64.4L49.6,64.4z M41.9,55.5
		c0.5,1.1-0.4,1.4-1.5,1.2c-0.1,0-0.2-0.1-0.2-0.2c0.1-0.9,0.8-1.2,1.7-1.2c0.3,0,0.3,0.3,0,0.3c-0.3,0.2-0.7,0.4-1.1,0.6
		c0.6-0.1,0.8-0.4,0.5-0.8C41.3,55.3,41.8,55.3,41.9,55.5L41.9,55.5z M45.4,55.7c-0.2,0.7-0.2,1.1-1.1,1.2c-0.1,0-0.4,0-0.4-0.1
		c-0.1-0.8,0.5-0.9,1.2-1.2c0.2-0.1,0.7,0.1,0.4,0.2c-0.5,0.2-1.1,0.4-1,1c-0.1,0-0.3-0.1-0.4-0.1c0.7-0.1,0.6-0.5,0.8-1
		C44.9,55.4,45.4,55.5,45.4,55.7L45.4,55.7z"/>
	<path class="st1" d="M46.5,56.6c-0.1,0.7-0.9,1.4-1.5,0.6C44.2,56.3,46,56.4,46.5,56.6c0.4,0-0.1,0.1-0.3,0.1
		c-1.6-0.4-0.6,1.4-0.3-0.1C46,56.4,46.5,56.5,46.5,56.6L46.5,56.6z M41.4,57.3c0.6-0.7,1.3-1.2,2.1-0.5c0.5,0.5,0.1,0.9-0.4,1.1
		c-0.5,0.2-1.3,0.4-1.8,0.2c-0.7-0.3,0.4-1.2,0.6-1.4c0.1-0.1,0.7,0,0.5,0.2c-0.3,0.2-0.7,0.5-0.8,0.8c-0.1,0.3,0.8,0,0.8,0
		c0.2-0.1,0.5-0.2,0.7-0.4c0.5-0.6-0.9-0.4-1.3,0C41.8,57.6,41.3,57.4,41.4,57.3L41.4,57.3z"/>
	<path class="st1" d="M44.7,57.6c0.9,0.6,0.5,1.2-0.4,1.7c-0.1,0.1-0.4,0.1-0.5-0.1c-0.6-0.8-0.6-1.6,0.5-1.8c0.2,0,0.6,0.2,0.2,0.2
		c-1,0.2-0.6,1.1-0.2,1.6c-0.2,0-0.3,0-0.5-0.1c0.7-0.4,1.2-0.9,0.3-1.5C44.1,57.5,44.6,57.4,44.7,57.6L44.7,57.6z M42.8,59
		c-0.1,0-0.1,0-0.2-0.1c-0.1,0-0.2-0.1-0.2-0.2c0-0.1,0-0.1,0-0.1c0.1-0.1,0.4-0.1,0.5,0c0.1,0.2,1,0.9,0.5,1.2
		c-0.4,0.2-0.8,0-1.2-0.2c-0.2-0.1-0.8-0.4-0.7-0.7c0.2-0.5,1.3-0.2,1.6-0.2c0.3,0,0.3,0.3,0,0.3c-0.1,0-1.1-0.1-1,0.1
		c0.1,0.1,0.3,0.2,0.5,0.3c0.9,0.5,0.1-0.4-0.2-0.7c0.2,0,0.3,0,0.5,0l0,0C43.3,58.8,43,59.1,42.8,59L42.8,59z M39.8,57.7
		c0.5,0,1,0,1.4,0.4c0.4,0.5-1,0.8-1.3,0.9c-0.1,0-0.4,0-0.5-0.1c-0.3-1,0.5-1,1.4-1.1c0.1,0,0.6,0.1,0.2,0.2c-0.8,0-1.3,0.2-1.1,1
		c-0.1,0-0.3-0.1-0.5-0.1c0.4-0.1,2.2-0.9,0.4-1C39.7,57.8,39.4,57.7,39.8,57.7L39.8,57.7z"/>
	<path class="st1" d="M40.9,59.6C40.9,59.6,40.9,59.6,40.9,59.6c-0.1-0.1,0.2-0.1,0.3-0.1c0.2,0,0.3,0.1,0.5,0.1c0,0,0.1,0,0.1,0.1
		c-0.2,1-1,1.1-2,1c0,0-0.3,0-0.3-0.1c0.1-1.4,1.2-1.6,2.4-1.3c0.2,0.1-0.3,0.1-0.4,0.1c-1-0.3-1.4,0.6-1.4,1.3
		c-0.1,0-0.2-0.1-0.3-0.1c0.6,0.1,1,0,1.3-0.5c0.1-0.2,0.2-0.5-0.1-0.5c0.1,0,0.2,0,0.4-0.1c0,0,0,0,0.1,0.1
		C41.5,59.7,41.1,59.7,40.9,59.6L40.9,59.6z M44.4,60.2c0.1,0,0.3,0,0.5,0c0.1,0,0.2,0.1,0.2,0.1c0.3,0.6-0.9,1.5-1.6,1.1
		C42.6,60.9,43.7,60.3,44.4,60.2c0.2-0.1,0.6,0.2,0.2,0.3c-0.4,0-0.6,0.2-0.9,0.5c0.5,0,0.7-0.1,0.9-0.4c-0.1,0-0.3,0-0.4,0
		C43.8,60.4,44.1,60.1,44.4,60.2L44.4,60.2z"/>
	<path class="st1" d="M42.2,60.8c0,0,0-0.1,0-0.1c0.2,0,0.3,0,0.6,0c0,0.2,0.1,0.3,0.1,0.5c0,0.1,0,0.1-0.1,0.1
		c-0.2,0.1-0.5,0.2-0.6,0.4c-0.1,0.1-0.4,0.1-0.5,0c-1.1-1.3,0.3-1.6,1.5-1.2c0.3,0.1-0.1,0.2-0.3,0.2c-1.1,0.1-1.3,0.4-0.7,0.9
		l-0.5,0c0.5-0.4,0.6-0.3,0.5-0.9c0-0.2,0.5-0.1,0.6,0c0,0,0,0.1,0,0.1C42.8,60.9,42.3,60.9,42.2,60.8L42.2,60.8z M40.4,61.4
		c0.5,1.1-0.4,1.4-1.5,1.2c-0.1,0-0.2-0.1-0.2-0.1C38.8,61.5,39.5,61.3,40.4,61.4c0.4-0.1,0.3,0.2,0,0.2c-0.4,0.2-0.7,0.4-1.1,0.6
		c0.6-0.1,0.8-0.4,0.5-0.8C39.8,61.2,40.4,61.2,40.4,61.4L40.4,61.4z M43.9,61.6c-0.2,0.7-0.2,1-1.1,1.2c-0.1,0-0.4,0-0.4-0.1
		c-0.1-0.8,0.5-0.9,1.2-1.2C43.7,61.4,44.3,61.6,43.9,61.6c-0.5,0.2-1.1,0.4-0.9,1c-0.1,0-0.3-0.1-0.4-0.1c0.7-0.1,0.6-0.5,0.8-1
		C43.4,61.4,44,61.5,43.9,61.6L43.9,61.6z"/>
	<path class="st1" d="M45,62.6c-0.1,0.8-0.8,1.4-1.5,0.7c-1-1,1-1,1.5-0.8c0.4,0.1,0.1,0.4-0.2,0.3c-0.4-0.1-1.3-0.3-0.9,0.3
		c0.3,0.5,0.5-0.3,0.6-0.5C44.5,62.3,45.1,62.3,45,62.6L45,62.6z M45.7,58.1c0.5-0.1,1.4,0,1.2,0.6c-0.1,0.5-1.2,0.3-1.5,0.1
		c-0.6-0.3,0.9-1.9,1.6-0.6c0.1,0.1-0.5,0.1-0.5,0c-0.1-0.3-0.2-0.3-0.5-0.1c-0.1,0.1-0.2,0.2-0.2,0.3c0,0.4,0.1,0.3,0.1-0.2
		C45.8,58.3,45.4,58.1,45.7,58.1L45.7,58.1z M45,59.1c1.3,0.1,0.9,1.5-0.1,1.1c-1.1-0.4-0.4-1.4,0.6-1.1c0.4,0.1,0.1,0.4-0.2,0.3
		c-0.1,0-0.3,0.1-0.4,0.1c0.1,0.3,0.1,0.3,0-0.1C44.6,59.3,44.6,59,45,59.1L45,59.1z M41.3,62.1c0.6,0,1.3,0.3,1.1,1
		c-0.1,0.5-1.2,0.6-1.6,0.3c-0.7-0.6,1-2.1,1.5-1c0.1,0.2-0.5,0.2-0.5,0c-0.1-0.3-0.5,0.3-0.6,0.3c-0.5,0.7,1.6-0.4,0.1-0.4
		C41.1,62.4,40.9,62.1,41.3,62.1L41.3,62.1z M54.2,64.2c0.7,0.9-1.9,1.3-1.1-0.1c0.1-0.1,0.6,0,0.5,0.1c-0.3,0.6,0.4,0.5,0,0
		C53.6,64.1,54.1,64,54.2,64.2L54.2,64.2z M65.9,64.8c0.9,0.1,1.4,0.5,1.5,1.3c0,0.1-0.1,0.2-0.1,0.2c-0.9,0.2-2.3-0.6-1.2-1.3
		c0.2-0.1,0.7,0,0.5,0.2c0.6,1,0.4,1-0.7,0C65.5,65.1,65.5,64.8,65.9,64.8L65.9,64.8z M64.7,65.8c0.5,0,0.9,0,1,0.5
		c0,0.1-0.1,0.1-0.1,0.1c-0.8,0.1-1.8-0.1-0.9-0.9c0.1-0.1,0.6,0,0.5,0.1c-0.1,0.1-0.3,0.2-0.3,0.4C64.6,66.1,64.4,65.8,64.7,65.8
		L64.7,65.8z M68,63.2c0.4,0.1,1.5,0.4,1.1,1c-0.3,0.5-1,0.3-1.5,0.1c0,0-0.1,0-0.1-0.1c0.1-0.7,0.7-1,1.4-1c0.3,0,0.3,0.2,0,0.2
		c-0.2,0.1-0.5,0.2-0.7,0.3c0.6,0.4,0.5,0.3-0.4-0.3C67.4,63.4,67.7,63.2,68,63.2L68,63.2z M69.5,49.4c0.6-0.1,2.2,0.4,1.2,0.9
		c-1,0.5-1.8-0.3-0.9-1.1c0.1-0.1,0.6,0,0.5,0.1c-0.2,0.2-0.3,0.3-0.4,0.6c0.1,0,0.3,0.1,0.4,0.1c0.1-0.4,0-0.6-0.5-0.5
		C69.8,49.7,69.2,49.5,69.5,49.4L69.5,49.4z M70.5,52.7c-0.2,0.6-0.5,0.8-1.2,0.7c-0.1,0-0.2-0.2-0.1-0.3c0.3-0.3,0.7-0.5,1.2-0.6
		c0.3,0,0.6,0.3,0.2,0.3c-0.4,0-0.7,0.2-1,0.5c0-0.1-0.1-0.2-0.1-0.3c0.3-0.1,0.4-0.2,0.5-0.5C70.1,52.4,70.6,52.5,70.5,52.7
		L70.5,52.7z M69.9,54.1c0.4,0.3,0.6,0.6,0.2,1c-0.1,0.1-0.4,0.1-0.5,0c-0.7-0.6-0.4-1.2,0.5-1.3c0.3,0,0.5,0.3,0.1,0.3
		c0,0.2-0.1,0.5-0.2,0.7c-0.1,0-0.3,0-0.5,0c0-0.2-0.1-0.5-0.1-0.7C69.2,54.1,69.7,53.9,69.9,54.1L69.9,54.1z"/>
	<path class="st1" d="M67.8,54.1c0.8-0.2,1.8,0.3,0.8,0.9c-0.9,0.5-1.1-0.6-0.2-1c0.1-0.1,0.6,0,0.5,0.1c-0.1,0.1-0.3,0.2-0.4,0.2
		c-0.2,0.5-0.2,0.4-0.2-0.1C68,54.3,67.5,54.1,67.8,54.1L67.8,54.1z"/>
	<path class="st1" d="M66.5,55c0.3-0.1,1.4-0.5,1.4,0.2c0,0.7-1,0.8-1.5,0.7c-0.1,0-0.2-0.1-0.2-0.2c0.1-0.3,0.2-0.5,0.5-0.7
		c0.2-0.1,0.7,0,0.5,0.2c-0.1,0-0.1,0.1-0.2,0.1c0.5,0,0.5,0,0-0.1C66.6,55.3,66.2,55.1,66.5,55L66.5,55z M67.1,56.1
		c2.6,0.6-2.2,1.9-0.5,0.1c0.1-0.1,0.7,0,0.5,0.1c-0.9,1,1,0.3-0.2,0C66.5,56.3,66.8,56,67.1,56.1L67.1,56.1z M66.4,57.8
		c0.2-0.1,0.3-0.1,0.5-0.2c0.1-0.1,0.4,0,0.5,0.1C68,59,65,59.1,66.4,57.8c0.2-0.2,0.7,0,0.5,0.1c-0.7,0.7,0.2,0.4-0.1-0.2
		c0.1,0,0.3,0.1,0.5,0.1c-0.2,0.1-0.3,0.1-0.5,0.2C66.5,58.1,66.1,57.9,66.4,57.8L66.4,57.8z M69.2,55.2c2.1,1.1-2.8,1.3-0.5-0.2
		C68.8,55,69.4,55.1,69.2,55.2c-1.4,0.9,0.8,0.8-0.4,0.2C68.5,55.2,69.1,55.2,69.2,55.2L69.2,55.2z"/>
	<path class="st1" d="M68.2,56.7c0.5-0.1,0.8-0.1,1.2,0.3c0,0,0,0,0,0c-0.6,0.5-2,0.5-1.3-0.5c0.1-0.1,0.6,0,0.5,0.1
		c0,0.1-0.1,0.1-0.1,0.2C68.3,56.9,67.9,56.7,68.2,56.7L68.2,56.7z M68.6,58.1c0.6-0.2,1.6,0.2,0.7,0.7c-0.3,0.1-0.8,0-1.1-0.2
		c-0.4-0.3,0.5-0.6,0.6-0.7c0.2-0.1,0.7,0.1,0.3,0.2c-0.1,0.1-0.3,0.2-0.4,0.4c0.3,0,0.3-0.1,0.1-0.1C68.7,58.5,68.3,58.3,68.6,58.1
		L68.6,58.1z"/>
	<path class="st1" d="M68,58.4c0.8,0.7-0.3,1.3-1.1,1C66.1,59.1,67.7,58.4,68,58.4c0.4-0.1,0.6,0.2,0.2,0.2c-0.2,0-0.4,0.1-0.6,0.2
		c-0.3,0.2-0.3,0.1-0.1-0.3C67.3,58.4,67.9,58.3,68,58.4L68,58.4z M66.1,59.2c0.5,0.5,0.3,1.5-0.6,1.4c-1.2-0.1-0.6-1.2,0.2-1.5
		C65.8,59.1,66.3,59.2,66.1,59.2c-0.1,0.1-0.4,0.2-0.5,0.4c-0.3,0.2-0.3,0.5,0,0.8c0.4-0.2,0.2-1,0-1.2C65.5,59.2,66,59.1,66.1,59.2
		L66.1,59.2z M64.9,60.8c1.4,1.4-2.9,0.6-0.5-0.2c0.2-0.1,0.6,0.2,0.2,0.3c-0.2,0.5-0.3,0.5-0.2,0.1C64.2,60.8,64.7,60.7,64.9,60.8
		L64.9,60.8z M63.6,61.8c1.8,1.5-3,1.3-0.6,0c0.2-0.1,0.7,0.1,0.3,0.3c-1.3,0.6,0.7,0.6-0.2-0.1C63,61.8,63.5,61.7,63.6,61.8
		L63.6,61.8z M69.3,59.7c0.7,0.5-0.2,1.1-0.8,1c-1.2-0.2-0.5-1,0.3-1.1c0.1,0,0.6,0.1,0.2,0.1c-0.9,0.4-1,0.6-0.1,0.4
		c0.1-0.2,0-0.4-0.2-0.5C68.7,59.7,69.2,59.7,69.3,59.7L69.3,59.7z M66.5,60.6c0.2,0,0.8-0.1,0.9,0.1c0.2,0.4,0.2,0.6-0.3,0.7
		C66.3,61.6,65.4,61.2,66.5,60.6c0.1-0.1,0.6,0,0.5,0c-0.2,0.1-0.3,0.2-0.5,0.3c0.1,0.1,0.3,0.2,0.4,0.2c0.1-0.2,0.1-0.3-0.2-0.5
		C66.6,60.8,66.1,60.6,66.5,60.6L66.5,60.6z"/>
	<path class="st1" d="M65.2,61.8c0.9,0.5,0,1.7-0.7,1.2c-0.9-0.6,0.2-1.3,1-1.2c0.3,0.1,0.1,0.2-0.2,0.2c-0.5-0.1-0.5,0.3-0.5,0.6
		c0,0.5,0.7-0.3,0-0.6C64.5,61.8,65.1,61.8,65.2,61.8L65.2,61.8z M64.2,63.8c0.3,1.7-2.9,0.1-0.8-0.4c0.1,0,0.6,0.1,0.4,0.1
		c-0.4,0.1-0.8,0.2-0.5,0.6c0.4,0.5,0.5-0.2,0.4-0.5C63.6,63.7,64.2,63.7,64.2,63.8L64.2,63.8z M69.2,61.1c0.9,1.9-3.4,0-0.7-0.2
		c0.3,0,0.5,0.3,0.1,0.3c-1,0.1,0.5,0.8,0-0.1C68.5,61,69.1,60.9,69.2,61.1L69.2,61.1z M67.4,61.9c1.9,1.9-3.1,0.1-0.2,0.1
		c0.3,0,0.5,0.3,0.1,0.3c-0.5,0-0.7,0.1-0.1,0.3c0.5,0.1-0.2-0.5-0.2-0.5C66.7,61.9,67.3,61.8,67.4,61.9L67.4,61.9z"/>
	<path class="st1" d="M66.7,62.9c0.4,0.7-0.2,2-1.1,1.2c-0.8-0.7-0.1-1.8,0.9-1.4c0.3,0.1-0.1,0.3-0.3,0.2c-0.4,0.1-0.6,0.3-0.5,0.8
		c0.2,0,0.3,0,0.5-0.1c0-0.2-0.1-0.5-0.2-0.6C66.1,62.8,66.6,62.8,66.7,62.9L66.7,62.9z M64.9,64.1c2.1,0.8-2.9,0.6-0.2-0.2
		c0.1,0,0.6,0.1,0.4,0.2c0.3-0.1-1,0.3-0.5,0.4c0.5,0.1,0.2-0.1,0-0.2C64.2,64.1,64.7,64.1,64.9,64.1L64.9,64.1z M63.7,65.3
		c0.9,0.5,0.1,1.5-0.8,1.1c-0.4-0.2-0.4-0.7-0.2-1.1c0.3-0.5,1-0.2,1.4,0c0.3,0.2-0.1,0.4-0.3,0.3c-0.2,0-0.4,0.1-0.7,0.1
		c0.4,0,0.5-0.1,0.3-0.2C63,65.4,63.4,65.1,63.7,65.3L63.7,65.3z"/>
	<path class="st1" d="M61.6,65.6c0.9,0.1,1.3,1,0.2,1.3C60.5,67.2,60.7,66.1,61.6,65.6c0.2,0,0.7,0.1,0.5,0.2
		c-0.2,0.1-0.5,0.2-0.6,0.4c0.5,0.4,0.6,0.3,0.1-0.4C61.3,65.8,61.3,65.6,61.6,65.6L61.6,65.6z"/>
	<path class="st1" d="M60.7,64.8c0.9,0.6,0.5,1.5-0.7,1.3c-0.4-0.1-0.5-0.5-0.4-0.8c0.2-0.5,0.6-0.8,1.2-0.9
		c0.3-0.1,0.5,0.3,0.1,0.3c-0.1,0-0.2,0.1-0.3,0.1c-0.4,0.5-0.5,0.5-0.2,0.2C60.1,64.9,60.5,64.7,60.7,64.8L60.7,64.8z M59.6,66.4
		c1,0.7,0.4,1.6-0.8,1.5c-0.1,0-0.2,0-0.2-0.1c-0.2-0.9,0.3-1.5,1.3-1.3c0.3,0,0.3,0.3,0,0.3c-0.7,0.7-0.9,0.6-0.6-0.2
		C59,66.4,59.5,66.3,59.6,66.4L59.6,66.4z M58.9,65.5c1.4,1-2.6,1-0.7-0.3c0.1-0.1,0.6,0,0.5,0.1c-0.2,0.1-0.4,0.2-0.5,0.5
		c-0.1,0.1,0.9,0.2,0.2-0.2C58.3,65.4,58.8,65.4,58.9,65.5L58.9,65.5z"/>
	<path class="st1" d="M57,64.7c0.6,0,1.1,0.2,0.9,0.8c-0.2,0.4-0.8,0.7-1.2,0.6c-0.4-0.1-0.6-0.4-0.6-0.7c0-0.6,0.7-0.7,1.2-0.7
		c0.3,0,0.5,0.2,0.1,0.3c-0.5,0-0.7,0.2-0.8,0.5c-0.2,1,1.5-0.3,0.3-0.5C56.7,64.9,56.7,64.7,57,64.7L57,64.7z"/>
	<path class="st1" d="M55.2,65c0.6,0.1,1.1,0.3,1.1,0.9c0,0.4-0.8,0.6-1.1,0.5c-1.2-0.5-0.5-1.8,0.7-1.6c0.4,0,0.3,0.4,0,0.3
		c-0.6,0-0.8,0.2-0.7,0.6c0.2,0.4,0.2,0.3,0-0.4C54.8,65.3,54.8,65,55.2,65L55.2,65z M57.8,66.9c1.3-0.2,1,1.2-0.1,1.3
		c-1.2,0.1-1.5-1.4-0.3-1.6c0.2-0.1,0.6,0.2,0.2,0.3c-0.2,0.1-0.4,0.3-0.5,0.4c0.1,0.7,0.5,0.6,0.9-0.1
		C57.8,67.2,57.4,66.9,57.8,66.9L57.8,66.9z"/>
	<path class="st1" d="M55.4,66.8c0.7,0,1.2,0.3,1.1,1c0,0.1-0.2,0.1-0.3,0.1c-0.9,0-1.7-0.8-0.5-1.2c0.1,0,0.7,0.1,0.4,0.2
		c-0.7,0.5-0.6,0.7,0.1,0.8c-0.1,0-0.2,0.1-0.3,0.1c0.1-0.3,0-0.6-0.5-0.8C55.1,67,55.1,66.8,55.4,66.8L55.4,66.8z M56.5,68.5
		c0.9-0.4,2,0.7,0.9,1.1c-0.9,0.4-1.5-0.5-1-1.2c0.1-0.1,0.6,0,0.5,0.1c-0.1,0.2-0.2,0.4-0.2,0.6c-0.1,1.2,0.9-0.8,0.2-0.5
		C56.8,68.7,56.3,68.6,56.5,68.5L56.5,68.5z M48.7,58.7c1.2-0.6,1.7,1.2,0.8,1.3c-1,0.1-1.8-1-0.6-1.4c0.1,0,0.6,0.1,0.4,0.2
		c-0.5,0.2-0.6,0.5-0.2,0.8c0.4,0.4,0.7-1.1,0.1-0.8C49,58.9,48.5,58.8,48.7,58.7L48.7,58.7z M47,59.3c0.3,0,0.6,0,0.8,0.2
		c0.2,0.2,0.1,0.7-0.2,0.8C46.8,60.5,46,59.5,47,59.3c0.2-0.1,0.7,0,0.4,0.1c-0.1,0.1-0.2,0.2-0.3,0.3c0.4,0.2,0.4,0.1,0.1-0.2
		C47.1,59.5,46.7,59.3,47,59.3L47,59.3z M45.4,60.4c1.2-0.4,1.3,0.2,0.8,1c0,0.1-0.2,0.1-0.3,0.1c-0.3,0-0.5-0.3-0.5-0.6
		c0-0.6,0.6-0.7,1.2-0.6c0.4,0,0.3,0.3,0,0.3c-0.8-0.1-0.6,0.4-0.4,0.7c-0.4,0-0.4-0.1-0.2-0.3c0.2-0.3,0.2-0.4-0.1-0.3
		C45.5,60.7,45,60.5,45.4,60.4L45.4,60.4z M49.5,60.2c1,0,1.4,1.3,0.2,1.4c-1,0.1-1-1-0.1-1.3c0.2-0.1,0.6,0.2,0.2,0.3
		c-0.3,0.6-0.5,0.6-0.4-0.1C49.1,60.5,49.1,60.1,49.5,60.2L49.5,60.2z"/>
	<path class="st1" d="M48,60.2c1,0.1,0.6,0.3,0.6,1.1c0,0.1-0.5,0-0.5,0C47.5,60.9,47.4,60.7,48,60.2c0.1-0.1,0.6,0,0.5,0.1
		c-0.5,0.3-0.4,0.7,0,0.9c-0.2,0-0.4,0-0.5,0c0-0.3,0.4-0.8-0.1-0.8C47.7,60.4,47.7,60.1,48,60.2L48,60.2z M41.3,68.6
		c0.8,0.3,0.9,1.2-0.2,1.1c-1-0.1-1-0.9-0.1-1.3c0.1,0,0.6,0,0.5,0.1c-0.3,0.1-0.6,0.3-0.7,0.7c0.2,0,0.4,0.1,0.6,0.1
		c0.1-0.3-0.1-0.5-0.5-0.7C40.7,68.5,41.2,68.5,41.3,68.6L41.3,68.6z"/>
	<path class="st1" d="M39.4,69.7c1-0.4,1.7-0.1,0.7,0.7c-0.9,0.7-1.5,0.3-0.9-0.7c0.1-0.2,0.7-0.1,0.5,0.1c-0.1,0.3-0.2,0.5-0.5,0.6
		c0.2,0,0.3-0.2,0.5-0.3c0.1-0.1,0.2-0.2,0.4-0.3c0-0.1,0.1-0.1,0.3-0.1c-0.2,0-0.4,0.1-0.5,0.2C39.5,70,39.1,69.8,39.4,69.7
		L39.4,69.7z M40.5,71c1.4-0.1,1.4,1.3-0.1,1.2c-0.1,0-0.2-0.1-0.2-0.2c0-0.6,0.2-0.8,0.8-1c0.2-0.1,0.7,0.1,0.3,0.2
		c-0.4,0.2-0.6,0.5-0.6,0.8c-0.1-0.1-0.2-0.1-0.2-0.2c0.1-0.2,0.1-0.4,0.2-0.6C40.4,71.3,40.2,71,40.5,71L40.5,71z M43.5,68.4
		c0-1,2.5,1,0.5,1.2c-0.5,0.1-0.9-0.2-1.1-0.6c-0.3-0.7,0.4-1,1-1.1c0.1,0,0.6,0.1,0.2,0.2c-0.7,0.1-0.9,0.5-0.7,1
		c0.4,0.7,1.2-0.6,0.2-0.9c0.1,0,0.3,0,0.5,0l-0.1,0.2C44.1,68.5,43.5,68.5,43.5,68.4L43.5,68.4z M42.1,70c1-0.9,1.7,0.9,0.3,1.1
		c-1.3,0.2-0.9-1.4,0.1-1.6c0.2,0,0.6,0.2,0.2,0.3c-0.4,0.1-0.6,0.3-0.7,0.6c0,0.1,0,0.2,0,0.3c0.5,0.1,0.6,0,0.4-0.5
		C42.5,70.4,41.9,70.2,42.1,70L42.1,70z M41.8,72.1c0.4-0.1,0.8-0.1,1.2,0.1c0.3,0.2,0.1,0.8-0.2,1c-0.2,0.1-0.6,0.2-0.8,0
		c-0.8-0.5,0-1.2,0.6-1.4c0.1,0,0.6,0.1,0.5,0.1c-0.2,0.1-0.5,0.2-0.6,0.3c-0.3,0.2-0.3,0.5,0,0.6c0.2-0.2,0.4-0.9-0.2-0.7
		C42,72.3,41.5,72.2,41.8,72.1L41.8,72.1z"/>
	<path class="st1" d="M45.7,69.1c0.5,0.6,0.7,1.7-0.5,1.4c-1.1-0.2-0.6-0.9,0.2-1.2c0.2-0.1,0.6,0.2,0.2,0.3
		c-0.4,0.1-0.8,0.4-0.2,0.5c0.6,0.1-0.1-0.8-0.2-0.9C45,69,45.5,68.9,45.7,69.1L45.7,69.1z M43.7,70.7c1-0.1,1.4,1.2,0.4,1.2
		c-1.2-0.1-1.1-1.1,0-1.4c0.2-0.1,0.6,0.2,0.2,0.3c-0.6,0.6-0.7,0.7-0.5,0.2C43.5,71,43.3,70.7,43.7,70.7L43.7,70.7z"/>
	<path class="st1" d="M45.4,70.7c0.5-0.1,0.9-0.1,1.3,0.1c0.4,0.3,0,0.9-0.4,1c-1.1,0.1-1.2-1-0.1-1.2c0.1,0,0.6,0.1,0.4,0.1
		c-0.4,0.1-0.8,0.2-0.6,0.7c0.2,0.7,0.7-0.8-0.1-0.6C45.6,70.9,45.1,70.7,45.4,70.7L45.4,70.7z M44.7,72c0.4,0.1,1,0.3,0.9,0.7
		c-0.1,0.4-0.8,0.6-1.1,0.5c-0.4-0.1-0.5-0.4-0.5-0.7c0.1-0.6,0.8-0.7,1.3-0.7c0.3,0,0.5,0.3,0.1,0.3c-0.2,0.1-0.5,0.2-0.8,0.3
		c0,0.5-0.1,0.5-0.1-0.1C44.2,72.3,44.4,72,44.7,72L44.7,72z M51.2,64.8c0.5-0.1,1.2-0.2,1.5,0.2c0.2,0.3-0.2,0.8-0.6,0.8
		c-1.1,0.1-1.8-0.9-0.4-1.2c0.2-0.1,0.6,0.2,0.2,0.3c-0.2,0-0.3,0.1-0.5,0.1C51.2,65.1,50.9,64.9,51.2,64.8L51.2,64.8z M53.7,66
		c1.2,0.3,0.1,1.3-0.7,0.7c-0.9-0.7,0.7-1.7,1.3-0.8c0.1,0.1-0.5,0.1-0.5,0c-0.2,0.1-0.4,0.2-0.5,0.3c0.6,0.5,0.6,0.5,0.2,0
		C53,66,53.5,65.9,53.7,66L53.7,66z M50.7,66.9c0.3-0.2,1.1-0.6,1.4-0.2c0.4,0.4-0.2,1.2-0.8,1.2c-1.2-0.1-1.1-1.7,0.4-1.1
		c0.3,0.1-0.1,0.2-0.3,0.1c-0.6-0.2-0.4,0.4-0.3,0.6c0.4,0.6,0.8-1.1,0.1-0.5C51.1,67,50.6,66.9,50.7,66.9L50.7,66.9z M46.3,76.2
		c0.9-0.3,1.7,0.7,0.6,1.1c-1.1,0.4-1.6-0.3-0.8-1.1c0.1-0.1,0.7,0,0.5,0.1c-0.1,0.1-0.9,0.8-0.1,0.7c0.5-0.1,0.7-0.7,0.1-0.6
		C46.3,76.5,46,76.3,46.3,76.2L46.3,76.2z M73,70c1.4-0.5,1.8,1.4,0.7,1.3c-1.2-0.1-1.3-1.5-0.1-1.6c0.2,0,0.6,0.1,0.2,0.2
		c-0.7,0.1-0.7,0.5-0.5,0.8c0.4,0.9,0.8-0.8,0-0.5C73.3,70.3,72.8,70.2,73,70L73,70z M75.2,70.7c1.2-1.3,2.6,0.9,0.5,1.1
		c-0.4,0-1-0.3-1-0.7c0-0.7,0.9-0.7,1.5-0.7c0.3,0,0.3,0.4,0,0.3c-0.8-0.1-1.2,0.9-0.5,0.1C75.6,71,75.1,70.9,75.2,70.7L75.2,70.7z
		 M77.6,71c0.5-0.6,1.4-0.6,1.3,0.3c-0.2,1.2-1.4,0.1-1.6-0.3c0,0,0,0,0-0.1c0.5-0.4,0.8-0.5,1.4-0.5c0.3,0,0.3,0.2,0,0.2
		c-1.2,0-0.6,1.4-0.3,0.6c0-0.1,0-0.2,0-0.3c-0.1-0.1,0-0.2,0.1-0.1c-0.1,0.1-0.2,0.2-0.3,0.3C78,71.2,77.5,71.1,77.6,71L77.6,71z
		 M79.4,71c0.5,0,1,0.1,1.3,0.6c0.2,0.4-0.6,0.5-0.8,0.5c-0.5-0.1-0.8-0.3-0.9-0.7c-0.1-0.6,0.8-0.6,1.2-0.6c0.2,0,0.5,0.2,0.1,0.2
		c-0.5,0-0.8,0-0.8,0.5c0,0.8,1-0.2,0.2-0.2C79.6,71.1,79.1,71,79.4,71L79.4,71z"/>
	<path class="st1" d="M81.1,71.3c0.5-0.3,1.1-0.4,1.6-0.1c0.6,0.3-0.2,0.8-0.6,0.9c-1.3,0.1-1.6-1.2-0.1-1.2c0.2,0,0.5,0.2,0.1,0.2
		c-0.5,0-0.7,0.1-0.7,0.4c0,0.1,0.1,0.1,0.1,0.2c1.1-0.2,1.1-0.3,0.1-0.3C81.5,71.5,81,71.3,81.1,71.3L81.1,71.3z M81.2,72.5
		c0.8,0.2,0.9,1.3-0.1,1.3c-1.2-0.1-0.6-1.2,0.3-1.3c0.2,0,0.6,0.1,0.2,0.2c-0.4,0.1-0.6,0.2-0.7,0.6c0.1,0.1,0.2,0.1,0.3,0.2
		c0.2-0.3,0.1-0.6-0.3-0.8C80.6,72.6,81.1,72.5,81.2,72.5L81.2,72.5z"/>
	<path class="st1" d="M79.8,73.9c0.5,0,1.1,0.2,1,0.7c-0.1,0.4-0.9,0.4-1.2,0.4c-0.4-0.1-0.6-0.4-0.6-0.8c0-0.6,0.9-0.7,1.3-0.7
		c0.2,0,0.5,0.2,0.1,0.2c-0.5,0-0.8,0.1-0.8,0.5c-0.1,0.8,0.6-0.1,0.3-0.1C79.4,74.1,79.5,73.9,79.8,73.9L79.8,73.9z M79,72.6
		c1.2,0.7-0.2,1.1-1,0.7c-0.4-0.2-0.4-0.6-0.1-0.8c0.3-0.3,0.9-0.2,1.3-0.1c0.3,0.1-0.1,0.2-0.3,0.2c-0.2,0-0.4,0.1-0.6,0.1
		c-0.2,0.4-0.1,0.4,0.3,0C78.3,72.5,78.9,72.5,79,72.6L79,72.6z"/>
	<path class="st1" d="M76.2,72.3c1.1-0.5,2,1.2,0.6,1.2c-0.5,0-0.9-0.3-1.2-0.7c-0.3-0.7,0.8-0.7,1.2-0.7c0.2,0,0.5,0.2,0.1,0.1
		c-0.9,0-1,0.3-0.7,0.7c0.7,1.1,0.7-0.7,0.3-0.6C76.6,72.4,76.1,72.4,76.2,72.3L76.2,72.3z"/>
	<path class="st1" d="M75.1,73.3c0.6,0,2.2,0.2,1.3,1c-0.7,0.7-1.6,0.1-1.7-0.6c0-0.1,0.1-0.2,0.1-0.2c0.5-0.1,1-0.2,1.6-0.3
		c0.3,0,0.5,0.3,0.1,0.3c-0.2,0-1.3,0.1-1.2,0.3c0.1,0.6,1.8-0.2-0.1-0.2C74.9,73.7,74.7,73.3,75.1,73.3L75.1,73.3z M77.7,74.7
		c0.3-0.1,0.3-0.1,0.7-0.1c0.1,0,0.4,0,0.4,0.1c0.1,0.8-1.2,1.5-1.8,0.8c-0.8-1,1-1.1,1.7-0.9c0.2,0.1-0.3,0.1-0.4,0.1
		c-0.7-0.1-1,0.1-0.9,0.6c0.2,0,0.5,0,0.8,0c0.1-0.2,0.2-0.4,0.1-0.7c0.1,0,0.3,0.1,0.4,0.1c-0.1,0-0.3,0.1-0.5,0.1
		C78,74.8,77.6,74.7,77.7,74.7L77.7,74.7z M75.2,75.5c1.4-0.5,1.9,0.9,0.2,0.9c-1.4,0-1-1.6,0.5-1.1c0.3,0.1,0.1,0.4-0.2,0.3
		c-0.9,0.3-0.9,0.4-0.1,0.2C75.4,75.9,74.9,75.6,75.2,75.5L75.2,75.5z M74.4,76.7c1.5,0.1,0.2,1.4-0.6,1.1c-1-0.3-0.1-1.3,0.7-1.1
		c0.4,0.1,0.1,0.3-0.2,0.3c-0.1,0-0.2,0.1-0.4,0.1c-0.1,0.3,0,0.3,0.3-0.1C74,76.9,74.1,76.6,74.4,76.7L74.4,76.7z"/>
	<path class="st1" d="M72.1,76.9c0.3-0.2,1.3-0.5,1.4,0.1c0.1,0.9-1.2,0.7-1.8,0.5c0,0-0.1,0-0.1-0.1c0.2-0.7,0.7-0.9,1.5-0.9
		c0.2,0,0.5,0.2,0.1,0.2c-0.3,0.1-0.6,0.2-0.9,0.4c0.2,0.5,0.4,0.5,0.5,0.1c0.1-0.2,0-0.4-0.3-0.2C72.5,77.1,72,77,72.1,76.9
		L72.1,76.9z M72.5,78.3c0.5,0,1-0.1,1.3,0.4c0.2,0.5-0.6,0.7-0.9,0.7c-1.4,0-1.3-1.5,0.1-1.1c0.3,0.1-0.2,0.1-0.3,0.1
		c-0.4-0.1-0.4,0.5-0.3,0.7c0.3,0.7,1.5-0.7,0.4-0.6C72.6,78.4,72.2,78.3,72.5,78.3L72.5,78.3z M70,80.7c0.3-0.1,1-0.3,1.3,0
		c0.4,0.4-0.4,0.8-0.8,0.9c-0.5,0-0.8-0.2-1-0.6c-0.3-0.6,0.7-0.8,1-0.8c0.3,0,0.5,0.2,0.1,0.3c-0.7,0.2-0.8,0.5-0.3,0.7
		c0.5-0.1,0.6-0.2,0.1-0.3C70.2,81,69.7,80.8,70,80.7L70,80.7z M68.5,82.5c0.1-0.2,0-0.2,0.3-0.4c0.1,0,0.6-0.1,0.5,0.1
		c-0.2,0.6-1,1-1.6,0.5c-0.9-0.7,0.6-0.9,1.1-0.8c0.3,0,0.3,0.3,0,0.2c-1.7-0.1-0.4,1,0,0l0.5,0.1c-0.1,0.1-0.2,0.1-0.2,0.2
		C69,82.7,68.5,82.6,68.5,82.5L68.5,82.5z"/>
</g>
</svg>
