<svg xmlns="http://www.w3.org/2000/svg" viewBox="0 0 431.589 431.589" fill="#dcecec"><path d="M154.967 329.982l53.755 53.756a10 10 0 0 0 14.142 0l53.755-53.756c9.067-9.068 14.062-21.125 14.062-33.95s-4.994-24.88-14.062-33.948c-9.068-9.068-21.125-14.062-33.95-14.062-9.725 0-19.01 2.873-26.885 8.217-18.667-12.616-44.308-10.667-60.82 5.844-9.067 9.068-14.06 21.125-14.06 33.95s4.994 24.88 14.062 33.948zm14.142-53.756c5.46-5.46 12.632-8.19 19.806-8.19 7.173 0 14.346 2.73 19.806 8.19 3.905 3.905 10.237 3.905 14.143 0 10.92-10.92 28.692-10.92 39.613 0 5.29 5.29 8.205 12.325 8.205 19.807 0 7.482-2.914 14.516-8.205 19.807l-46.685 46.685-46.685-46.685c-5.29-5.29-8.204-12.325-8.204-19.807 0-7.482 2.914-14.517 8.205-19.807z"/><path d="M407.322 139.402H359.75a100.346 100.346 0 0 0-15.003-13.886c6.703-15.553 9.31-32.536 7.53-49.64a10 10 0 0 0-8.905-8.91 99.618 99.618 0 0 0-18.483-.197c.375-5.652.277-11.377-.323-17.125a10 10 0 0 0-8.908-8.908c-9.232-.964-18.406-.64-27.307.886a99.617 99.617 0 0 0-5.712-23.727 10 10 0 0 0-10.866-6.373c-10.864 1.654-21.503 5.16-31.255 10.25-5.166-7.217-11.34-13.79-18.433-19.542a10 10 0 0 0-12.6 0 100.356 100.356 0 0 0-18.436 19.55c-9.746-5.094-20.382-8.602-31.246-10.257a10 10 0 0 0-10.868 6.373 99.775 99.775 0 0 0-5.715 23.726 100.05 100.05 0 0 0-27.3-.885 10 10 0 0 0-8.907 8.908c-.6 5.747-.698 11.472-.322 17.123-6.14-.5-12.32-.45-18.484.196a10 10 0 0 0-8.903 8.904c-1.79 17.1.815 34.085 7.522 49.65A100.27 100.27 0 0 0 71.828 139.4h-47.56c-5.524 0-10 4.477-10 10v63.694c0 5.523 4.476 10 10 10h12.78v198.493c0 5.523 4.477 10 10 10h337.49c5.523 0 10-4.477 10-10v-198.49h12.784c5.523 0 10-4.478 10-10V149.4c0-5.523-4.477-10-10-10zm-111.31-9.098a101.19 101.19 0 0 0 3.134-3.293c11.07 1.945 21.464 6.16 30.628 12.392h-44.222c3.66-2.767 7.16-5.8 10.46-9.098zm36.81-43.883a78.89 78.89 0 0 1-5.405 28.692 98.196 98.196 0 0 0-15.416-5.7 98.623 98.623 0 0 0 9.332-22.13 79.392 79.392 0 0 1 11.49-.86zm-27.71-26.227c-.023 20.95-8.26 40.983-23.244 55.97-11.727 11.726-26.547 19.296-42.476 22.055l31.05-34.32c3.704-4.095 3.388-10.42-.708-14.125-4.095-3.704-10.42-3.39-14.125.707l-27.485 30.38c3.38-14 10.542-26.946 21.02-37.422 14.986-14.986 35.016-23.22 55.968-23.245zm-38.63-27.17a78.964 78.964 0 0 1 2.312 14.074 98.767 98.767 0 0 0-13.284 6.428 98.273 98.273 0 0 0-5.064-14.36 80.687 80.687 0 0 1 16.035-6.142zm-50.694-9.58c11.747 11.75 19.41 26.704 22.077 43.113-.968.895-1.926 1.803-2.864 2.74a99.47 99.47 0 0 0-19.21 26.965 99.493 99.493 0 0 0-19.21-26.964 101.4 101.4 0 0 0-2.868-2.744c2.668-16.408 10.33-31.36 22.076-43.11zm-50.69 9.582a80.52 80.52 0 0 1 16.03 6.147 98.264 98.264 0 0 0-5.06 14.35 98.732 98.732 0 0 0-13.287-6.427 79.306 79.306 0 0 1 2.318-14.07zm17.34 50.413c10.476 10.477 17.64 23.425 21.02 37.426l-27.49-30.384c-3.704-4.096-10.028-4.412-14.124-.707-4.095 3.705-4.412 10.03-.707 14.125l31.048 34.32c-15.927-2.76-30.748-10.33-42.472-22.056-14.986-14.986-23.22-35.018-23.245-55.97 20.95.026 40.983 8.26 55.97 23.246zM98.753 86.42a79.45 79.45 0 0 1 11.494.863 98.615 98.615 0 0 0 9.33 22.13 98.276 98.276 0 0 0-15.424 5.702 78.858 78.858 0 0 1-5.4-28.694zm33.682 40.59a101.19 101.19 0 0 0 3.135 3.294c3.3 3.3 6.798 6.33 10.46 9.098h-44.224c9.164-6.233 19.558-10.447 30.63-12.39zm242.102 284.58H57.048V223.095h317.49V411.59zm22.784-208.494H34.267v-43.694h363.055v43.694z"/></svg>