<svg xmlns="http://www.w3.org/2000/svg" viewBox="0 0 465.848 465.848" fill="#dcecec"><path d="M54.083 0c-5.522 0-10 4.477-10 10v445.848c0 5.523 4.478 10 10 10s10-4.477 10-10V10c0-5.523-4.477-10-10-10zM411.765 0c-5.522 0-10 4.477-10 10v445.848c0 5.523 4.478 10 10 10s10-4.477 10-10V10c0-5.523-4.478-10-10-10zM323.442 113.495H142.406c-18.31 0-33.208 14.897-33.208 33.208v172.44c0 18.312 14.897 33.21 33.208 33.21H323.44c18.312 0 33.21-14.898 33.21-33.21v-172.44c0-18.31-14.898-33.208-33.208-33.208zm13.208 205.65c0 7.283-5.925 13.208-13.208 13.208H142.406c-7.283 0-13.208-5.925-13.208-13.208V146.703c0-7.283 5.925-13.208 13.208-13.208H323.44c7.284 0 13.21 5.925 13.21 13.208v172.442zM324.344 360.002h-182.84c-17.814 0-32.306 14.492-32.306 32.305v63.54c0 5.524 4.478 10 10 10s10-4.476 10-10v-63.54c0-6.785 5.52-12.305 12.305-12.305h182.84c6.786 0 12.307 5.52 12.307 12.305v63.54c0 5.524 4.478 10 10 10s10-4.476 10-10v-63.54c0-17.813-14.493-32.305-32.306-32.305zM346.65 0c-5.522 0-10 4.477-10 10v63.54c0 6.786-5.52 12.307-12.306 12.307h-182.84c-6.786 0-12.306-5.52-12.306-12.306V10c0-5.523-4.478-10-10-10s-10 4.477-10 10v63.54c0 17.814 14.492 32.307 32.305 32.307h182.84c17.814 0 32.307-14.492 32.307-32.306V10c0-5.523-4.478-10-10-10zM382.256 16.06h-5.946c-5.522 0-10 4.477-10 10s4.478 10 10 10h5.946c5.522 0 10-4.477 10-10s-4.477-10-10-10zM382.256 53.67h-5.946c-5.522 0-10 4.478-10 10s4.478 10 10 10h5.946c5.522 0 10-4.476 10-10s-4.477-10-10-10zM382.256 91.283h-5.946c-5.522 0-10 4.477-10 10s4.478 10 10 10h5.946c5.522 0 10-4.477 10-10s-4.477-10-10-10zM382.256 128.895h-5.946c-5.522 0-10 4.477-10 10s4.478 10 10 10h5.946c5.522 0 10-4.477 10-10s-4.477-10-10-10zM382.256 166.506h-5.946c-5.522 0-10 4.477-10 10s4.478 10 10 10h5.946c5.522 0 10-4.477 10-10s-4.477-10-10-10zM382.256 204.118h-5.946c-5.522 0-10 4.477-10 10s4.478 10 10 10h5.946c5.522 0 10-4.477 10-10s-4.477-10-10-10zM382.256 241.73h-5.946c-5.522 0-10 4.477-10 10s4.478 10 10 10h5.946c5.522 0 10-4.477 10-10s-4.477-10-10-10zM382.256 279.34h-5.946c-5.522 0-10 4.478-10 10s4.478 10 10 10h5.946c5.522 0 10-4.476 10-10s-4.477-10-10-10zM382.256 316.953h-5.946c-5.522 0-10 4.477-10 10s4.478 10 10 10h5.946c5.522 0 10-4.477 10-10s-4.477-10-10-10zM382.256 354.565h-5.946c-5.522 0-10 4.477-10 10s4.478 10 10 10h5.946c5.522 0 10-4.477 10-10s-4.477-10-10-10zM382.256 392.176h-5.946c-5.522 0-10 4.477-10 10s4.478 10 10 10h5.946c5.522 0 10-4.477 10-10s-4.477-10-10-10zM382.256 429.788h-5.946c-5.522 0-10 4.477-10 10s4.478 10 10 10h5.946c5.522 0 10-4.477 10-10s-4.477-10-10-10zM89.538 16.06h-5.946c-5.522 0-10 4.477-10 10s4.478 10 10 10h5.946c5.522 0 10-4.477 10-10s-4.477-10-10-10zM89.538 53.67h-5.946c-5.522 0-10 4.478-10 10s4.478 10 10 10h5.946c5.522 0 10-4.476 10-10s-4.477-10-10-10zM89.538 91.283h-5.946c-5.522 0-10 4.477-10 10s4.478 10 10 10h5.946c5.522 0 10-4.477 10-10s-4.477-10-10-10zM89.538 128.895h-5.946c-5.522 0-10 4.477-10 10s4.478 10 10 10h5.946c5.522 0 10-4.477 10-10s-4.477-10-10-10zM89.538 166.506h-5.946c-5.522 0-10 4.477-10 10s4.478 10 10 10h5.946c5.522 0 10-4.477 10-10s-4.477-10-10-10zM89.538 204.118h-5.946c-5.522 0-10 4.477-10 10s4.478 10 10 10h5.946c5.522 0 10-4.477 10-10s-4.477-10-10-10zM89.538 241.73h-5.946c-5.522 0-10 4.477-10 10s4.478 10 10 10h5.946c5.522 0 10-4.477 10-10s-4.477-10-10-10zM89.538 279.34h-5.946c-5.522 0-10 4.478-10 10s4.478 10 10 10h5.946c5.522 0 10-4.476 10-10s-4.477-10-10-10zM89.538 316.953h-5.946c-5.522 0-10 4.477-10 10s4.478 10 10 10h5.946c5.522 0 10-4.477 10-10s-4.477-10-10-10zM89.538 354.565h-5.946c-5.522 0-10 4.477-10 10s4.478 10 10 10h5.946c5.522 0 10-4.477 10-10s-4.477-10-10-10zM89.538 392.176h-5.946c-5.522 0-10 4.477-10 10s4.478 10 10 10h5.946c5.522 0 10-4.477 10-10s-4.477-10-10-10zM89.538 429.788h-5.946c-5.522 0-10 4.477-10 10s4.478 10 10 10h5.946c5.522 0 10-4.477 10-10s-4.477-10-10-10z"/><path d="M232.924 173.053c-21.146-14.938-50.676-12.95-69.59 5.962-21.134 21.135-21.134 55.525 0 76.66l62.52 62.518c1.952 1.953 4.51 2.93 7.07 2.93s5.118-.977 7.07-2.93l62.52-62.518c21.134-21.135 21.134-55.525 0-76.66-18.914-18.912-48.444-20.9-69.59-5.962zm55.446 68.48l-55.446 55.447-55.446-55.447c-13.337-13.337-13.337-35.038 0-48.375 6.668-6.67 15.428-10.003 24.188-10.003s17.52 3.334 24.188 10.003c3.906 3.905 10.236 3.905 14.143 0 13.336-13.338 35.04-13.338 48.375 0 13.335 13.337 13.335 35.038-.002 48.375z"/></svg>