<svg xmlns="http://www.w3.org/2000/svg" viewBox="0 0 464 464" fill="#dcecec"><path d="M380.663 252.433c-27.24-37.94-60.832-64.108-97.572-76.686l16.564-92.795a30.937 30.937 0 0 0-6.754-25.358 30.923 30.923 0 0 0-14.868-9.79V10c0-5.523-4.478-10-10-10s-10 4.477-10 10v36.492H205.97V10c0-5.523-4.48-10-10-10s-10 4.477-10 10v37.803a30.938 30.938 0 0 0-14.87 9.792 30.937 30.937 0 0 0-6.753 25.358l16.563 92.794c-36.74 12.577-70.33 38.746-97.572 76.686C44.588 306.4 23.246 377.986 23.246 454c0 5.523 4.478 10 10 10h397.508c5.522 0 10-4.477 10-10 0-76.014-21.34-147.6-60.09-201.567zm37.548 157.824l-2.3-1.284c-11.25-6.28-24.218-7.586-36.204-3.953-5.545-62.52-21.71-119.872-46.028-162.737-5.82-10.258-12.028-19.532-18.56-27.79 53.645 37.35 93.003 109.66 103.093 195.764zM202.818 194.262c-5.44 12.04-10.313 28.2-14.748 48.716-9.052 41.88-15.137 98.637-17.267 160.648-5.3.862-10.5 2.63-15.375 5.353-8.036 4.487-18.022 4.49-25.977.05-.027-.017-.062-.038-.092-.053-7.745-4.325-16.307-6.28-24.8-5.91 5.65-58.924 21.078-112.586 43.917-152.24 15.933-27.663 34.606-46.933 54.342-56.565zm4.8 52.942c12.21-56.488 24.27-60.014 24.383-60.014.118 0 12.604 3.694 24.994 62.884 8.744 41.772 14.5 97.93 16.384 159.292-.248-.128-.498-.248-.743-.384a2.533 2.533 0 0 0-.09-.05c-14.037-7.8-31.455-7.786-45.487.05-8.158 4.555-17.9 4.556-26.063-.002a47.218 47.218 0 0 0-10.22-4.212c2.075-61.025 8.012-116.707 16.843-157.564zm85.824 164.013c-1.84-63.466-7.778-121.8-16.87-165.24-4.595-21.945-9.675-39.1-15.38-51.722 20.05 9.78 38.988 29.51 55.092 57.897 23.633 41.657 39.132 98.24 43.955 160.073-5.432.606-10.992-.47-15.97-3.25-14.266-7.964-31.297-7.964-45.56 0l-.056.032a27.08 27.08 0 0 1-5.21 2.21zM186.435 70.435c2.13-2.542 5.127-3.943 8.443-3.943h74.247c3.315 0 6.314 1.4 8.442 3.942 2.13 2.542 2.98 5.74 2.398 9.004l-2.646 14.824H186.68l-2.645-14.824c-.582-3.263.27-6.46 2.4-9.003zm3.818 43.828h83.497l-10.03 56.18c-10.398-2.152-20.993-3.254-31.72-3.254s-21.322 1.1-31.72 3.253l-10.028-56.18zm-41.36 100.222c-6.23 7.873-12.166 16.668-17.747 26.36-25.24 43.824-41.917 103.31-47.183 168.047-.057.03-.115.057-.172.09-8.158 4.555-17.9 4.555-26.063 0l-10.988-6.136c11.427-82.84 50.05-152.09 102.153-188.36zM43.378 444a376.82 376.82 0 0 1 1.022-19.556l3.577 1.998c14.266 7.967 31.3 7.966 45.57-.003 8.157-4.556 17.902-4.557 25.975-.05l.093.052c14.053 7.847 31.513 7.846 45.563 0 8.163-4.558 17.905-4.557 26.066 0 14.264 7.965 31.3 7.965 45.57-.004 8.037-4.488 18.023-4.488 26.06 0l.09.05c14.247 7.918 31.243 7.904 45.48-.044l.056-.03c8.15-4.532 17.873-4.522 26.027.03 14.264 7.964 31.295 7.963 45.576-.01 8.158-4.554 17.898-4.554 26.057 0l14.068 7.855c.167 3.222.308 6.456.394 9.71H43.377z"/></svg>